<svg width="18" height="22" viewBox="0 0 18 22" fill="none" xmlns="http://www.w3.org/2000/svg">
<path d="M17.3636 9.18182C17.3636 15.5455 9.18182 21 9.18182 21C9.18182 21 1 15.5455 1 9.18182C1 7.01187 1.86201 4.93079 3.3964 3.3964C4.93079 1.86201 7.01186 1 9.18182 1C11.3518 1 13.4328 1.86201 14.9672 3.3964C16.5016 4.93079 17.3636 7.01187 17.3636 9.18182Z" stroke="#757472" stroke-linecap="round" stroke-linejoin="round"/>
<path d="M9.1804 11.9096C10.6866 11.9096 11.9077 10.6886 11.9077 9.18235C11.9077 7.67612 10.6866 6.45508 9.1804 6.45508C7.67417 6.45508 6.45312 7.67612 6.45312 9.18235C6.45312 10.6886 7.67417 11.9096 9.1804 11.9096Z" stroke="#757472" stroke-linecap="round" stroke-linejoin="round"/>
</svg>
