<svg width="141" height="69" viewBox="0 0 141 69" fill="none" xmlns="http://www.w3.org/2000/svg">
<path d="M0.54 68.76C0.15 68.61 0 68.16 0.15 67.77C4.11 58.89 9.48 45.66 15.12 33.24L10.5 33.93C10.08 33.99 9.72 33.69 9.63 33.27C9.57 32.85 9.87 32.46 10.29 32.4L15.87 31.59C21.81 18.72 27.87 7.05 33.09 2.31C34.59 0.959998 36.06 0.0899999 37.59 0.0899999C38.19 0.0899999 38.73 0.39 39.06 0.839999C39.42 1.26 39.66 1.8 39.84 2.46C40.17 3.75 40.32 5.46 40.32 7.56C40.32 12.75 39.45 20.31 38.25 28.35L46.59 27.15C46.98 27.09 47.37 27.36 47.43 27.78C47.49 28.2 47.22 28.59 46.8 28.65L38.01 29.94C36.48 39.69 34.53 49.95 33.06 57.39C32.97 57.81 32.58 58.08 32.16 57.99C31.74 57.93 31.47 57.51 31.56 57.09C33.03 49.8 34.92 39.75 36.42 30.15L16.92 33C11.16 45.6 5.61 59.25 1.56 68.37C1.44 68.67 1.14 68.85 0.87 68.85C0.75 68.85 0.66 68.82 0.54 68.76ZM34.11 3.45C32.76 4.68 31.26 6.51 29.7 8.79C26.58 13.38 23.19 19.77 19.8 26.82C19.08 28.29 18.39 29.82 17.67 31.35L36.66 28.59C37.89 20.4 38.79 12.72 38.79 7.56C38.79 6.03 38.7 4.74 38.55 3.75C38.37 2.76 38.1 2.07 37.89 1.8C37.74 1.62 37.68 1.62 37.59 1.62C37.56 1.62 37.56 1.62 37.56 1.62C36.66 1.62 35.46 2.19 34.11 3.45ZM49.6202 33.09C49.3202 32.7 49.2002 32.22 49.2002 31.71C49.2302 30.75 49.5602 29.49 50.2502 27.69C49.6202 27.93 48.9902 28.05 48.4202 28.08C47.9402 28.08 47.4602 27.99 47.0702 27.63C46.6502 27.3 46.4702 26.76 46.4702 26.22C46.4702 25.83 46.5302 25.44 46.6802 24.99C46.8302 24.6 47.2502 24.39 47.6402 24.51C48.0602 24.63 48.2702 25.08 48.1502 25.47C48.0302 25.8 48.0002 26.07 48.0002 26.22C48.0002 26.46 48.0302 26.46 48.0602 26.46C48.0602 26.49 48.1502 26.55 48.4202 26.55C49.0202 26.55 50.2202 26.16 51.3602 25.5C51.6602 25.35 52.0202 25.38 52.2602 25.62C52.5002 25.83 52.5602 26.19 52.4402 26.49C51.2102 29.22 50.7302 30.93 50.7302 31.71C50.7302 31.95 50.7902 32.07 50.7902 32.1C50.8202 32.1 50.8502 32.1 50.8802 32.1C51.1502 32.1 51.8102 31.89 52.5602 31.5C53.3102 31.11 54.2102 30.54 55.1102 29.91C56.9702 28.65 58.9202 27.21 60.3902 26.43C60.7802 26.22 61.2302 26.37 61.4402 26.73C61.6202 27.12 61.5002 27.57 61.1102 27.78C59.1302 28.83 55.7702 31.53 53.2502 32.85C52.4102 33.3 51.6602 33.63 50.8802 33.63C50.8802 33.63 50.8802 33.63 50.8502 33.63C50.4302 33.63 49.9502 33.48 49.6202 33.09ZM60.3466 33.09C60.0466 32.46 59.9566 31.74 59.9566 30.9C59.9566 28.2 60.9466 24.18 62.0266 20.58L58.7866 21.06C58.3666 21.12 57.9766 20.82 57.9166 20.43C57.8566 20.01 58.1266 19.62 58.5466 19.53L62.5066 18.96C62.8666 17.82 63.1966 16.77 63.5266 15.87C63.6466 15.45 64.0666 15.24 64.4866 15.36C64.8766 15.51 65.0866 15.93 64.9666 16.35C64.7266 17.04 64.4566 17.85 64.1866 18.69L66.3166 18.36C66.7366 18.3 67.1266 18.6 67.1866 19.02C67.2466 19.44 66.9766 19.83 66.5566 19.89L63.7066 20.31C62.5666 24.06 61.4866 28.38 61.4866 30.9C61.4866 31.62 61.5766 32.16 61.7266 32.43C61.8766 32.7 61.8766 32.67 62.0866 32.7C63.3766 32.85 66.8266 30.96 71.1766 26.58C71.4466 26.25 71.9266 26.22 72.2566 26.49C72.5866 26.76 72.6166 27.24 72.3466 27.57C69.9166 30.21 65.1766 34.2 62.0866 34.23C62.0566 34.23 62.0266 34.23 62.0266 34.23C61.2766 34.23 60.6166 33.72 60.3466 33.09ZM70.6416 33.42C70.3416 33 70.2516 32.46 70.2216 31.86C70.2516 30.42 70.8216 28.32 72.2016 25.08C72.3816 24.69 72.8316 24.51 73.2216 24.69C73.6116 24.87 73.7916 25.32 73.6116 25.68C72.2616 28.8 71.7516 30.84 71.7816 31.86C71.7516 32.28 71.8416 32.49 71.9016 32.55C71.9316 32.58 71.8716 32.55 71.9916 32.58C72.3216 32.61 73.4316 32.04 74.4816 30.99C75.5616 29.97 76.6716 28.56 77.5116 27.06C77.6916 26.73 78.0816 26.58 78.4416 26.7C78.8016 26.85 79.0116 27.21 78.9216 27.57C78.7716 28.38 78.7116 29.04 78.7116 29.55C78.7116 30.45 78.8916 30.93 79.1016 31.17C79.3116 31.41 79.5516 31.53 80.0316 31.53C81.1416 31.56 83.1516 30.54 84.8316 29.25C85.1316 29.01 85.4616 28.77 85.7316 28.5C85.3716 28.17 85.1616 27.69 85.1916 27.24C85.1916 26.4 85.6716 25.77 86.2116 25.26C86.7516 24.78 87.4116 24.42 88.1916 24.39C88.5216 24.39 88.8516 24.45 89.1816 24.69C89.5116 24.93 89.6616 25.35 89.6316 25.65C89.6016 26.49 89.1516 27.09 88.5216 27.87C88.7316 27.9 88.9416 27.9 89.1816 27.9C90.9516 27.9 93.8316 27.48 98.0616 26.37C98.4816 26.28 98.9016 26.52 98.9916 26.91C99.1116 27.33 98.8716 27.75 98.4516 27.87C94.1316 28.98 91.1916 29.43 89.1816 29.43C88.4016 29.43 87.7416 29.37 87.2316 29.25C86.8716 29.55 86.5116 29.88 86.1216 30.18C84.2016 31.68 81.9816 33.03 80.0316 33.06C79.2516 33.06 78.4716 32.79 77.9316 32.16C77.5116 31.68 77.3016 31.02 77.2116 30.24C76.6716 30.93 76.1016 31.56 75.5316 32.1C74.3016 33.24 73.1916 34.05 71.9916 34.11H71.9616C71.4816 34.11 70.9416 33.87 70.6416 33.42ZM87.2316 26.4C86.8716 26.7 86.6916 27.09 86.7216 27.24C86.7216 27.3 86.6916 27.33 86.8416 27.45C87.4116 26.85 87.8316 26.31 88.0116 25.95C87.8016 26.01 87.4716 26.16 87.2316 26.4ZM98.3531 33.06C97.6931 33 97.0931 32.79 96.7031 32.37C96.2831 31.92 96.1331 31.35 96.1331 30.81C96.1631 29.58 96.8231 28.23 97.7231 27.03C98.6231 25.86 99.7631 24.84 101.053 24.45C101.413 24.36 101.833 24.3 102.253 24.3C102.943 24.3 103.693 24.48 104.473 24.84C104.833 25.02 105.013 25.47 104.833 25.86C104.683 26.16 104.383 26.31 104.053 26.28C104.113 26.49 104.173 26.7 104.143 26.91C104.143 27.03 104.143 27.15 104.143 27.27C104.083 27.72 103.933 28.17 103.813 28.56C104.053 28.59 104.293 28.59 104.593 28.59C106.183 28.59 108.463 28.08 111.433 26.58C111.793 26.4 112.243 26.55 112.453 26.91C112.633 27.3 112.483 27.75 112.123 27.96C109.003 29.52 106.513 30.12 104.593 30.12C104.053 30.12 103.543 30.06 103.093 29.97C101.893 32.01 100.093 33.03 98.5331 33.06C98.4731 33.06 98.4131 33.06 98.3531 33.06ZM98.9231 27.96C98.1431 28.98 97.6331 30.18 97.6631 30.81C97.6631 31.11 97.7231 31.23 97.8131 31.32C97.8731 31.38 98.0231 31.5 98.4431 31.53C98.4731 31.53 98.5031 31.53 98.5331 31.53C99.3431 31.53 100.693 30.9 101.653 29.46C101.623 29.43 101.623 29.43 101.593 29.43C100.873 28.98 100.363 28.29 100.363 27.48C100.363 27.21 100.423 26.91 100.573 26.67C100.663 26.49 100.753 26.34 100.873 26.19C100.243 26.55 99.4931 27.21 98.9231 27.96ZM101.923 27.33C101.893 27.39 101.893 27.45 101.893 27.48C101.893 27.6 101.953 27.81 102.343 28.08C102.463 27.75 102.583 27.36 102.613 27.06C102.613 27.03 102.613 26.97 102.613 26.91C102.613 26.88 102.613 26.82 102.613 26.82C102.463 26.82 102.073 27 101.923 27.33ZM113.722 33.09C113.422 32.7 113.302 32.22 113.302 31.71C113.332 30.75 113.662 29.49 114.352 27.69C113.722 27.93 113.092 28.05 112.522 28.08C112.042 28.08 111.562 27.99 111.172 27.63C110.752 27.3 110.572 26.76 110.572 26.22C110.572 25.83 110.632 25.44 110.782 24.99C110.932 24.6 111.352 24.39 111.742 24.51C112.162 24.63 112.372 25.08 112.252 25.47C112.132 25.8 112.102 26.07 112.102 26.22C112.102 26.46 112.132 26.46 112.162 26.46C112.162 26.49 112.252 26.55 112.522 26.55C113.122 26.55 114.322 26.16 115.462 25.5C115.762 25.35 116.122 25.38 116.362 25.62C116.602 25.83 116.662 26.19 116.542 26.49C115.312 29.22 114.832 30.93 114.832 31.71C114.832 31.95 114.892 32.07 114.892 32.1C114.922 32.1 114.952 32.1 114.982 32.1C115.252 32.1 115.912 31.89 116.662 31.5C117.412 31.11 118.312 30.54 119.212 29.91C121.072 28.65 123.022 27.21 124.492 26.43C124.882 26.22 125.332 26.37 125.542 26.73C125.722 27.12 125.602 27.57 125.212 27.78C123.232 28.83 119.872 31.53 117.352 32.85C116.512 33.3 115.762 33.63 114.982 33.63C114.982 33.63 114.982 33.63 114.952 33.63C114.532 33.63 114.052 33.48 113.722 33.09ZM123.908 36.33C123.878 35.67 123.848 35.01 123.848 34.35C123.848 33.9 123.878 33.42 123.878 32.97C123.878 32.94 123.878 32.91 123.878 32.91V32.88C124.088 25.56 125.708 16.92 127.598 10.47C128.288 8.22 129.158 6.45 130.088 5.52C130.418 5.22 130.778 4.95 131.318 4.92C131.648 4.92 131.978 5.07 132.188 5.28C132.398 5.49 132.548 5.73 132.638 6C132.848 6.57 132.908 7.23 132.938 8.16C132.938 8.91 132.878 9.84 132.728 10.98C132.188 15.54 130.118 22.11 125.768 27.54C125.768 27.69 125.738 27.81 125.738 27.96C125.858 27.75 126.008 27.54 126.128 27.36C127.358 25.59 128.858 24 130.268 22.95C131.198 22.23 132.068 21.72 132.908 21.57C133.328 21.48 133.718 21.78 133.778 22.2C133.868 22.62 133.568 23.01 133.178 23.07C132.788 23.13 132.008 23.52 131.198 24.15C130.418 24.75 129.608 25.53 128.828 26.4C130.358 28.56 131.798 29.16 133.208 29.19C135.338 29.19 137.588 27.51 139.178 26.37C139.538 26.13 139.988 26.22 140.258 26.55C140.498 26.91 140.408 27.39 140.078 27.63C138.518 28.71 136.088 30.69 133.208 30.72C131.378 30.72 129.458 29.82 127.808 27.63C126.488 29.4 125.498 31.41 125.408 32.97C125.408 33.45 125.378 33.9 125.378 34.35C125.378 35.01 125.408 35.64 125.438 36.27C125.438 36.69 125.108 37.05 124.688 37.05C124.688 37.05 124.688 37.05 124.658 37.05C124.268 37.05 123.908 36.72 123.908 36.33ZM131.138 6.63C130.958 6.78 130.718 7.11 130.478 7.5C129.998 8.31 129.488 9.51 129.068 10.89C127.898 14.82 126.848 19.62 126.158 24.39C129.218 19.71 130.778 14.49 131.198 10.8C131.348 9.72 131.408 8.85 131.408 8.16C131.408 7.35 131.318 6.81 131.228 6.57C131.198 6.57 131.168 6.6 131.138 6.63Z" fill="#B59C6B"/>
</svg>
