<svg width="132" height="69" viewBox="0 0 132 69" fill="none" xmlns="http://www.w3.org/2000/svg">
<path d="M0.54 68.76C0.15 68.61 0 68.16 0.15 67.77C4.11 58.89 9.48 45.66 15.12 33.24L10.5 33.93C10.08 33.99 9.72 33.69 9.63 33.27C9.57 32.85 9.87 32.46 10.29 32.4L15.87 31.59C21.81 18.72 27.87 7.05 33.09 2.31C34.59 0.959998 36.06 0.0899999 37.59 0.0899999C38.19 0.0899999 38.73 0.39 39.06 0.839999C39.42 1.26 39.66 1.8 39.84 2.46C40.17 3.75 40.32 5.46 40.32 7.56C40.32 12.75 39.45 20.31 38.25 28.35L46.59 27.15C46.98 27.09 47.37 27.36 47.43 27.78C47.49 28.2 47.22 28.59 46.8 28.65L38.01 29.94C36.48 39.69 34.53 49.95 33.06 57.39C32.97 57.81 32.58 58.08 32.16 57.99C31.74 57.93 31.47 57.51 31.56 57.09C33.03 49.8 34.92 39.75 36.42 30.15L16.92 33C11.16 45.6 5.61 59.25 1.56 68.37C1.44 68.67 1.14 68.85 0.87 68.85C0.75 68.85 0.66 68.82 0.54 68.76ZM34.11 3.45C32.76 4.68 31.26 6.51 29.7 8.79C26.58 13.38 23.19 19.77 19.8 26.82C19.08 28.29 18.39 29.82 17.67 31.35L36.66 28.59C37.89 20.4 38.79 12.72 38.79 7.56C38.79 6.03 38.7 4.74 38.55 3.75C38.37 2.76 38.1 2.07 37.89 1.8C37.74 1.62 37.68 1.62 37.59 1.62C37.56 1.62 37.56 1.62 37.56 1.62C36.66 1.62 35.46 2.19 34.11 3.45ZM46.5302 33.42C46.2302 33 46.1402 32.46 46.1102 31.86C46.1402 30.42 46.7102 28.32 48.0902 25.08C48.2702 24.69 48.7202 24.51 49.1102 24.69C49.5002 24.87 49.6802 25.32 49.5002 25.68C48.1502 28.8 47.6402 30.84 47.6702 31.86C47.6402 32.28 47.7302 32.49 47.7902 32.55C47.8202 32.58 47.7602 32.55 47.8802 32.58C48.2102 32.61 49.3202 32.04 50.3702 30.99C51.4502 29.97 52.5602 28.56 53.4002 27.06C53.5802 26.73 53.9702 26.58 54.3302 26.7C54.6902 26.85 54.9002 27.21 54.8102 27.57C54.6602 28.38 54.6002 29.04 54.6002 29.55C54.6002 30.45 54.7802 30.93 54.9902 31.17C55.2002 31.41 55.4402 31.53 55.9202 31.53C57.0302 31.56 59.0402 30.54 60.7202 29.25C61.0202 29.01 61.3502 28.77 61.6202 28.5C61.2602 28.17 61.0502 27.69 61.0802 27.24C61.0802 26.4 61.5602 25.77 62.1002 25.26C62.6402 24.78 63.3002 24.42 64.0802 24.39C64.4102 24.39 64.7402 24.45 65.0702 24.69C65.4002 24.93 65.5502 25.35 65.5202 25.65C65.4902 26.49 65.0402 27.09 64.4102 27.87C64.6202 27.9 64.8302 27.9 65.0702 27.9C66.8402 27.9 69.7202 27.48 73.9502 26.37C74.3702 26.28 74.7902 26.52 74.8802 26.91C75.0002 27.33 74.7602 27.75 74.3402 27.87C70.0202 28.98 67.0802 29.43 65.0702 29.43C64.2902 29.43 63.6302 29.37 63.1202 29.25C62.7602 29.55 62.4002 29.88 62.0102 30.18C60.0902 31.68 57.8702 33.03 55.9202 33.06C55.1402 33.06 54.3602 32.79 53.8202 32.16C53.4002 31.68 53.1902 31.02 53.1002 30.24C52.5602 30.93 51.9902 31.56 51.4202 32.1C50.1902 33.24 49.0802 34.05 47.8802 34.11H47.8502C47.3702 34.11 46.8302 33.87 46.5302 33.42ZM63.1202 26.4C62.7602 26.7 62.5802 27.09 62.6102 27.24C62.6102 27.3 62.5802 27.33 62.7302 27.45C63.3002 26.85 63.7202 26.31 63.9002 25.95C63.6902 26.01 63.3602 26.16 63.1202 26.4ZM71.9618 32.43C71.7518 32.1 71.6918 31.71 71.6918 31.38C71.7218 30.12 72.4118 28.5 73.5218 27.06C74.6318 25.62 76.2218 24.36 78.2018 24.33C78.8618 24.33 79.5518 24.51 80.2418 24.84C80.6318 25.02 80.7818 25.47 80.5718 25.86C80.4518 26.13 80.1818 26.28 79.8818 26.28C79.9418 26.43 79.9718 26.58 79.9418 26.76C79.9418 26.76 79.9418 26.76 79.9118 26.85C79.9118 26.94 79.8818 27.09 79.8818 27.24C79.8818 27.63 79.9718 28.2 80.2118 28.68C80.4818 29.16 80.8718 29.58 81.7418 29.91C81.9218 29.97 82.1918 30 82.4618 30C83.4218 30.03 84.8318 29.55 86.1518 28.92C87.4418 28.32 88.7018 27.57 89.4518 27.06C89.9618 26.73 90.2918 26.52 90.2918 26.52C90.6218 26.28 91.1018 26.37 91.3418 26.7C91.5818 27.06 91.5218 27.54 91.1618 27.78C91.1618 27.78 89.8418 28.71 88.1318 29.64C86.4218 30.57 84.3218 31.53 82.4618 31.53C82.0418 31.53 81.6218 31.47 81.2318 31.35C80.0318 30.93 79.2518 30.18 78.8618 29.37C78.7118 29.1 78.6218 28.86 78.5618 28.59C77.4518 29.91 76.5218 30.87 75.7418 31.56C74.6918 32.49 73.9418 32.97 73.1018 33C73.0718 33 73.0718 33 73.0418 33C72.6518 33 72.2018 32.79 71.9618 32.43ZM74.7218 27.99C73.7618 29.19 73.1918 30.72 73.2218 31.38C73.2218 31.41 73.2218 31.44 73.2218 31.44C73.4618 31.38 74.0318 31.08 74.7518 30.42C75.6818 29.58 76.9718 28.2 78.5918 26.13C78.6518 26.04 78.7118 25.98 78.8018 25.95C78.5918 25.89 78.3818 25.86 78.2018 25.86H78.1718C76.9418 25.86 75.6818 26.76 74.7218 27.99ZM92.6573 33.09C92.3573 32.7 92.2373 32.22 92.2373 31.71C92.2673 30.75 92.5973 29.49 93.2873 27.69C92.6573 27.93 92.0273 28.05 91.4573 28.08C90.9773 28.08 90.4973 27.99 90.1073 27.63C89.6873 27.3 89.5073 26.76 89.5073 26.22C89.5073 25.83 89.5673 25.44 89.7173 24.99C89.8673 24.6 90.2873 24.39 90.6773 24.51C91.0973 24.63 91.3073 25.08 91.1873 25.47C91.0673 25.8 91.0373 26.07 91.0373 26.22C91.0373 26.46 91.0673 26.46 91.0973 26.46C91.0973 26.49 91.1873 26.55 91.4573 26.55C92.0573 26.55 93.2573 26.16 94.3973 25.5C94.6973 25.35 95.0573 25.38 95.2973 25.62C95.5373 25.83 95.5973 26.19 95.4773 26.49C94.2473 29.22 93.7673 30.93 93.7673 31.71C93.7673 31.95 93.8273 32.07 93.8273 32.1C93.8573 32.1 93.8873 32.1 93.9173 32.1C94.1873 32.1 94.8473 31.89 95.5973 31.5C96.3473 31.11 97.2473 30.54 98.1473 29.91C100.007 28.65 101.957 27.21 103.427 26.43C103.817 26.22 104.267 26.37 104.477 26.73C104.657 27.12 104.537 27.57 104.147 27.78C102.167 28.83 98.8073 31.53 96.2873 32.85C95.4473 33.3 94.6973 33.63 93.9173 33.63C93.9173 33.63 93.9173 33.63 93.8873 33.63C93.4673 33.63 92.9873 33.48 92.6573 33.09ZM101.974 32.7C101.764 32.31 101.734 31.89 101.704 31.47C101.764 29.58 102.814 26.79 104.524 25.26C105.124 24.75 105.814 24.36 106.624 24.36C107.104 24.36 107.584 24.51 108.034 24.75C108.214 20.16 109.744 14.34 110.704 10.92C111.394 8.67 112.294 6.93 113.284 6.03C113.644 5.76 114.034 5.49 114.544 5.49C115.204 5.49 115.714 6 115.924 6.54C116.134 7.11 116.224 7.8 116.224 8.73C116.224 9.36 116.194 10.11 116.074 10.98C115.564 15.33 113.494 21.48 109.594 26.76C109.684 27.72 109.864 28.53 110.134 29.07C110.554 29.85 110.974 30.18 111.874 30.21C113.104 30.21 115.384 29.22 118.654 26.55C118.954 26.28 119.464 26.34 119.704 26.67C119.974 27 119.944 27.48 119.614 27.75C116.224 30.48 113.824 31.71 111.874 31.74C110.434 31.77 109.324 30.93 108.784 29.76C108.604 29.4 108.454 29.01 108.334 28.59C107.314 30.03 106.474 31.08 105.754 31.86C104.764 32.85 104.074 33.39 103.174 33.42H103.144C102.634 33.42 102.154 33.09 101.974 32.7ZM105.514 26.4C105.124 26.76 104.704 27.27 104.374 27.87C103.684 29.07 103.234 30.6 103.234 31.47C103.234 31.65 103.264 31.77 103.294 31.86C103.354 31.83 103.444 31.8 103.594 31.71C103.864 31.53 104.194 31.23 104.644 30.78C105.454 29.94 106.534 28.59 107.854 26.58C107.344 26.04 106.954 25.89 106.624 25.89C106.294 25.89 105.934 26.07 105.514 26.4ZM114.304 7.2C114.094 7.35 113.854 7.65 113.614 8.04C113.104 8.82 112.594 9.96 112.174 11.34C111.274 14.52 109.894 19.83 109.594 24.06C112.534 19.47 114.124 14.37 114.574 10.8C114.664 9.96 114.694 9.27 114.694 8.73C114.724 7.83 114.574 7.26 114.484 7.05C114.424 7.08 114.364 7.14 114.304 7.2ZM119.126 40.23C118.796 39.6 118.676 38.94 118.736 38.28C118.856 36.51 119.996 34.98 120.896 33.9C120.986 33.78 121.106 33.66 121.196 33.54C120.956 32.85 120.686 32.16 120.386 31.44C119.576 29.43 118.676 27.45 118.766 25.53C118.826 24.6 119.156 23.67 119.846 22.92C120.536 22.17 121.556 21.6 122.936 21.15C123.326 21.03 123.776 21.24 123.896 21.63C124.016 22.05 123.806 22.47 123.386 22.59C122.186 22.98 121.436 23.46 120.986 23.97C120.536 24.45 120.356 24.96 120.296 25.62C120.206 26.97 120.956 28.86 121.796 30.87C121.976 31.32 122.186 31.8 122.366 32.31C125.426 29.4 129.176 26.94 129.926 26.49C129.926 26.49 130.406 26.04 130.916 26.4C131.366 27.03 130.766 27.51 130.616 27.57C128.576 28.98 126.206 30.66 122.936 33.93C123.236 35.01 123.446 36.09 123.386 37.17C123.356 37.41 123.326 37.62 123.296 37.86C123.146 38.79 122.786 39.6 122.336 40.2C121.856 40.77 121.256 41.22 120.476 41.19C120.476 41.19 120.476 41.19 120.446 41.19C119.876 41.16 119.366 40.74 119.126 40.23ZM120.266 38.37C120.236 38.79 120.296 39.15 120.476 39.54C120.536 39.63 120.566 39.66 120.566 39.66C120.596 39.66 120.656 39.66 120.746 39.6C120.836 39.54 120.986 39.42 121.136 39.24C121.406 38.91 121.676 38.31 121.796 37.59C121.826 37.44 121.826 37.26 121.856 37.08C121.886 36.54 121.826 35.94 121.706 35.34C120.956 36.24 120.296 37.41 120.266 38.37Z" fill="#B59C6B"/>
</svg>
