<svg width="119" height="64" viewBox="0 0 119 64" fill="none" xmlns="http://www.w3.org/2000/svg">
<path d="M10.2 63.54C9.78 63.45 9.51 63.06 9.6 62.64C12.18 49.71 17.97 20.01 18.03 7.8C18.03 7.38 18.39 7.05 18.81 7.05C19.23 7.05 19.56 7.38 19.56 7.8C19.53 14.13 18.03 24.78 16.23 35.46C31.83 24.39 37.71 13.92 37.68 7.59C37.65 5.31 36.75 3.99 35.25 3.03C33.75 2.1 31.59 1.71 29.28 1.71C28.26 1.71 27.21 1.77 26.19 1.92C15.87 3.24 7.86 11.31 2.13 20.28C1.89 20.64 1.41 20.73 1.05 20.49C0.69 20.28 0.6 19.8 0.84 19.44C6.69 10.32 14.97 1.86 25.98 0.39C27.06 0.24 28.17 0.179997 29.28 0.179997C31.77 0.179997 34.2 0.599999 36.06 1.74C37.95 2.88 39.24 4.86 39.21 7.59C39.18 14.04 34.17 23.28 21.78 33.18C27.72 30.66 32.04 29.55 35.1 29.55C36.72 29.55 38.07 29.88 39.06 30.51C41.52 29.04 44.01 27.9 46.5 27.24C46.92 27.12 47.34 27.36 47.46 27.78C47.55 28.17 47.31 28.59 46.92 28.71C44.7 29.28 42.45 30.3 40.2 31.59C40.86 32.49 41.13 33.6 41.13 34.77C41.1 38.22 38.97 42.63 35.94 46.95C32.91 51.27 28.98 55.41 25.23 58.11C22.71 59.88 20.28 61.05 18.09 61.05C17.4 61.05 16.71 60.84 16.29 60.36C15.84 59.85 15.69 59.22 15.69 58.56C15.72 56.73 16.77 54.27 18.54 51.33C20.28 48.42 22.74 45.12 25.65 41.88C29.13 38.04 33.24 34.29 37.53 31.47C36.93 31.23 36.12 31.08 35.1 31.08C31.47 31.08 25.26 32.91 15.87 37.65C14.19 47.4 12.3 56.94 11.1 62.94C11.01 63.3 10.71 63.57 10.35 63.57C10.29 63.57 10.23 63.57 10.2 63.54ZM19.83 52.11C18.15 54.9 17.22 57.33 17.22 58.56C17.22 59.01 17.34 59.22 17.43 59.31C17.52 59.43 17.67 59.52 18.09 59.52C20.52 59.55 24.36 57.27 27.96 53.85C31.59 50.46 35.1 45.99 37.29 41.91C38.76 39.21 39.6 36.63 39.6 34.77C39.6 33.75 39.36 32.97 38.91 32.4C31.05 37.41 23.61 45.81 19.83 52.11ZM48.8175 33.09C48.5175 32.7 48.3975 32.22 48.3975 31.71C48.4275 30.75 48.7575 29.49 49.4475 27.69C48.8175 27.93 48.1875 28.05 47.6175 28.08C47.1375 28.08 46.6575 27.99 46.2675 27.63C45.8475 27.3 45.6675 26.76 45.6675 26.22C45.6675 25.83 45.7275 25.44 45.8775 24.99C46.0275 24.6 46.4475 24.39 46.8375 24.51C47.2575 24.63 47.4675 25.08 47.3475 25.47C47.2275 25.8 47.1975 26.07 47.1975 26.22C47.1975 26.46 47.2275 26.46 47.2575 26.46C47.2575 26.49 47.3475 26.55 47.6175 26.55C48.2175 26.55 49.4175 26.16 50.5575 25.5C50.8575 25.35 51.2175 25.38 51.4575 25.62C51.6975 25.83 51.7575 26.19 51.6375 26.49C50.4075 29.22 49.9275 30.93 49.9275 31.71C49.9275 31.95 49.9875 32.07 49.9875 32.1C50.0175 32.1 50.0475 32.1 50.0775 32.1C50.3475 32.1 51.0075 31.89 51.7575 31.5C52.5075 31.11 53.4075 30.54 54.3075 29.91C56.1675 28.65 58.1175 27.21 59.5875 26.43C59.9775 26.22 60.4275 26.37 60.6375 26.73C60.8175 27.12 60.6975 27.57 60.3075 27.78C58.3275 28.83 54.9675 31.53 52.4475 32.85C51.6075 33.3 50.8575 33.63 50.0775 33.63C50.0775 33.63 50.0775 33.63 50.0475 33.63C49.6275 33.63 49.1475 33.48 48.8175 33.09ZM57.6239 32.43C57.4139 32.1 57.3539 31.71 57.3539 31.38C57.3839 30.12 58.0739 28.5 59.1839 27.06C60.2939 25.62 61.8839 24.36 63.8639 24.33C64.5239 24.33 65.2139 24.51 65.9039 24.84C66.2939 25.02 66.4439 25.47 66.2339 25.86C66.1139 26.13 65.8439 26.28 65.5439 26.28C65.6039 26.43 65.6339 26.58 65.6039 26.76C65.6039 26.76 65.6039 26.76 65.5739 26.85C65.5739 26.94 65.5439 27.09 65.5439 27.24C65.5439 27.63 65.6339 28.2 65.8739 28.68C66.1439 29.16 66.5339 29.58 67.4039 29.91C67.5839 29.97 67.8539 30 68.1239 30C69.0839 30.03 70.4939 29.55 71.8139 28.92C73.1039 28.32 74.3639 27.57 75.1139 27.06C75.6239 26.73 75.9539 26.52 75.9539 26.52C76.2839 26.28 76.7639 26.37 77.0039 26.7C77.2439 27.06 77.1839 27.54 76.8239 27.78C76.8239 27.78 75.5039 28.71 73.7939 29.64C72.0839 30.57 69.9839 31.53 68.1239 31.53C67.7039 31.53 67.2839 31.47 66.8939 31.35C65.6939 30.93 64.9139 30.18 64.5239 29.37C64.3739 29.1 64.2839 28.86 64.2239 28.59C63.1139 29.91 62.1839 30.87 61.4039 31.56C60.3539 32.49 59.6039 32.97 58.7639 33C58.7339 33 58.7339 33 58.7039 33C58.3139 33 57.8639 32.79 57.6239 32.43ZM60.3839 27.99C59.4239 29.19 58.8539 30.72 58.8839 31.38C58.8839 31.41 58.8839 31.44 58.8839 31.44C59.1239 31.38 59.6939 31.08 60.4139 30.42C61.3439 29.58 62.6339 28.2 64.2539 26.13C64.3139 26.04 64.3739 25.98 64.4639 25.95C64.2539 25.89 64.0439 25.86 63.8639 25.86H63.8339C62.6039 25.86 61.3439 26.76 60.3839 27.99ZM74.9595 32.4C74.5995 32.25 74.4495 31.86 74.5395 31.5L76.3695 25.26C76.4895 24.87 76.9395 24.63 77.3295 24.75C77.7495 24.87 77.9595 25.29 77.8395 25.71L77.1495 28.11C77.6295 27.54 78.1695 27 78.6795 26.55C79.3395 26.01 79.8795 25.53 80.7195 25.5C80.7195 25.5 80.7795 25.5 80.8095 25.5C81.3495 25.5 81.8595 25.89 82.0395 26.31C82.2495 26.73 82.2495 27.12 82.2495 27.51C82.2495 28.05 82.1895 28.62 82.1895 29.07C82.1895 29.49 82.2495 29.82 82.3395 29.91C82.3995 29.97 82.3995 30.03 82.8195 30.06C83.6895 30.09 86.0295 29.25 90.3195 26.58C90.6795 26.34 91.1595 26.46 91.3695 26.82C91.6095 27.18 91.4895 27.66 91.1295 27.87C86.7195 30.57 84.4095 31.56 82.8195 31.59C82.0695 31.62 81.3495 31.26 81.0195 30.72C80.7195 30.18 80.6595 29.61 80.6595 29.07C80.6595 28.5 80.7195 27.93 80.7195 27.51C80.7195 27.33 80.7195 27.21 80.7195 27.09C80.6895 27.06 80.6895 27.06 80.6895 27.03C80.6595 27.03 80.5995 27.06 80.5395 27.09C80.4195 27.15 80.2695 27.24 80.0895 27.36C79.7295 27.63 79.2795 28.05 78.8595 28.5C77.9595 29.43 77.0895 30.57 76.5195 31.32C76.1295 31.83 75.9195 32.16 75.9195 32.16C75.7695 32.37 75.5295 32.49 75.2895 32.49C75.1695 32.49 75.0495 32.46 74.9595 32.4ZM88.9249 32.7C88.7149 32.31 88.6849 31.89 88.6549 31.47C88.7149 29.58 89.7649 26.79 91.4749 25.26C92.0749 24.75 92.7649 24.36 93.5749 24.36C94.0549 24.36 94.5349 24.51 94.9849 24.75C95.1649 20.16 96.6949 14.34 97.6549 10.92C98.3449 8.67 99.2449 6.93 100.235 6.03C100.595 5.76 100.985 5.49 101.495 5.49C102.155 5.49 102.665 6 102.875 6.54C103.085 7.11 103.175 7.8 103.175 8.73C103.175 9.36 103.145 10.11 103.025 10.98C102.515 15.33 100.445 21.48 96.5449 26.76C96.6349 27.72 96.8149 28.53 97.0849 29.07C97.5049 29.85 97.9249 30.18 98.8249 30.21C100.055 30.21 102.335 29.22 105.605 26.55C105.905 26.28 106.415 26.34 106.655 26.67C106.925 27 106.895 27.48 106.565 27.75C103.175 30.48 100.775 31.71 98.8249 31.74C97.3849 31.77 96.2749 30.93 95.7349 29.76C95.5549 29.4 95.4049 29.01 95.2849 28.59C94.2649 30.03 93.4249 31.08 92.7049 31.86C91.7149 32.85 91.0249 33.39 90.1249 33.42H90.0949C89.5849 33.42 89.1049 33.09 88.9249 32.7ZM92.4649 26.4C92.0749 26.76 91.6549 27.27 91.3249 27.87C90.6349 29.07 90.1849 30.6 90.1849 31.47C90.1849 31.65 90.2149 31.77 90.2449 31.86C90.3049 31.83 90.3949 31.8 90.5449 31.71C90.8149 31.53 91.1449 31.23 91.5949 30.78C92.4049 29.94 93.4849 28.59 94.8049 26.58C94.2949 26.04 93.9049 25.89 93.5749 25.89C93.2449 25.89 92.8849 26.07 92.4649 26.4ZM101.255 7.2C101.045 7.35 100.805 7.65 100.565 8.04C100.055 8.82 99.5449 9.96 99.1249 11.34C98.2249 14.52 96.8449 19.83 96.5449 24.06C99.4849 19.47 101.075 14.37 101.525 10.8C101.615 9.96 101.645 9.27 101.645 8.73C101.675 7.83 101.525 7.26 101.435 7.05C101.375 7.08 101.315 7.14 101.255 7.2ZM106.077 40.23C105.747 39.6 105.627 38.94 105.687 38.28C105.807 36.51 106.947 34.98 107.847 33.9C107.937 33.78 108.057 33.66 108.147 33.54C107.907 32.85 107.637 32.16 107.337 31.44C106.527 29.43 105.627 27.45 105.717 25.53C105.777 24.6 106.107 23.67 106.797 22.92C107.487 22.17 108.507 21.6 109.887 21.15C110.277 21.03 110.727 21.24 110.847 21.63C110.967 22.05 110.757 22.47 110.337 22.59C109.137 22.98 108.387 23.46 107.937 23.97C107.487 24.45 107.307 24.96 107.247 25.62C107.157 26.97 107.907 28.86 108.747 30.87C108.927 31.32 109.137 31.8 109.317 32.31C112.377 29.4 116.127 26.94 116.877 26.49C116.877 26.49 117.357 26.04 117.867 26.4C118.317 27.03 117.717 27.51 117.567 27.57C115.527 28.98 113.157 30.66 109.887 33.93C110.187 35.01 110.397 36.09 110.337 37.17C110.307 37.41 110.277 37.62 110.247 37.86C110.097 38.79 109.737 39.6 109.287 40.2C108.807 40.77 108.207 41.22 107.427 41.19C107.427 41.19 107.427 41.19 107.397 41.19C106.827 41.16 106.317 40.74 106.077 40.23ZM107.217 38.37C107.187 38.79 107.247 39.15 107.427 39.54C107.487 39.63 107.517 39.66 107.517 39.66C107.547 39.66 107.607 39.66 107.697 39.6C107.787 39.54 107.937 39.42 108.087 39.24C108.357 38.91 108.627 38.31 108.747 37.59C108.777 37.44 108.777 37.26 108.807 37.08C108.837 36.54 108.777 35.94 108.657 35.34C107.907 36.24 107.247 37.41 107.217 38.37Z" fill="#B59C6B"/>
</svg>
