<svg width="123" height="61" viewBox="0 0 123 61" fill="none" xmlns="http://www.w3.org/2000/svg">
<path d="M2.17 57.04C1 54.73 0.52 51.64 0.52 48.07C0.55 34.99 6.94 15.25 13.99 5.95C16.36 2.86 18.82 0.819998 21.46 0.759999C23.08 0.759999 24.43 1.57 25.45 2.74C26.47 3.91 27.25 5.47 27.85 7.18C29.08 10.57 29.65 14.62 29.92 17.5C29.98 17.92 29.65 18.31 29.23 18.34C28.81 18.37 28.45 18.07 28.39 17.65C28.03 13.45 26.86 6.61 24.31 3.76C23.44 2.8 22.57 2.32 21.46 2.29C19.72 2.26 17.44 3.91 15.19 6.85C12.97 9.82 10.72 13.96 8.77 18.67C4.87 28.09 2.05 39.67 2.05 48.07C2.05 51.52 2.53 54.4 3.52 56.35C4.54 58.27 5.89 59.26 7.99 59.26C11.65 59.29 15.58 56.65 20.26 51.4C24.91 46.18 30.31 38.47 37.06 28.63C37.3 28.3 37.78 28.21 38.14 28.45C38.47 28.69 38.56 29.17 38.32 29.5C31.57 39.34 26.17 47.08 21.4 52.42C16.63 57.76 12.43 60.79 7.99 60.82C7.96 60.82 7.96 60.82 7.93 60.82C5.29 60.82 3.28 59.32 2.17 57.04ZM38.2867 34.06C37.6267 34 37.0267 33.79 36.6367 33.37C36.2167 32.92 36.0667 32.35 36.0667 31.81C36.0967 30.58 36.7567 29.23 37.6567 28.03C38.5567 26.86 39.6967 25.84 40.9867 25.45C41.3467 25.36 41.7667 25.3 42.1867 25.3C42.8767 25.3 43.6267 25.48 44.4067 25.84C44.7667 26.02 44.9467 26.47 44.7667 26.86C44.6167 27.16 44.3167 27.31 43.9867 27.28C44.0467 27.49 44.1067 27.7 44.0767 27.91C44.0767 28.03 44.0767 28.15 44.0767 28.27C44.0167 28.72 43.8667 29.17 43.7467 29.56C43.9867 29.59 44.2267 29.59 44.5267 29.59C46.1167 29.59 48.3967 29.08 51.3667 27.58C51.7267 27.4 52.1767 27.55 52.3867 27.91C52.5667 28.3 52.4167 28.75 52.0567 28.96C48.9367 30.52 46.4467 31.12 44.5267 31.12C43.9867 31.12 43.4767 31.06 43.0267 30.97C41.8267 33.01 40.0267 34.03 38.4667 34.06C38.4067 34.06 38.3467 34.06 38.2867 34.06ZM38.8567 28.96C38.0767 29.98 37.5667 31.18 37.5967 31.81C37.5967 32.11 37.6567 32.23 37.7467 32.32C37.8067 32.38 37.9567 32.5 38.3767 32.53C38.4067 32.53 38.4367 32.53 38.4667 32.53C39.2767 32.53 40.6267 31.9 41.5867 30.46C41.5567 30.43 41.5567 30.43 41.5267 30.43C40.8067 29.98 40.2967 29.29 40.2967 28.48C40.2967 28.21 40.3567 27.91 40.5067 27.67C40.5967 27.49 40.6867 27.34 40.8067 27.19C40.1767 27.55 39.4267 28.21 38.8567 28.96ZM41.8567 28.33C41.8267 28.39 41.8267 28.45 41.8267 28.48C41.8267 28.6 41.8867 28.81 42.2767 29.08C42.3967 28.75 42.5167 28.36 42.5467 28.06C42.5467 28.03 42.5467 27.97 42.5467 27.91C42.5467 27.88 42.5467 27.82 42.5467 27.82C42.3967 27.82 42.0067 28 41.8567 28.33ZM61.2454 35.2C60.7654 34.66 60.5854 33.91 60.5854 33.01C60.5854 32.26 60.7054 31.39 60.9754 30.4C61.2754 29.26 61.5154 28.18 61.5154 27.43C61.5154 27.19 61.4854 26.98 61.4554 26.83C61.4254 26.77 61.4254 26.71 61.3954 26.68C61.3654 26.68 61.3654 26.68 61.3354 26.71C61.2154 26.77 61.0654 26.86 60.8854 27.01C60.5254 27.28 60.1054 27.73 59.6854 28.21C58.8754 29.2 58.0354 30.4 57.4954 31.21C57.1354 31.75 56.9254 32.11 56.9254 32.11C56.9254 32.11 56.9254 32.11 56.8954 32.14C56.6554 32.47 56.2054 32.56 55.8454 32.35C55.5154 32.11 55.3954 31.66 55.6354 31.3C55.6354 31.3 55.6654 31.24 55.7254 31.12C55.9654 30.7 56.2354 29.62 56.2054 28.84C56.2354 28.45 56.1454 28.15 56.0854 28.03C56.0554 28.03 56.0254 28.06 55.9654 28.09C55.8454 28.15 55.6654 28.24 55.5154 28.36C55.1554 28.63 54.7054 29.05 54.2854 29.5C53.4154 30.43 52.5154 31.57 51.9454 32.32C51.5554 32.83 51.3454 33.16 51.3454 33.16C51.1054 33.46 50.7154 33.58 50.3854 33.4C50.0254 33.25 49.8754 32.86 49.9654 32.5L51.7954 26.26C51.9154 25.87 52.3654 25.63 52.7554 25.75C53.1754 25.87 53.3854 26.29 53.2654 26.71L52.5754 29.11C53.0554 28.54 53.5954 28 54.1054 27.55C54.7654 27.01 55.3054 26.53 56.1454 26.5C56.1454 26.5 56.1754 26.5 56.2354 26.5C56.8654 26.53 57.3154 27.01 57.4954 27.46C57.6154 27.7 57.6754 27.97 57.7054 28.24C58.2454 27.52 58.8754 26.8 59.4454 26.23C60.0754 25.66 60.6454 25.15 61.4854 25.12C61.8154 25.12 62.2054 25.27 62.4454 25.54C62.7154 25.78 62.8354 26.11 62.9254 26.44C63.0154 26.77 63.0454 27.1 63.0454 27.43C63.0454 28.48 62.7754 29.62 62.4754 30.79C62.2054 31.72 62.1154 32.44 62.1154 33.01C62.1154 33.67 62.2654 34.06 62.4154 34.24C62.5654 34.42 62.7454 34.51 63.1054 34.51C63.6454 34.51 64.5454 34.21 65.5054 33.61C66.4954 32.98 67.5754 32.08 68.6554 30.94C69.4354 30.07 70.0654 29.29 70.5154 28.72C71.9554 27.04 72.3754 27.58 72.3754 27.58C72.7354 27.82 72.8854 28.3 72.5854 28.66C72.5854 28.66 71.4454 30.16 69.7654 31.96C68.6254 33.19 67.4554 34.18 66.3154 34.9C65.2054 35.59 64.1254 36.04 63.1054 36.04H63.0754C62.3854 36.04 61.6954 35.77 61.2454 35.2ZM72.2181 48.16C71.7981 47.53 71.4681 46.66 71.1681 45.49C70.7481 43.75 70.5681 41.53 70.5681 39.1C70.5681 37.6 70.6281 36.01 70.7781 34.42C70.2081 34.51 69.7281 34.57 69.3381 34.57C68.8281 34.57 68.4381 34.51 68.0481 34.33C67.6881 34.15 67.3281 33.67 67.3581 33.22C67.3581 32.74 67.5981 32.38 67.8381 32.08C68.1081 31.78 68.4381 31.54 68.8281 31.3C69.5181 30.88 70.3581 30.55 71.2581 30.43C71.9481 26.14 73.1181 22.09 74.7681 19.45C75.6981 17.98 76.8081 16.87 78.2481 16.6H78.2181C78.3681 16.57 78.5181 16.54 78.6381 16.54C79.1781 16.54 79.7181 16.78 80.0181 17.23C80.3481 17.65 80.4681 18.19 80.4681 18.76C80.4381 21.01 78.6381 24.55 73.8081 28.81C73.5981 29.02 73.3281 29.05 73.0881 28.99C72.9981 29.47 72.9081 29.95 72.8181 30.43C73.7481 30.58 74.5281 31 75.1581 31.57C77.4681 30.73 80.4681 29.47 84.2181 27.64C84.6081 27.46 85.0581 27.61 85.2381 28C85.4181 28.36 85.2681 28.84 84.8781 29.02C81.3381 30.73 78.4581 31.96 76.1781 32.83C76.2981 33.01 76.4181 33.22 76.5081 33.46C77.3481 35.2 77.6481 37.39 77.6481 39.61C77.6481 41.2 77.4981 42.82 77.1981 44.23C76.8081 46.24 76.1781 47.83 75.1881 48.73C74.8581 49 74.4381 49.24 73.9281 49.24C73.2081 49.24 72.6381 48.76 72.2181 48.16ZM72.0981 39.1C72.0681 41.44 72.2781 43.57 72.6681 45.1C72.9381 46.18 73.2381 46.9 73.5081 47.29C73.7781 47.71 73.9281 47.71 73.9281 47.71C73.9581 47.71 74.0181 47.68 74.1681 47.56C74.3481 47.44 74.5281 47.2 74.7081 46.84C75.0981 46.18 75.4581 45.13 75.6981 43.93C75.9681 42.61 76.1181 41.11 76.1181 39.61C76.1181 37.54 75.8181 35.53 75.1281 34.12C75.0081 33.82 74.8581 33.58 74.7081 33.37C73.8081 33.67 73.0281 33.91 72.3381 34.09C72.1581 35.8 72.0981 37.51 72.0981 39.1ZM70.9281 32.83C70.9581 32.56 70.9881 32.29 71.0481 32.02C70.1481 32.23 69.3981 32.71 69.0681 33.04C69.1281 33.04 69.2181 33.04 69.3381 33.04C69.7281 33.04 70.2381 32.98 70.9281 32.83ZM72.5181 32.44C72.7881 32.35 73.0581 32.29 73.3581 32.17C73.1181 32.08 72.8781 31.99 72.5781 31.96C72.5781 32.11 72.5481 32.29 72.5181 32.44ZM78.5181 18.1C77.7381 18.22 76.8681 18.94 76.0581 20.26C75.2481 21.55 74.5281 23.35 73.9281 25.42C73.7781 25.96 73.6281 26.5 73.5081 27.04C77.6181 23.23 78.9681 20.11 78.9381 18.76C78.9381 18.4 78.8481 18.22 78.8181 18.16C78.7581 18.1 78.7581 18.1 78.6381 18.07C78.6081 18.07 78.5781 18.07 78.5181 18.1ZM84.5172 34.06C83.8572 34 83.2572 33.79 82.8672 33.37C82.4472 32.92 82.2972 32.35 82.2972 31.81C82.3272 30.58 82.9872 29.23 83.8872 28.03C84.7872 26.86 85.9272 25.84 87.2172 25.45C87.5772 25.36 87.9972 25.3 88.4172 25.3C89.1072 25.3 89.8572 25.48 90.6372 25.84C90.9972 26.02 91.1772 26.47 90.9972 26.86C90.8472 27.16 90.5472 27.31 90.2172 27.28C90.2772 27.49 90.3372 27.7 90.3072 27.91C90.3072 28.03 90.3072 28.15 90.3072 28.27C90.2472 28.72 90.0972 29.17 89.9772 29.56C90.2172 29.59 90.4572 29.59 90.7572 29.59C92.3472 29.59 94.6272 29.08 97.5972 27.58C97.9572 27.4 98.4072 27.55 98.6172 27.91C98.7972 28.3 98.6472 28.75 98.2872 28.96C95.1672 30.52 92.6772 31.12 90.7572 31.12C90.2172 31.12 89.7072 31.06 89.2572 30.97C88.0572 33.01 86.2572 34.03 84.6972 34.06C84.6372 34.06 84.5772 34.06 84.5172 34.06ZM85.0872 28.96C84.3072 29.98 83.7972 31.18 83.8272 31.81C83.8272 32.11 83.8872 32.23 83.9772 32.32C84.0372 32.38 84.1872 32.5 84.6072 32.53C84.6372 32.53 84.6672 32.53 84.6972 32.53C85.5072 32.53 86.8572 31.9 87.8172 30.46C87.7872 30.43 87.7872 30.43 87.7572 30.43C87.0372 29.98 86.5272 29.29 86.5272 28.48C86.5272 28.21 86.5872 27.91 86.7372 27.67C86.8272 27.49 86.9172 27.34 87.0372 27.19C86.4072 27.55 85.6572 28.21 85.0872 28.96ZM88.0872 28.33C88.0572 28.39 88.0572 28.45 88.0572 28.48C88.0572 28.6 88.1172 28.81 88.5072 29.08C88.6272 28.75 88.7472 28.36 88.7772 28.06C88.7772 28.03 88.7772 27.97 88.7772 27.91C88.7772 27.88 88.7772 27.82 88.7772 27.82C88.6272 27.82 88.2372 28 88.0872 28.33ZM99.8859 34.09C99.5859 33.7 99.4659 33.22 99.4659 32.71C99.4959 31.75 99.8259 30.49 100.516 28.69C99.8859 28.93 99.2559 29.05 98.6859 29.08C98.2059 29.08 97.7259 28.99 97.3359 28.63C96.9159 28.3 96.7359 27.76 96.7359 27.22C96.7359 26.83 96.7959 26.44 96.9459 25.99C97.0959 25.6 97.5159 25.39 97.9059 25.51C98.3259 25.63 98.5359 26.08 98.4159 26.47C98.2959 26.8 98.2659 27.07 98.2659 27.22C98.2659 27.46 98.2959 27.46 98.3259 27.46C98.3259 27.49 98.4159 27.55 98.6859 27.55C99.2859 27.55 100.486 27.16 101.626 26.5C101.926 26.35 102.286 26.38 102.526 26.62C102.766 26.83 102.826 27.19 102.706 27.49C101.476 30.22 100.996 31.93 100.996 32.71C100.996 32.95 101.056 33.07 101.056 33.1C101.086 33.1 101.116 33.1 101.146 33.1C101.416 33.1 102.076 32.89 102.826 32.5C103.576 32.11 104.476 31.54 105.376 30.91C107.236 29.65 109.186 28.21 110.656 27.43C111.046 27.22 111.496 27.37 111.706 27.73C111.886 28.12 111.766 28.57 111.376 28.78C109.396 29.83 106.036 32.53 103.516 33.85C102.676 34.3 101.926 34.63 101.146 34.63C101.146 34.63 101.146 34.63 101.116 34.63C100.696 34.63 100.216 34.48 99.8859 34.09ZM110.612 34.09C110.312 33.46 110.222 32.74 110.222 31.9C110.222 29.2 111.212 25.18 112.292 21.58L109.052 22.06C108.632 22.12 108.242 21.82 108.182 21.43C108.122 21.01 108.392 20.62 108.812 20.53L112.772 19.96C113.132 18.82 113.462 17.77 113.792 16.87C113.912 16.45 114.332 16.24 114.752 16.36C115.142 16.51 115.352 16.93 115.232 17.35C114.992 18.04 114.722 18.85 114.452 19.69L116.582 19.36C117.002 19.3 117.392 19.6 117.452 20.02C117.512 20.44 117.242 20.83 116.822 20.89L113.972 21.31C112.832 25.06 111.752 29.38 111.752 31.9C111.752 32.62 111.842 33.16 111.992 33.43C112.142 33.7 112.142 33.67 112.352 33.7C113.642 33.85 117.092 31.96 121.442 27.58C121.712 27.25 122.192 27.22 122.522 27.49C122.852 27.76 122.882 28.24 122.612 28.57C120.182 31.21 115.442 35.2 112.352 35.23C112.322 35.23 112.292 35.23 112.292 35.23C111.542 35.23 110.882 34.72 110.612 34.09Z" fill="#B59C6B"/>
</svg>
