<svg width="156" height="61" viewBox="0 0 156 61" fill="none" xmlns="http://www.w3.org/2000/svg">
<path d="M1.35 57.93C0.42 56.55 0 54.72 0 52.59C0 48.09 1.86 42.24 5.4 36.66C8.31 32.1 12.33 27.72 17.46 24.45C16.38 24.57 15.36 24.6 14.4 24.6C11.28 24.6 8.91 24.09 7.23 23.13C5.55 22.23 4.59 20.76 4.59 19.14C4.59 17.25 5.55 15.21 6.99 13.17C8.43 11.13 10.41 9.06 12.63 7.2C17.13 3.51 22.56 0.599999 26.88 0.569997C28.41 0.569997 29.88 0.959998 30.99 1.92C32.13 2.88 32.88 4.35 33.15 6.3C33.21 6.72 32.94 7.11 32.52 7.17C32.1 7.23 31.71 6.93 31.65 6.51C31.38 4.83 30.78 3.75 30 3.09C29.22 2.43 28.17 2.1 26.88 2.1C24.15 2.07 20.46 3.6 16.98 5.88C13.5 8.16 10.23 11.19 8.22 14.07C6.87 15.96 6.12 17.79 6.12 19.14C6.15 20.13 6.66 21.03 7.98 21.81C9.3 22.56 11.46 23.07 14.4 23.07C16.35 23.07 18.66 22.86 21.33 22.35C21.69 22.29 22.08 22.5 22.2 22.86C22.32 23.22 22.14 23.64 21.81 23.79C15.21 26.97 10.11 32.1 6.69 37.47C3.27 42.87 1.53 48.51 1.53 52.59C1.53 54.51 1.92 56.07 2.61 57.09C3.33 58.08 4.23 58.62 5.67 58.62C8.16 58.65 12.12 56.76 17.43 51.9C22.71 47.04 29.34 39.24 37.35 27.63C37.59 27.3 38.07 27.21 38.4 27.45C38.76 27.69 38.85 28.17 38.61 28.5C30.57 40.17 23.88 48.06 18.45 53.04C13.02 57.99 8.88 60.12 5.67 60.15H5.64C3.78 60.15 2.28 59.31 1.35 57.93ZM36.544 37.08C36.154 36.9 36.004 36.42 36.184 36.06C37.114 34.11 38.794 32.04 40.564 30.18C39.304 28.77 38.554 26.97 38.554 25.08C38.554 25.02 38.554 24.96 38.554 24.93C38.554 24.51 38.914 24.15 39.334 24.18C39.754 24.18 40.084 24.54 40.084 24.96C40.084 24.99 40.084 25.05 40.084 25.08C40.084 26.52 40.654 27.96 41.644 29.07C41.944 28.8 42.214 28.5 42.514 28.23C44.884 25.98 46.954 24.33 46.954 24.33C47.314 24.06 47.794 24.12 48.034 24.45C48.304 24.78 48.244 25.26 47.914 25.53C47.914 25.53 47.404 25.92 46.624 26.61C45.814 27.3 44.734 28.23 43.564 29.34C43.294 29.61 43.054 29.85 42.784 30.12C43.924 30.93 45.334 31.44 46.864 31.44C49.294 31.44 52.114 30.24 54.814 26.85C55.084 26.52 55.564 26.46 55.894 26.73C56.224 27 56.284 27.48 56.014 27.81C53.104 31.47 49.834 33 46.864 32.97C44.914 32.97 43.114 32.31 41.704 31.23C39.964 33.03 38.344 35.01 37.564 36.69C37.444 36.99 37.144 37.14 36.874 37.14C36.754 37.14 36.634 37.11 36.544 37.08ZM53.8104 33.15C53.1804 32.64 52.8804 31.86 52.8804 31.11C52.9104 29.61 53.8404 28.05 55.1004 26.76C56.3604 25.47 58.0104 24.45 59.7804 24.45C60.3504 24.45 60.9504 24.57 61.4904 24.84C61.8804 25.02 62.0304 25.47 61.8504 25.86C61.6704 26.25 61.1904 26.4 60.8304 26.22C60.5004 26.04 60.1704 25.98 59.7804 25.98C58.6704 25.95 57.2604 26.73 56.1804 27.81C55.1004 28.89 54.4104 30.3 54.4104 31.11C54.4404 31.53 54.5304 31.74 54.7704 31.95C55.0104 32.16 55.5204 32.34 56.3904 32.34C58.7604 32.37 63.5304 30.87 71.4204 26.49C71.8104 26.28 72.2604 26.4 72.4704 26.79C72.6804 27.15 72.5304 27.6 72.1704 27.81C64.1304 32.25 59.3004 33.87 56.3904 33.87C55.3104 33.87 54.4404 33.63 53.8104 33.15ZM71.9309 29.43C71.3309 28.2 71.0909 26.61 71.0909 24.84C71.1209 19.38 73.2509 12.03 75.0509 8.31C75.5009 7.44 75.9209 6.72 76.3709 6.21C76.8209 5.73 77.2709 5.31 77.9909 5.28C78.5609 5.28 79.0709 5.73 79.2209 6.21C79.4309 6.66 79.4909 7.2 79.5209 7.89C79.5209 8.43 79.4609 9.09 79.3409 9.81C78.6809 14.28 76.7609 23.07 72.8909 27.48C72.9809 27.96 73.1309 28.38 73.3109 28.74C73.7909 29.61 74.3009 29.97 75.2609 30C76.5509 30.03 78.7709 29.07 81.8609 26.55C82.1909 26.28 82.6709 26.34 82.9109 26.67C83.1809 27 83.1509 27.48 82.8209 27.75C79.6109 30.36 77.2409 31.53 75.2609 31.53C75.2609 31.53 75.2309 31.53 75.2009 31.53C73.7009 31.53 72.5309 30.66 71.9309 29.43ZM77.5409 7.23C77.2109 7.59 76.8209 8.19 76.4309 9C74.7209 12.42 72.6209 19.77 72.6209 24.84C72.6209 24.99 72.6209 25.17 72.6209 25.32C75.5309 21.12 77.2709 13.53 77.8409 9.6C77.9309 8.91 77.9909 8.34 77.9909 7.89C77.9909 7.41 77.9309 7.08 77.8709 6.9C77.7809 6.96 77.6609 7.08 77.5409 7.23ZM81.3991 33.06C81.0391 32.61 80.9191 32.04 80.9191 31.38C80.9191 30 81.4591 28.02 82.7191 25.08C82.8991 24.69 83.3491 24.51 83.7391 24.69C84.1291 24.87 84.3091 25.32 84.1291 25.68C82.8991 28.53 82.4491 30.42 82.4491 31.38C82.4491 31.86 82.5691 32.1 82.5991 32.13C82.6591 32.19 82.6291 32.19 82.8091 32.22C83.2891 32.25 84.5791 31.59 85.7791 30.45C87.0391 29.31 88.2991 27.78 89.1691 26.22C89.3491 25.92 89.7391 25.77 90.0991 25.89C90.4591 26.01 90.6691 26.4 90.5791 26.76C90.4291 27.48 90.3691 28.08 90.3691 28.59C90.3691 29.46 90.5791 29.94 90.7891 30.18C90.9991 30.42 91.2691 30.57 91.8091 30.57C92.5891 30.57 93.8191 30.18 95.1391 29.46C96.4591 28.71 97.9291 27.69 99.3391 26.52C99.6691 26.25 100.149 26.31 100.419 26.64C100.689 26.94 100.659 27.45 100.329 27.72C98.8591 28.92 97.3291 30 95.8591 30.78C94.4191 31.56 93.0391 32.1 91.8091 32.1C90.9991 32.1 90.1891 31.83 89.6191 31.2C89.2291 30.72 88.9891 30.09 88.8991 29.37C88.2391 30.18 87.5191 30.93 86.8291 31.59C85.4191 32.82 84.1291 33.72 82.8091 33.75H82.7791C82.2691 33.75 81.7291 33.51 81.3991 33.06ZM99.9073 40.23C99.5773 39.6 99.4573 38.94 99.5173 38.28C99.6373 36.51 100.777 34.98 101.677 33.9C101.767 33.78 101.887 33.66 101.977 33.54C101.737 32.85 101.467 32.16 101.167 31.44C100.357 29.43 99.4573 27.45 99.5473 25.53C99.6073 24.6 99.9373 23.67 100.627 22.92C101.317 22.17 102.337 21.6 103.717 21.15C104.107 21.03 104.557 21.24 104.677 21.63C104.797 22.05 104.587 22.47 104.167 22.59C102.967 22.98 102.217 23.46 101.767 23.97C101.317 24.45 101.137 24.96 101.077 25.62C100.987 26.97 101.737 28.86 102.577 30.87C102.757 31.32 102.967 31.8 103.147 32.31C106.207 29.4 109.957 26.94 110.707 26.49C110.707 26.49 111.187 26.04 111.697 26.4C112.147 27.03 111.547 27.51 111.397 27.57C109.357 28.98 106.987 30.66 103.717 33.93C104.017 35.01 104.227 36.09 104.167 37.17C104.137 37.41 104.107 37.62 104.077 37.86C103.927 38.79 103.567 39.6 103.117 40.2C102.637 40.77 102.037 41.22 101.257 41.19C101.257 41.19 101.257 41.19 101.227 41.19C100.657 41.16 100.147 40.74 99.9073 40.23ZM101.047 38.37C101.017 38.79 101.077 39.15 101.257 39.54C101.317 39.63 101.347 39.66 101.347 39.66C101.377 39.66 101.437 39.66 101.527 39.6C101.617 39.54 101.767 39.42 101.917 39.24C102.187 38.91 102.457 38.31 102.577 37.59C102.607 37.44 102.607 37.26 102.637 37.08C102.667 36.54 102.607 35.94 102.487 35.34C101.737 36.24 101.077 37.41 101.047 38.37ZM113.379 31.35C112.209 30.93 111.459 30.12 111.069 29.28C110.679 28.44 110.619 27.57 110.619 26.91C110.619 26.25 110.709 25.8 110.709 25.74C110.799 25.35 111.189 25.08 111.609 25.14C112.029 25.23 112.299 25.65 112.209 26.04C112.209 26.04 112.179 26.13 112.179 26.28C112.149 26.43 112.149 26.64 112.149 26.91C112.149 27.42 112.209 28.08 112.479 28.62C112.719 29.19 113.109 29.61 113.889 29.91C114.069 29.97 114.309 30 114.609 30C115.569 30.03 116.979 29.55 118.269 28.92C119.589 28.32 120.819 27.57 121.599 27.06C122.109 26.73 122.409 26.52 122.409 26.52C122.769 26.28 123.249 26.37 123.489 26.7C123.729 27.06 123.639 27.54 123.309 27.78C123.279 27.78 121.989 28.71 120.279 29.64C118.569 30.57 116.469 31.53 114.609 31.53C114.189 31.53 113.769 31.47 113.379 31.35ZM110.979 23.13C110.709 22.8 110.769 22.32 111.069 22.05L111.429 21.75C111.759 21.45 112.239 21.51 112.509 21.81C112.779 22.14 112.749 22.62 112.419 22.89L112.059 23.22C111.939 23.34 111.759 23.4 111.579 23.4C111.369 23.4 111.129 23.31 110.979 23.13ZM121.676 34.89C121.406 34.41 121.346 33.87 121.346 33.18C121.346 31.53 121.856 28.98 122.996 25.17C123.116 24.75 123.566 24.54 123.956 24.66C124.376 24.78 124.586 25.2 124.466 25.62C123.326 29.37 122.876 31.83 122.876 33.18C122.876 33.78 122.966 34.11 123.026 34.2C123.116 34.2 123.476 34.05 123.866 33.72C124.316 33.36 124.886 32.79 125.516 32.07C126.176 31.26 126.926 30.24 127.676 29.13C127.136 28.8 126.776 28.17 126.806 27.63C126.836 26.85 127.226 26.22 127.676 25.68C128.126 25.14 128.666 24.66 129.236 24.33C129.596 24.12 129.926 23.97 130.406 23.94C130.616 23.94 130.946 24.03 131.186 24.27C131.426 24.51 131.516 24.84 131.516 25.08C131.486 25.65 131.246 26.19 130.796 27C130.586 27.36 130.376 27.72 130.166 28.08C131.756 28.05 134.456 27.6 138.596 26.37C139.016 26.25 139.436 26.49 139.556 26.91C139.676 27.3 139.436 27.72 139.046 27.84C134.696 29.1 131.906 29.61 130.046 29.61C129.746 29.61 129.476 29.58 129.236 29.55C127.646 31.98 126.116 33.9 124.826 34.92C124.226 35.37 123.686 35.73 122.996 35.73C122.966 35.73 122.966 35.73 122.936 35.73C122.426 35.73 121.886 35.37 121.676 34.89ZM129.206 26.25C128.666 26.76 128.306 27.42 128.336 27.63C128.366 27.72 128.306 27.69 128.486 27.81C128.516 27.81 128.516 27.81 128.516 27.84C128.846 27.3 129.176 26.79 129.476 26.22C129.566 26.1 129.626 25.98 129.686 25.86C129.506 25.98 129.356 26.13 129.206 26.25ZM138.421 31.47C137.671 30.93 137.281 30.09 137.311 29.25C137.311 28.8 137.401 28.38 137.551 27.93C137.731 27.51 137.941 27.18 137.941 27.18C138.421 26.4 139.171 25.71 140.041 25.2C140.881 24.75 141.601 24.51 142.261 24.51C142.681 24.51 143.101 24.6 143.431 24.84C143.761 25.08 144.001 25.53 144.001 25.95C143.941 26.82 143.311 27.42 142.411 27.87C141.601 28.26 140.461 28.56 138.961 28.62C138.871 28.83 138.811 29.07 138.841 29.25C138.841 29.67 138.961 29.97 139.321 30.24C139.681 30.51 140.401 30.75 141.541 30.75C143.911 30.78 148.081 29.67 154.471 26.46C154.831 26.28 155.281 26.43 155.491 26.82C155.671 27.18 155.521 27.63 155.131 27.84C148.651 31.11 144.361 32.28 141.541 32.28C140.191 32.28 139.171 32.01 138.421 31.47ZM140.791 26.55C140.581 26.67 140.371 26.79 140.191 26.94C140.731 26.88 141.151 26.76 141.481 26.61C141.961 26.43 142.261 26.19 142.381 26.04C142.351 26.04 142.321 26.04 142.261 26.04C141.961 26.04 141.451 26.16 140.791 26.55Z" fill="#B59C6B"/>
</svg>
