<svg width="135" height="40" viewBox="0 0 135 40" fill="none" xmlns="http://www.w3.org/2000/svg">
<path fill-rule="evenodd" clip-rule="evenodd" d="M45.9926 0.798585C42.4595 1.97189 38.9918 4.25705 35.9409 7.42311C33.0348 10.4386 31.7948 12.4605 30.887 15.6616C30.5629 16.8049 30.2234 17.9939 30.1326 18.3043C30.0066 18.7358 29.4983 18.709 27.9635 18.1888C25.6335 17.3989 22.0965 17.3001 20.7593 17.9874C19.1135 18.8337 19.5827 20.6033 21.7335 21.6575C22.7807 22.1707 24.1333 22.604 24.7386 22.6197C25.8268 22.6488 25.8258 22.6548 24.6377 23.1264C22.974 23.787 13.5359 23.3024 9.98208 22.3744C8.40065 21.9609 5.85179 21.0819 4.31795 20.4209C1.60032 19.249 1.51185 19.2406 0.844941 20.0961C0.20977 20.911 0.33767 21.05 2.63362 22.0427C3.99387 22.6307 6.95913 23.5361 9.22286 24.0553C14.5836 25.2845 22.4663 25.0776 26.748 23.5957C29.8917 22.5074 30.4076 22.5952 30.4076 24.217C30.4076 26.8976 35.9116 40.306 36.8838 39.9947C38.0518 39.6205 39.7664 35.283 39.9448 32.2504C40.1097 29.4451 39.9736 28.8654 38.547 26.2938C37.6782 24.727 36.2102 22.846 35.2851 22.1134L33.6036 20.7821L35.011 20.2574C45.0762 16.5042 52.6742 14.2647 53.3002 14.8662C53.4853 15.0436 53.0382 16.5411 52.3068 18.1935C51.576 19.8462 51.1028 21.5115 51.2557 21.8944C51.9842 23.7181 56.1688 21.9859 60.842 17.9265C62.6388 16.3651 64.1895 15.165 64.2876 15.2593C64.3857 15.3535 64.9314 16.5739 65.5007 17.9713C66.9066 21.4246 67.7606 22.5906 68.8819 22.5906C69.8897 22.5906 72.1592 19.9257 73.1929 17.5283C73.5262 16.7555 73.9777 16.1235 74.1969 16.1235C74.4157 16.1235 75.599 17.4756 76.8265 19.1279C79.4071 22.6021 80.34 22.9809 84.3539 22.1845C86.4618 21.766 87.3913 21.7609 88.1731 22.1628C89.9877 23.0959 93.8531 22.3993 99.1657 20.1821C105.248 17.6433 107.981 17.0474 113.537 17.0474C118.521 17.0474 123.451 18.1459 129.301 20.5595C133.203 22.1697 133.385 22.2007 134.032 21.3729C134.657 20.5756 134.469 20.4015 131.481 19.0189C126.39 16.6622 121.362 15.5739 115.273 15.511C109.086 15.4473 106.592 15.9563 99.5461 18.7219C92.275 21.5757 88.4101 21.493 92.9121 18.5801C98.3695 15.0491 97.8363 11.4881 92.162 13.57C89.4617 14.5608 86.6643 17.5061 86.6643 19.3584C86.6643 20.6518 86.545 20.7428 84.8482 20.7428C82.4662 20.7428 81.5579 20.0726 78.9667 16.4016C77.0622 13.704 76.6434 13.3571 75.4182 13.4628C74.2436 13.5645 73.7829 14.037 72.4361 16.525C71.5601 18.1426 70.7128 19.5917 70.5537 19.7451C70.1541 20.1289 69.5334 19.1062 68.3592 16.1296C66.7133 11.9569 66.1734 11.9399 61.5637 15.9166C57.844 19.1247 55.4106 20.6611 55.4106 19.801C55.4106 19.5238 55.8683 18.2757 56.4275 17.0266C56.9867 15.778 57.3064 14.4121 57.1386 13.9917C56.6621 12.7981 51.7298 13.3926 45.7089 15.3692C42.8966 16.2922 40.416 17.0474 40.1962 17.0474C39.9765 17.0474 40.9838 16.2815 42.4345 15.3457C45.9556 13.0739 50.2441 8.90822 51.5038 6.53621C52.8271 4.04456 52.8713 1.09006 51.5957 0.434123C50.2907 -0.236598 48.8223 -0.141441 45.9926 0.798585ZM50.1532 1.81991C51.325 2.42273 51.3976 4.84 50.2912 6.43551C48.9858 8.31926 45.244 11.9242 42.4282 14.0111C39.9669 15.8358 33.2315 19.819 32.6078 19.819C32.0448 19.819 32.3569 17.0488 33.2195 14.3867C35.1158 8.53405 40.8728 3.14611 46.6201 1.84624C49.1156 1.2813 49.106 1.28176 50.1532 1.81991ZM56.252 7.84578C54.935 8.58302 55.1692 10.5046 56.6189 10.8543C58.0993 11.2109 59.2572 10.3785 59.2572 8.95672C59.2572 7.49702 57.8224 6.96719 56.252 7.84578ZM95.4624 14.1054C96.0231 14.644 94.8412 16.0774 92.6337 17.5366C91.4288 18.3325 90.3344 18.8794 90.2012 18.7515C89.8507 18.4152 91.2215 16.0182 92.2649 15.1433C93.5737 14.0458 94.9388 13.6023 95.4624 14.1054ZM25.9431 19.1764C28.9983 20.1631 29.8431 20.8154 28.6511 21.2662C26.2696 22.1665 21.2719 21.0717 21.2719 19.6499C21.2719 18.3274 22.8269 18.1699 25.9431 19.1764ZM35.3962 25.4924C37.5801 28.0533 38.1056 29.4581 38.0792 32.6675L38.0575 35.2936L36.8944 33.2149C35.8222 31.2984 32.8117 24.3265 32.8117 23.7602C32.8117 23.0146 33.9114 23.7514 35.3962 25.4924Z" fill="#757472"/>
</svg>
