<svg width="127" height="40" viewBox="0 0 127 40" fill="none" xmlns="http://www.w3.org/2000/svg">
<path fill-rule="evenodd" clip-rule="evenodd" d="M98.14 0.598316C97.6168 1.23426 97.598 1.27625 97.7403 1.49118C97.8302 1.62684 102.838 4.46918 104.435 5.29045C105.247 5.70839 105.272 5.71335 105.448 5.49016C105.546 5.36417 105.627 5.20256 105.627 5.13084C105.627 5.0183 104.816 4.38059 102.755 2.87266C102.478 2.66952 101.505 1.94063 100.593 1.25278C99.6812 0.564815 98.8675 0.00106554 98.7846 3.86225e-06C98.7019 -0.00117578 98.4117 0.268018 98.14 0.598316ZM36.1223 7.13788C33.443 7.53919 31.0682 8.70963 29.1908 10.5541C27.7203 11.9989 26.7658 13.7254 26.3589 15.6775C26.0335 17.2382 26.1575 19.4176 26.6547 20.8775C27.012 21.9262 27.679 23.182 28.2704 23.9195C29.8811 25.9281 32.4416 27.5298 35.1173 28.2024C36.5148 28.5537 39.0812 28.6369 40.4313 28.3747C42.9927 27.877 45.0189 26.8378 46.8846 25.0652C49.2396 22.8277 50.2905 20.4331 50.2751 17.3386C50.2595 14.1627 48.7632 11.3691 46.013 9.38049C43.3037 7.42158 39.6933 6.60291 36.1223 7.13788ZM119.196 7.03159C119.061 7.05707 118.646 7.13552 118.275 7.20571C117.158 7.41686 115.884 8.0725 115.095 8.84198C113.002 10.8839 112.82 14.1883 114.685 16.281C115.366 17.0457 116.514 17.749 118.807 18.8056C121.104 19.8639 122.11 20.4585 122.842 21.1904C123.99 22.3374 124.325 24.1557 123.638 25.5052C123.078 26.6039 122.029 27.3139 120.524 27.6126C119.067 27.9016 117.512 27.3483 116.187 26.0701C115.294 25.2078 114.74 24.2923 114.356 23.044C114.083 22.1546 113.884 21.8904 113.572 22.0052C113.282 22.1122 113.254 22.27 113.167 24.2692C113.078 26.3202 113.184 26.991 113.64 27.2752C114.761 27.973 117.227 28.5412 119.145 28.5436C123.362 28.5485 126.255 26.2236 126.751 22.4309C127.072 19.9801 125.712 17.7185 123.063 16.2968C122.692 16.0973 121.574 15.5931 120.58 15.1762C118.66 14.3711 117.839 13.921 117.207 13.3267C116.21 12.3902 115.962 10.8879 116.598 9.63824C117.171 8.51392 118.168 7.9267 119.692 7.81593C121.3 7.69915 122.618 8.23034 123.306 9.27279C123.505 9.57465 123.839 10.3145 124.048 10.9171C124.458 12.0985 124.614 12.3053 125.052 12.2457L125.335 12.2071V10.1036C125.335 8.17065 125.316 7.98674 125.101 7.83575C124.339 7.3009 120.52 6.78092 119.196 7.03159ZM0.783161 7.28616C0.594433 7.34655 0.603151 7.84153 0.795685 7.99488C0.880164 8.06212 1.34345 8.16959 1.8254 8.23364C2.84332 8.36906 3.27297 8.59898 3.45715 9.10646C3.54654 9.35265 3.58915 12.1844 3.58915 17.8695V26.2689L3.31017 26.6667C3.00762 27.0978 2.40067 27.3406 1.58571 27.3564C1.3281 27.3614 1.01032 27.4205 0.879673 27.4876C0.542984 27.6607 0.567419 28.1702 0.918475 28.296C1.07037 28.3505 2.18935 28.3559 3.40496 28.3081C4.62058 28.2605 6.58215 28.2606 7.764 28.3085C9.50356 28.3789 9.96549 28.3643 10.1891 28.2317C10.3411 28.1416 10.4645 28.0027 10.4635 27.9231C10.4592 27.5919 10.21 27.4602 9.40311 27.3629C8.29973 27.2297 7.94904 27.0945 7.67829 26.6979C7.47741 26.4036 7.45358 25.9833 7.4192 22.1419C7.39121 19.0161 7.4192 17.8662 7.52628 17.7422C7.6471 17.6024 8.46377 17.5745 12.4204 17.5745C15.9506 17.5745 17.2075 17.6108 17.317 17.716C17.5247 17.9155 17.5128 25.8358 17.304 26.416C17.1187 26.9303 16.5826 27.237 15.7265 27.3183C14.5708 27.428 14.5174 27.4511 14.5174 27.8425C14.5174 28.1033 14.5905 28.2223 14.7937 28.2922C14.9457 28.3445 16.0093 28.3466 17.1574 28.2969C18.3055 28.2471 20.2394 28.2482 21.455 28.2993C22.6707 28.3502 23.7895 28.3482 23.9415 28.2946C24.2794 28.1753 24.3195 27.6599 24.0029 27.5036C23.8847 27.4453 23.473 27.368 23.0878 27.3316C22.1607 27.2443 21.7458 27.0392 21.486 26.5396C21.2876 26.1584 21.2712 25.4902 21.2711 17.7772C21.2709 8.52808 21.2527 8.75021 22.0339 8.44102C22.2558 8.35326 22.7802 8.24402 23.1993 8.19849C24.0228 8.10872 24.2592 7.949 24.1966 7.52456L24.1564 7.25266L19.4419 7.24864C15.5609 7.24546 14.6971 7.27389 14.5555 7.4099C14.2418 7.7113 14.6274 8.06377 15.3909 8.17313C17.4803 8.47252 17.3936 8.28637 17.4404 12.5757C17.4736 15.6215 17.4552 16.0329 17.2781 16.203C17.1007 16.3735 16.5544 16.3949 12.3749 16.3949C8.46009 16.3949 7.64698 16.3668 7.52652 16.2272C7.42068 16.1048 7.39182 15.144 7.41933 12.6588C7.46697 8.36458 7.44057 8.42698 9.29887 8.1992C10.169 8.09256 10.3083 8.03995 10.3756 7.79269C10.522 7.25537 10.5016 7.25301 5.5765 7.24687C3.01769 7.24357 0.860764 7.26127 0.783161 7.28616ZM51.9621 7.36472C51.7938 7.52645 51.8188 7.85132 52.0115 8.00491C52.1028 8.07781 52.5311 8.17136 52.9631 8.21288C53.8877 8.30171 54.3412 8.49599 54.6378 8.93069C54.836 9.22112 54.8593 9.83595 54.9201 16.3894C54.9852 23.3939 54.9917 23.5451 55.2584 24.23C56.1869 26.6149 57.9337 27.8343 61.2036 28.3801C62.6819 28.6269 66.2604 28.5518 67.3739 28.2508C69.7429 27.6101 71.1357 26.4069 71.8122 24.4164C72.0112 23.8306 72.0391 23.0636 72.0999 16.5128C72.1529 10.7933 72.2019 9.19351 72.3311 8.9531C72.566 8.51628 73.0354 8.2977 73.9416 8.20309C74.9669 8.09598 75.2008 7.97341 75.1522 7.56915L75.1141 7.25266L71.4304 7.24782C69.4044 7.24511 67.6777 7.2641 67.5932 7.28993C67.3635 7.36024 67.4083 7.87763 67.6546 7.99901C67.7728 8.05729 68.2449 8.13703 68.7037 8.17619C69.7414 8.26478 70.1207 8.43654 70.442 8.96313C70.6866 9.36433 70.6947 9.56699 70.7304 16.0999C70.7548 20.5736 70.7224 23.073 70.6334 23.5685C70.2594 25.6508 68.9648 26.9354 66.7348 27.4372C65.6964 27.6709 63.1437 27.6074 62.2212 27.3249C60.698 26.8586 59.6053 25.8725 59.0637 24.4754C58.7923 23.7757 58.7887 23.6849 58.7502 16.5463C58.7068 8.54224 58.6808 8.82264 59.5023 8.44822C59.7349 8.34217 60.0827 8.25476 60.2751 8.25405C61.3828 8.24992 61.9557 7.9267 61.6836 7.45945C61.575 7.27294 61.1798 7.25631 56.822 7.25454C53.9872 7.25336 52.0319 7.29772 51.9621 7.36472ZM76.5339 7.28946C76.3469 7.34938 76.3727 7.84814 76.571 8.00621C76.6632 8.0797 77.1351 8.18764 77.6196 8.24615C78.6021 8.3647 79.0564 8.58954 79.2374 9.047C79.3716 9.38603 79.4017 26.0265 79.2687 26.3874C79.1008 26.8436 78.6965 27.1211 78.0138 27.2486C76.3826 27.5534 76.4675 27.5204 76.426 27.8668C76.3959 28.1177 76.4514 28.2127 76.6716 28.2868C76.828 28.3394 78.2821 28.3396 79.9029 28.2873C81.5237 28.2349 83.9549 28.2173 85.3056 28.2482C90.2787 28.3617 92.2488 28.3511 92.3956 28.21C92.53 28.0809 93.0857 24.5425 93.0973 23.7422C93.1009 23.4893 93.0266 23.3238 92.8741 23.2455C92.5677 23.0879 92.4089 23.226 91.7033 24.2647C91.3853 24.7327 90.7976 25.4004 90.3974 25.7484C89.0896 26.8854 87.7819 27.3139 85.8867 27.2269C84.9488 27.1838 84.7018 27.1283 84.293 26.8684C83.7182 26.5031 83.4266 25.9634 83.2651 24.9669C83.1949 24.5341 83.161 21.1937 83.1822 16.8051C83.2174 9.56427 83.2246 9.36551 83.4696 8.96313C83.7527 8.49812 84.2411 8.30265 85.4047 8.18858C86.0062 8.12972 86.1394 8.07345 86.2548 7.82997C86.5227 7.26504 86.4493 7.25643 81.3797 7.25183C78.7864 7.24959 76.6057 7.26646 76.5339 7.28946ZM94.2079 7.29194C94.1404 7.31364 94.0851 7.48363 94.0851 7.66978C94.0851 7.96056 94.1502 8.02567 94.5456 8.13113C94.7989 8.19872 95.1874 8.25429 95.409 8.25464C95.6306 8.25499 96 8.33084 96.2297 8.42297C97.0646 8.75811 97.032 8.37921 97.0315 17.775C97.0312 25.9175 97.022 26.2592 96.7955 26.6161C96.544 27.0124 96.1532 27.1749 95.1288 27.3086C94.3202 27.4142 94.0851 27.5482 94.0851 27.9034C94.0851 28.3349 94.4068 28.3911 96.4181 28.3105C97.3973 28.2712 100.759 28.2749 103.888 28.3185C107.017 28.3622 109.778 28.3544 110.024 28.3011C110.27 28.2477 110.541 28.1124 110.626 28.0002C110.8 27.7718 110.803 27.7551 111.129 25.3011C111.386 23.3644 111.341 22.9586 110.878 23.0222C110.676 23.0499 110.457 23.3212 110.043 24.0568C109.105 25.7269 108.178 26.5644 106.847 26.9439C105.913 27.2104 103.009 27.2143 102.181 26.95C100.948 26.5565 100.839 26.1186 100.839 21.5741V18.1536L101.156 17.8488L101.473 17.5439L103.405 17.5975C105.078 17.6437 105.413 17.6861 105.899 17.9117C106.569 18.2238 106.988 18.7724 107.349 19.8136C107.731 20.9169 107.802 21.0154 108.183 20.973C108.51 20.9368 108.513 20.9278 108.498 20.0517C108.49 19.5651 108.54 17.956 108.609 16.4758C108.722 14.051 108.714 13.7657 108.535 13.5936C108.352 13.4176 108.318 13.4186 108.101 13.607C107.972 13.7196 107.749 14.1207 107.605 14.4987C107.462 14.8767 107.229 15.3267 107.088 15.4988C106.482 16.2387 105.121 16.5548 102.804 16.4935C100.662 16.4367 100.812 16.7516 100.861 12.4235C100.909 8.16876 100.772 8.45258 102.81 8.3923C105.136 8.32341 106.965 8.6576 108.04 9.34757C108.517 9.65334 108.746 9.92878 109.188 10.7235C109.798 11.8209 110.039 12.0456 110.344 11.8025C110.509 11.6716 110.539 11.3229 110.537 9.56805C110.536 8.42427 110.495 7.4355 110.445 7.37062C110.363 7.26304 94.5375 7.18648 94.2079 7.29194ZM39.5051 8.03428C41.5289 8.37119 43.4495 9.90637 44.6517 12.1482C45.7093 14.1205 46.1682 16.1909 46.0304 18.37C45.6717 24.0437 42.3091 28.0015 38.1256 27.6742C34.3082 27.3755 31.338 23.9321 30.5302 18.8686C29.9241 15.0695 31.2518 11.025 33.6927 9.23468C35.4187 7.9687 37.0665 7.62837 39.5051 8.03428ZM78.5014 32.684C77.805 32.8152 77.0792 33.2784 76.8225 33.7555C76.5771 34.211 76.5601 35.1203 76.7883 35.5679C77.0549 36.0907 77.4718 36.2976 79.0434 36.6873C79.8538 36.8882 80.6369 37.1277 80.7838 37.2194C81.374 37.588 81.229 38.4165 80.5177 38.7407C80.0462 38.9557 78.8422 38.9862 78.452 38.7932C77.9604 38.55 77.6358 38.1844 77.5581 37.7864C77.4843 37.4088 77.4582 37.3924 76.9266 37.3924H76.3722L76.4297 37.9671C76.5445 39.1157 77.4898 39.8419 79.0145 39.9527C81.0178 40.0983 82.4284 39.2158 82.4507 37.8032C82.4601 37.2012 82.1304 36.6078 81.5932 36.26C81.3821 36.1234 80.5839 35.8656 79.8194 35.6874C79.0549 35.5092 78.334 35.3144 78.2174 35.2546C77.5818 34.9284 77.7129 34.1291 78.4577 33.7896C79.0263 33.5303 80.0909 33.6042 80.5526 33.935C80.7355 34.0661 80.9132 34.327 80.9476 34.5148C81.0037 34.8226 81.0668 34.8624 81.5888 34.9202C82.2592 34.9944 82.3414 34.9012 82.1604 34.2719C81.8156 33.0719 80.1888 32.366 78.5014 32.684ZM45.706 36.4487V39.9876H46.3199H46.9339V38.572V37.1565L48.1311 37.1558C49.659 37.1549 50.196 37.0098 50.7555 36.4465C51.8059 35.3886 51.3018 33.405 49.8862 33.0273C49.6469 32.9633 48.6084 32.9108 47.5785 32.9105L45.706 32.9098V36.4487ZM54.9384 34.1134C54.6684 34.7814 54.0772 36.257 53.6246 37.3924C53.172 38.5278 52.7536 39.5762 52.6949 39.7222C52.5924 39.9773 52.6139 39.9876 53.2536 39.9876H53.9189L54.3154 38.9849L54.7119 37.9822H56.0266H57.3412L57.475 38.3066C57.5487 38.485 57.725 38.9362 57.8671 39.3093L58.1254 39.9876H58.7919C59.1585 39.9876 59.4558 39.9479 59.4527 39.8991C59.4496 39.8504 58.8522 38.2712 58.1253 36.3897L56.8037 32.9688L56.1166 32.9337L55.4295 32.8987L54.9384 34.1134ZM62.4054 36.4548V40L63.05 39.9643L63.6947 39.9286L63.7195 38.749C63.733 38.1002 63.7469 37.4442 63.7502 37.2912L63.7561 37.013L65.1645 37.056C66.9423 37.1102 66.9459 37.1131 67.0625 38.5954C67.1107 39.206 67.1909 39.769 67.2407 39.8465C67.2931 39.928 67.6137 39.9876 67.9995 39.9876C68.7373 39.9876 68.8268 39.8567 68.4835 39.2798C68.3852 39.1147 68.306 38.6639 68.3036 38.2553C68.2985 37.4108 68.1447 36.9451 67.7926 36.7081C67.5441 36.5408 67.5444 36.5388 67.8447 36.229C68.2842 35.7758 68.4221 35.463 68.4221 34.9192C68.4221 33.9357 67.8803 33.244 66.9486 33.0378C66.6447 32.9705 65.4982 32.9143 64.4007 32.9126L62.4054 32.9098V36.4548ZM71.983 36.4487V40L72.6276 39.9643L73.2723 39.9286V36.4487V32.9688L72.6276 32.9331L71.983 32.8974V36.4487ZM49.4356 34.0838C50.0984 34.3258 50.2576 35.3663 49.7021 35.8254C49.4097 36.067 49.2496 36.0948 48.1549 36.0948H46.9339V35.0331V33.9715H48.031C48.6344 33.9715 49.2665 34.0219 49.4356 34.0838ZM66.6988 34.1221C67.1361 34.3347 67.2876 34.9364 67.0332 35.4492C66.7875 35.9442 66.5283 36.0173 64.984 36.0278L63.8175 36.0358L63.782 35.0036L63.7465 33.9715L65.0713 33.9732C65.8828 33.9743 66.5134 34.032 66.6988 34.1221ZM56.4998 35.6881C56.7088 36.243 56.8798 36.7473 56.8798 36.8087C56.8798 36.8703 56.4931 36.9206 56.0203 36.9206C55.5476 36.9206 55.1608 36.9004 55.1608 36.8756C55.1608 36.8361 55.4918 35.9792 55.8839 35.0036C55.9556 34.8253 56.038 34.6792 56.0671 34.6792C56.0961 34.6792 56.2908 35.1333 56.4998 35.6881ZM0.642198 35.8589C0.642198 36.0939 0.7241 36.0948 20.7797 36.0948C40.8353 36.0948 40.9172 36.0939 40.9172 35.8589C40.9172 35.6239 40.8353 35.623 20.7797 35.623C0.7241 35.623 0.642198 35.6239 0.642198 35.8589ZM86.8405 35.8589C86.8405 36.0939 86.9224 36.0948 106.917 36.0948C126.911 36.0948 126.993 36.0939 126.993 35.8589C126.993 35.6239 126.911 35.623 106.917 35.623C86.9224 35.623 86.8405 35.6239 86.8405 35.8589Z" fill="#757472"/>
</svg>
