<svg width="148" height="20" viewBox="0 0 148 20" fill="none" xmlns="http://www.w3.org/2000/svg">
<rect width="148" height="20" fill="#F5F5F5"/>
<g clip-path="url(#clip0_283_2)">
<rect width="1920" height="14976" transform="translate(-232 -3628)" fill="#F0F0F3"/>
<rect opacity="0.2" x="-81.5" y="-114.5" width="315" height="249" rx="4.5" stroke="#757472"/>
<g clip-path="url(#clip1_283_2)">
<path d="M139.296 0.0509551C139.8 1.32647 140.252 2.60198 140.73 3.87749C140.57 4.1581 140.119 4.43871 139.8 4.69381C138.765 3.01014 137.437 1.14789 134.914 1.1734C132.604 1.19891 131.356 3.46932 130.719 5.33157C129.444 9.08157 129.763 14.5407 131.993 16.9897C133.082 18.2142 135.631 19.2346 137.517 17.9591C138.765 17.1173 139.561 14.8979 138.685 12.9591C138.552 12.653 138.313 12.3724 138.18 12.1173C140.889 11.8112 141.712 14.9744 140.703 17.0407C139.535 19.4387 136.242 20.5356 132.684 19.6683C128.382 18.6224 126.205 14.6173 126.656 9.1581C126.895 5.99483 128.249 3.29075 130.214 1.68361C131.383 0.71422 132.896 -0.153126 135.286 -0.0255755C135.684 -6.52589e-05 136.083 0.0764653 136.481 0.178506C136.826 0.255037 137.225 0.433608 137.623 0.382588C137.888 0.357078 137.941 0.101976 138.234 0.0254449C138.526 -0.0510857 138.818 0.101976 139.296 0.0509551Z" fill="#757472"/>
<path d="M100.82 0.280405C101.218 1.47938 101.723 2.62734 102.121 3.82632C101.802 3.95387 101.404 4.0304 101.112 4.18347C99.9701 2.83143 98.8283 1.24979 96.2261 1.24979C94.1017 1.24979 92.0837 2.83143 92.8272 4.89775C93.2255 5.94367 94.6594 6.47938 95.7746 6.96408C96.8899 7.44877 98.0848 7.88244 99.1204 8.36714C101.192 9.38755 103.263 10.6375 103.289 13.6477C103.289 18.2396 99.4125 20.6886 94.3673 19.7957C93.5707 19.6426 92.6147 19.26 91.9243 19.6937C91.7916 19.7957 91.6853 19.9488 91.526 19.9743C91.2339 20.0508 90.995 19.9233 90.6498 19.9743C90.4373 18.3926 90.278 16.76 90.0921 15.1784C90.4373 15.0253 90.7825 14.8978 91.1277 14.7702C91.6588 15.8161 92.243 16.76 93.1458 17.4743C93.9955 18.1631 95.1905 18.8518 96.704 18.8008C98.8549 18.7498 100.554 17.0661 100.581 14.9998C100.607 14.0559 100.183 13.1375 99.4391 12.4998C98.3238 11.5814 96.4916 10.9692 94.9249 10.2549C92.6147 9.23449 89.9859 8.31612 89.9062 5.15285C89.9062 4.23449 90.1452 3.34163 90.5966 2.55081C91.5526 1.04571 93.3582 -0.102248 96.0933 0.0508133C96.6244 0.101834 97.182 0.178364 97.7131 0.305915C98.191 0.407956 98.7487 0.688568 99.2797 0.586528C99.5718 0.535507 99.5453 0.407956 99.7843 0.254895L100.82 0.280405Z" fill="#757472"/>
<path d="M26.7599 4.20909C25.7243 5.79073 25.2198 8.11216 25.4056 10.6632C25.5915 13.0611 26.2819 14.9999 27.4768 16.4285C28.8311 18.0866 30.9819 18.954 33.1328 18.7244C35.1774 18.5458 37.0362 17.4234 38.0983 15.7397C39.1605 14.1326 39.7181 11.9132 39.6119 9.38767C39.426 4.66828 37.0627 0.892768 31.8316 1.30093C29.7604 1.37746 27.8486 2.4744 26.7599 4.20909ZM31.5396 0.127462C35.0181 -0.10213 37.7531 0.918278 39.6119 2.42338C41.4176 3.87746 42.8515 6.19889 43.0108 9.20909C43.1967 12.5509 42.1345 14.9744 40.4351 16.7091C38.7356 18.4438 36.4786 19.6173 33.2656 19.8724C29.8932 20.1275 27.2113 19.1326 25.326 17.5764C23.4406 16.0203 22.1395 13.8775 21.874 10.8417C21.5819 7.49991 22.8565 4.9744 24.4231 3.31624C26.0429 1.53052 28.2734 0.331543 31.5396 0.127462Z" fill="#757472"/>
<path d="M0.234375 18.7245V18.699C0.579574 18.6224 1.0841 18.5204 1.37619 18.2398C2.09314 17.5765 1.93382 15.4592 2.04003 14.0816C2.22591 11.4541 2.38523 8.69896 2.54456 6.07141C2.62422 4.84692 2.96942 2.98467 2.62422 2.14284C2.38523 1.60712 1.69483 1.35202 1.1372 1.22447C1.24342 0.892836 1.37619 0.561203 1.53551 0.25508H6.55418C7.96153 2.44896 9.28922 4.71937 10.7231 6.91324C11.8384 5.07651 13.1395 2.95916 14.3079 1.0459C14.4672 0.765284 14.7062 0.306101 14.8921 0.22957C15.1311 0.15304 15.6887 0.22957 16.0073 0.22957H19.4328C19.5124 0.586713 19.7514 0.943856 19.778 1.22447C19.4328 1.27549 19.0876 1.40304 18.7955 1.58161C17.9192 2.21937 18.291 4.38773 18.3972 5.86733C18.6096 9.13263 18.8486 12.5765 19.0345 15.6888C19.0345 16.3265 19.1141 16.9388 19.2735 17.551C19.5124 18.2908 20.0701 18.4949 20.7605 18.6734C20.6011 18.9796 20.5215 19.3367 20.3622 19.6428H14.6796C14.5734 19.2857 14.4141 18.9796 14.3079 18.6224C14.7328 18.5204 15.2107 18.4183 15.4763 18.1632C15.9808 17.6785 15.848 16.5816 15.7684 15.6632C15.4763 11.5051 15.1576 6.65814 14.8921 2.75508C13.113 5.51018 11.3339 8.5459 9.52821 11.403C7.7491 8.57141 6.0231 5.63773 4.16434 2.8061C3.95191 6.76018 3.65982 11.7347 3.39428 15.8928C3.36772 16.5306 3.28806 17.2704 3.47394 17.7551C3.68637 18.3418 4.244 18.5459 4.90785 18.699C4.72197 18.9285 4.72197 19.5918 4.42988 19.6939C4.244 19.7704 3.79259 19.6939 3.50049 19.6939H0.632682C0.499913 19.3877 0.393698 19.0051 0.234375 18.7245Z" fill="#757472"/>
<path d="M49.6516 1.68356V8.44377C51.5634 8.46928 53.316 8.54581 54.5375 7.83152C55.7589 7.11724 56.5821 5.20397 55.9183 3.49479C55.1748 1.58152 52.599 1.50499 49.7047 1.60703C49.6781 1.60703 49.6516 1.65805 49.6516 1.68356ZM45.2171 0.280503C50.9527 0.637646 59.0251 -1.27562 59.3968 4.18356C59.6092 7.14275 57.6974 8.49479 55.3075 9.10703C56.6883 10.0509 57.5646 11.3264 58.2284 13.1376C58.5205 13.9285 58.7861 14.8723 59.0782 15.7397C59.5561 17.2193 60.1669 18.6223 62.1319 18.6223C62.0522 19.005 61.8929 19.3366 61.7867 19.6938C60.2996 19.9234 58.9188 19.9234 58.0426 19.4897C57.1663 19.056 56.6087 18.1121 56.2104 17.1427C55.8121 16.1223 55.4669 15.0764 55.1748 14.0305C54.7233 12.5254 54.3781 10.8162 53.2098 10.1274C52.3335 9.61724 51.112 9.71928 49.6781 9.71928V16.0458C49.6781 16.7856 49.6516 17.4999 49.8906 17.9336C50.1295 18.3672 50.7668 18.5458 51.2979 18.6734C51.1651 19.005 51.0589 19.3621 50.8996 19.6683H45.2702C45.164 19.3111 45.0047 19.005 44.8984 18.6478C45.3499 18.5458 45.9606 18.4438 46.2261 18.0101C46.651 17.3468 46.4651 15.3825 46.4651 14.0815V5.7652C46.4651 4.38765 46.7572 2.2703 46.0403 1.63254C45.7482 1.40295 45.2436 1.30091 44.8984 1.24989C44.925 0.918258 45.0578 0.586626 45.2171 0.280503Z" fill="#757472"/>
<path d="M67.8969 1.68364V8.44384C71.7206 8.74997 74.6946 7.90813 74.376 4.38772C74.137 1.65813 71.2427 1.45405 67.9765 1.5816C67.9234 1.60711 67.8969 1.63262 67.8969 1.68364ZM63.4624 0.280579C68.4545 0.586701 75.4116 -0.84187 77.2173 2.5765C77.7483 3.59691 77.828 5.40813 77.2438 6.55609C76.58 7.90813 75.2523 8.64793 73.5528 9.10711C75.624 10.3571 76.3675 12.8061 77.2173 15.3571C77.7483 16.9898 78.1997 18.6479 80.3772 18.6479C80.2975 19.0306 80.1382 19.3367 80.032 19.7194C78.5449 19.9489 77.1376 19.9489 76.2879 19.5153C75.4382 19.0816 74.9071 18.1632 74.4822 17.1683C74.0839 16.1734 73.7122 15.153 73.4201 14.1071C72.9687 12.5765 72.6235 10.8418 71.4285 10.153C70.5523 9.64282 69.3573 9.74487 67.95 9.74487C67.8969 11.4796 67.9234 14.0306 67.9234 16.0969C67.9234 17.6785 68.0562 18.6224 69.5432 18.75C69.4104 19.0816 69.3042 19.4387 69.1449 19.7449H63.4889C63.3827 19.3877 63.2234 19.0816 63.1172 18.7245C63.5155 18.6224 64.2059 18.5204 64.4449 18.0867C64.8963 17.3724 64.6839 15.4592 64.6839 14.1581V5.8418C64.6839 4.43874 64.976 2.3214 64.2856 1.68364C63.9935 1.42854 63.5155 1.35201 63.1172 1.27548C63.1703 0.918334 63.2765 0.586701 63.4624 0.280579Z" fill="#757472"/>
<path d="M81.8077 0.280518H87.384C87.5964 0.53562 87.6761 0.943783 87.8088 1.27542C86.8794 1.32644 86.2687 1.83664 86.1891 2.85705C86.0828 4.10705 86.1891 5.45909 86.1891 6.81113V14.6938C86.1891 15.9693 86.0297 17.6785 86.5874 18.2397C86.8795 18.5203 87.3574 18.5713 87.7557 18.6479C87.6761 19.005 87.5433 19.3366 87.384 19.6683H81.7546C81.6483 19.3111 81.489 19.005 81.3828 18.6479C82.206 18.5458 82.8698 18.1377 82.9495 17.2193C83.0557 16.0968 82.9495 14.8468 82.9495 13.5713V6.35195C82.9495 5.07644 83.0557 3.85195 82.9495 2.75501C82.8698 1.81113 82.2856 1.37746 81.3828 1.30093C81.489 0.943783 81.6218 0.61215 81.8077 0.280518Z" fill="#757472"/>
<path d="M116.007 7.04062C113.724 7.85694 112.024 8.52021 112.024 11.3774C112.024 12.9845 112.608 14.2855 113.458 15.1018C114.148 15.7906 115.078 16.1733 116.087 16.1733C117.946 16.1733 118.902 14.8467 118.902 13.01C118.902 11.8876 118.583 10.7906 117.654 10.459C116.167 9.94878 115.582 11.6069 116.273 12.5508C114.865 12.5508 114.6 10.8671 115.104 9.82123C115.981 7.95898 118.875 7.60184 119.326 5.40796C119.645 5.61205 119.884 5.94368 119.99 6.30082C120.389 7.88245 119.247 8.95388 118.424 9.51511C118.955 9.69368 119.459 9.94878 119.884 10.2804C121.132 11.3008 121.398 13.5457 120.548 15.1018C119.831 16.4284 118.291 17.3467 116.352 17.4743C112.343 17.7294 109.369 15.3569 109.687 11.4794C109.873 9.15796 111.121 7.72939 113.033 6.93858C111.812 6.42837 110.882 5.79062 110.882 4.23449C110.882 1.88756 112.688 0.484495 115.104 0.458984C116.618 0.458984 118.025 1.12225 118.211 2.39776C118.371 3.54572 117.574 4.84674 116.246 4.33654C115.689 4.10694 115.397 3.52021 115.582 2.95898C115.662 2.62735 116.06 2.42327 116.06 2.11715C116.06 1.53041 115.051 1.40286 114.52 1.63245C112.927 2.27021 112.768 5.38245 114.148 6.35184C114.653 6.73449 115.237 6.86205 116.007 7.04062Z" fill="#757472"/>
<path d="M142.375 10.051C142.853 10.5867 143.623 10.7652 144.287 10.5101C145.535 9.94892 145.668 7.09178 144.925 5.81627C144.579 5.22953 143.889 4.92341 143.225 5.05096C141.34 5.30606 141.366 8.87749 142.375 10.051ZM143.145 4.20913C145.562 4.00504 147.128 5.33157 147.314 7.3979C147.447 8.97953 146.836 10.3571 145.641 11.0459C144.447 11.7346 142.455 11.8367 141.154 10.9183C139.959 10.0765 139.322 7.80606 140.145 6.12239C140.49 5.43362 141.048 4.8979 141.765 4.54076C142.189 4.33668 142.667 4.23464 143.145 4.20913Z" fill="#757472"/>
<path d="M143.28 12.5766C143.758 12.4745 144.315 12.6531 144.448 13.0868C144.713 13.8521 143.943 14.6429 143.147 14.3113C142.456 14.0307 142.456 12.7551 143.28 12.5766Z" fill="#757472"/>
</g>
</g>
<defs>
<clipPath id="clip0_283_2">
<rect width="1920" height="14976" fill="white" transform="translate(-232 -3628)"/>
</clipPath>
<clipPath id="clip1_283_2">
<rect width="147.082" height="20" fill="white" transform="translate(0.234375)"/>
</clipPath>
</defs>
</svg>
