<svg width="146" height="34" viewBox="0 0 146 34" fill="none" xmlns="http://www.w3.org/2000/svg">
<path d="M33.9297 33.0514V29.6025H35.7247C36.0238 29.6025 36.323 29.6025 36.4726 29.6025C36.7717 29.6025 36.9213 29.7462 37.0709 29.7462C37.2205 29.8899 37.37 29.8899 37.5196 30.0336C37.6692 30.1773 37.6692 30.321 37.6692 30.4648C37.6692 30.7522 37.5196 31.0396 37.2205 31.1833C36.9213 31.327 36.4726 31.4707 35.8742 31.4707H34.6776V32.9077H33.9297V33.0514ZM34.528 31.1833H35.7247C36.1734 31.1833 36.4726 31.1833 36.6221 31.0396C36.7717 30.8959 36.9213 30.7522 36.9213 30.6084C36.9213 30.4647 36.9213 30.321 36.7717 30.1773C36.6221 30.0336 36.4726 30.0336 36.323 30.0336C36.1734 30.0336 36.0238 30.0336 35.7247 30.0336H34.528V31.1833Z" fill="#757472"/>
<path d="M52.3281 33.0514L54.1231 29.6025H54.7214L56.666 33.0514H55.9181L55.3197 32.0455H53.3752L52.9264 33.0514H52.3281ZM53.6744 31.6144H55.3197L54.871 30.6084C54.7214 30.321 54.5718 30.0336 54.5718 29.8899C54.5718 30.1773 54.4223 30.321 54.2727 30.6084L53.6744 31.6144Z" fill="#757472"/>
<path d="M72.2227 33.0514V29.6025H74.3168C74.7655 29.6025 75.0647 29.6025 75.2143 29.7462C75.3638 29.7462 75.663 29.8899 75.663 30.0336C75.8126 30.1773 75.8126 30.321 75.8126 30.6084C75.8126 30.8959 75.663 31.0396 75.5134 31.1833C75.3638 31.327 74.9151 31.4707 74.4664 31.4707C74.6159 31.4707 74.7655 31.6144 74.7655 31.6144C74.9151 31.7581 75.0647 31.9018 75.2143 32.0455L75.9622 33.0514H75.2143L74.6159 32.3329C74.4664 32.1892 74.3168 31.9018 74.1672 31.9018C74.3168 31.6144 74.3168 31.6144 74.1672 31.6144C74.0176 31.6144 74.0176 31.4707 73.868 31.4707C73.868 31.4707 73.7185 31.4707 73.5689 31.4707H72.821V33.0514H72.2227ZM72.821 31.0396H74.1672C74.4664 31.0396 74.6159 31.0396 74.7655 31.0396C74.9151 31.0396 75.0647 30.8959 75.0647 30.8959C75.2143 30.7522 75.2143 30.7522 75.2143 30.6084C75.2143 30.4647 75.0647 30.321 74.9151 30.1773C74.7655 30.0336 74.4664 30.0336 74.1672 30.0336H72.6714V31.0396H72.821Z" fill="#757472"/>
<path d="M92.5663 29.459H91.9688V32.9078H92.5663V29.459Z" fill="#757472"/>
<path d="M108.57 31.9018H109.169C109.169 32.0455 109.318 32.1892 109.318 32.3329C109.468 32.4766 109.617 32.4766 109.767 32.6203C109.917 32.6203 110.216 32.764 110.515 32.764C110.814 32.764 110.964 32.764 111.113 32.6203C111.263 32.6203 111.412 32.4766 111.562 32.3329C111.712 32.1892 111.711 32.1892 111.711 32.0455C111.711 31.9018 111.712 31.9018 111.562 31.7581C111.412 31.6144 111.263 31.6144 111.113 31.6144C110.964 31.6144 110.664 31.4707 110.216 31.4707C109.767 31.327 109.468 31.327 109.318 31.1833C109.019 31.0396 108.869 31.0396 108.869 30.8959C108.72 30.7522 108.72 30.6085 108.72 30.4648C108.72 30.321 108.72 30.1773 108.869 30.0336C109.019 29.8899 109.169 29.7462 109.468 29.7462C109.767 29.6025 110.066 29.6025 110.365 29.6025C110.664 29.6025 110.964 29.6025 111.263 29.7462C111.562 29.8899 111.711 29.8899 111.861 30.1773C112.011 30.321 112.011 30.4647 112.16 30.7522H111.562C111.562 30.4647 111.412 30.321 111.263 30.321C111.113 30.1773 110.814 30.1773 110.515 30.1773C110.066 30.1773 109.917 30.1773 109.767 30.321C109.617 30.4647 109.468 30.6085 109.468 30.7522C109.468 30.8959 109.468 31.0396 109.617 31.0396C109.767 31.1833 110.066 31.1833 110.515 31.327C110.964 31.4707 111.412 31.4707 111.562 31.6144C111.861 31.7581 112.011 31.7581 112.16 31.9018C112.31 32.0455 112.31 32.1892 112.31 32.3329C112.31 32.4766 112.31 32.764 112.16 32.9077C112.011 33.0514 111.861 33.1951 111.562 33.3388C111.113 33.0514 110.814 33.0514 110.515 33.0514C110.066 33.0514 109.767 33.0514 109.468 32.9077C109.169 32.764 109.019 32.6203 108.869 32.4766C108.57 32.3329 108.57 32.0455 108.57 31.9018Z" fill="#757472"/>
<path d="M89.5725 0.574707H85.2346V23.4233H89.5725V0.574707Z" fill="#757472"/>
<path d="M121.885 0.574707H117.547V23.4233H121.885V0.574707Z" fill="#757472"/>
<path d="M97.6484 23.4233V0.574707H101.986V19.9744H112.307V23.4233H97.6484Z" fill="#757472"/>
<path d="M0.273438 0.574707V23.567H4.76085V6.32278L16.4281 23.567H21.6634V0.574707H17.4752V17.5315L6.10708 0.574707H0.273438Z" fill="#757472"/>
<path d="M142.672 5.89191L145.813 2.87418C145.813 2.87418 142.971 0.431246 138.633 0.574948C134.296 0.718649 130.257 3.01788 130.107 7.61633C129.958 12.2148 134.744 13.3644 136.539 14.0829C138.334 14.6577 141.625 15.3762 141.326 18.1066C141.027 20.8369 136.09 22.705 132.501 18.6814L129.359 21.4117C129.359 21.4117 132.8 25.4354 138.334 24.7168C143.869 23.9983 145.664 20.5495 145.963 17.9629C146.262 15.5199 144.766 12.0711 139.232 10.4904C133.697 8.90965 134.445 6.89782 135.193 5.46081C135.791 4.02379 140.129 3.44898 142.672 5.89191Z" fill="#757472"/>
<path d="M40.5124 0C33.4821 0 27.6484 5.46067 27.6484 12.0709C27.6484 18.6812 33.3325 24.1419 40.5124 24.1419C47.5426 24.1419 53.3763 18.6812 53.3763 12.0709C53.3763 5.46067 47.5426 0 40.5124 0ZM40.5124 20.6931C35.8754 20.6931 31.9863 16.8131 31.9863 12.0709C31.9863 7.32879 35.7258 3.59254 40.5124 3.59254C45.1494 3.59254 49.0384 7.47249 49.0384 12.0709C49.0384 16.8131 45.1494 20.6931 40.5124 20.6931Z" fill="#757472"/>
<path d="M77.4568 18.8248C77.9055 16.9567 77.6064 15.5197 77.1576 14.6575C77.0081 14.3701 76.8585 13.939 76.5593 13.6516C76.4097 13.5079 76.4097 13.5079 76.4097 13.5079C75.6618 12.6457 74.4652 11.7834 72.8198 11.496C72.8198 11.496 77.0081 10.059 77.0081 6.32278C77.0081 2.73023 73.119 0.574707 70.7257 0.574707C68.3324 0.574707 60.1055 0.574707 60.1055 0.574707V23.4233H69.9778C69.9778 23.4233 75.5123 23.8544 77.4568 18.9685C77.4568 18.9685 77.4568 18.9685 77.4568 18.8248ZM64.4433 4.16725H69.0803C72.6702 4.31095 72.6702 7.18499 72.6702 7.18499C72.3711 10.2027 68.482 10.059 68.482 10.059H64.2937V4.16725H64.4433ZM73.5677 16.9567C73.119 20.4056 68.7811 20.1181 68.7811 20.1181H64.4433V13.3642H64.5929H69.3795C74.3156 13.3642 73.5677 16.9567 73.5677 16.9567Z" fill="#757472"/>
</svg>
