<svg width="149" height="63" viewBox="0 0 149 63" fill="none" xmlns="http://www.w3.org/2000/svg">
<path d="M6.66 61.92C5.82 61.26 5.46 60.27 5.46 59.25C5.49 56.82 7.17 53.76 9.87 50.34C12.57 46.92 16.35 43.17 20.7 39.69C25.8 35.58 31.65 31.86 37.53 29.46C37.17 28.23 36.57 27.36 35.76 26.73C34.47 25.68 32.52 25.23 30.12 25.23C26.43 25.23 21.81 26.31 17.37 27.39C12.9 28.44 8.64 29.55 5.4 29.55C3.93 29.55 2.61 29.34 1.62 28.62C0.57 27.93 3.57628e-07 26.73 0.0300009 25.23C0.0300009 25.11 0.0300009 24.96 0.0300009 24.81C0.21 22.35 1.65 19.68 3.87 16.98C6.06 14.31 9.06 11.58 12.39 9.18C19.05 4.32 27.09 0.539999 33.27 0.539999C35.61 0.539999 37.74 1.08 39.36 2.46C40.98 3.81 41.97 5.91 42.24 8.76C42.27 9.18 41.97 9.54 41.55 9.6C41.13 9.63 40.74 9.33 40.71 8.91C40.47 6.33 39.63 4.68 38.37 3.63C37.11 2.58 35.37 2.07 33.27 2.07C29.1 2.04 23.58 4.08 18.36 7.11C13.14 10.11 8.19 14.13 5.04 17.97C2.94 20.52 1.68 22.98 1.56 24.9C1.56 25.02 1.56 25.14 1.56 25.23C1.59 26.4 1.89 26.97 2.49 27.39C3.06 27.81 4.08 28.02 5.4 28.02C8.28 28.02 12.54 26.97 17.01 25.89C21.48 24.81 26.16 23.73 30.12 23.7C32.7 23.73 35.01 24.18 36.72 25.53C37.77 26.34 38.52 27.45 38.97 28.89C41.55 27.93 44.13 27.24 46.65 26.91C47.58 26.79 47.73 28.2 46.86 28.44C44.43 28.74 41.88 29.43 39.3 30.39C39.39 30.96 39.42 31.59 39.42 32.22C39.39 37.86 35.07 45.33 29.31 51.6C23.52 57.81 16.29 62.79 9.96 62.82C8.58 62.82 7.47 62.55 6.66 61.92ZM28.2 50.55C33.81 44.52 37.92 37.08 37.89 32.22C37.89 31.77 37.86 31.38 37.83 30.99C34.65 32.31 31.47 34.02 28.41 36C21.36 40.53 15 46.32 11.07 51.27C8.46 54.57 6.96 57.57 6.99 59.25C7.02 59.97 7.2 60.39 7.59 60.72C8.01 61.05 8.76 61.29 9.96 61.29C15.48 61.32 22.59 56.64 28.2 50.55ZM46.5398 31.47C45.7898 30.93 45.3998 30.09 45.4298 29.25C45.4298 28.8 45.5198 28.38 45.6698 27.93C45.8498 27.51 46.0598 27.18 46.0598 27.18C46.5398 26.4 47.2898 25.71 48.1598 25.2C48.9998 24.75 49.7198 24.51 50.3798 24.51C50.7998 24.51 51.2198 24.6 51.5498 24.84C51.8798 25.08 52.1198 25.53 52.1198 25.95C52.0598 26.82 51.4298 27.42 50.5298 27.87C49.7198 28.26 48.5798 28.56 47.0798 28.62C46.9898 28.83 46.9298 29.07 46.9598 29.25C46.9598 29.67 47.0798 29.97 47.4398 30.24C47.7998 30.51 48.5198 30.75 49.6598 30.75C52.0298 30.78 56.1998 29.67 62.5898 26.46C62.9498 26.28 63.3998 26.43 63.6098 26.82C63.7898 27.18 63.6398 27.63 63.2498 27.84C56.7698 31.11 52.4798 32.28 49.6598 32.28C48.3098 32.28 47.2898 32.01 46.5398 31.47ZM48.9098 26.55C48.6998 26.67 48.4898 26.79 48.3098 26.94C48.8498 26.88 49.2698 26.76 49.5998 26.61C50.0798 26.43 50.3798 26.19 50.4998 26.04C50.4698 26.04 50.4398 26.04 50.3798 26.04C50.0798 26.04 49.5698 26.16 48.9098 26.55ZM64.878 33.09C64.578 32.7 64.458 32.22 64.458 31.71C64.488 30.75 64.818 29.49 65.508 27.69C64.878 27.93 64.248 28.05 63.678 28.08C63.198 28.08 62.718 27.99 62.328 27.63C61.908 27.3 61.728 26.76 61.728 26.22C61.728 25.83 61.788 25.44 61.938 24.99C62.088 24.6 62.508 24.39 62.898 24.51C63.318 24.63 63.528 25.08 63.408 25.47C63.288 25.8 63.258 26.07 63.258 26.22C63.258 26.46 63.288 26.46 63.318 26.46C63.318 26.49 63.408 26.55 63.678 26.55C64.278 26.55 65.478 26.16 66.618 25.5C66.918 25.35 67.278 25.38 67.518 25.62C67.758 25.83 67.818 26.19 67.698 26.49C66.468 29.22 65.988 30.93 65.988 31.71C65.988 31.95 66.048 32.07 66.048 32.1C66.078 32.1 66.108 32.1 66.138 32.1C66.408 32.1 67.068 31.89 67.818 31.5C68.568 31.11 69.468 30.54 70.368 29.91C72.228 28.65 74.178 27.21 75.648 26.43C76.038 26.22 76.488 26.37 76.698 26.73C76.878 27.12 76.758 27.57 76.368 27.78C74.388 28.83 71.028 31.53 68.508 32.85C67.668 33.3 66.918 33.63 66.138 33.63C66.138 33.63 66.138 33.63 66.108 33.63C65.688 33.63 65.208 33.48 64.878 33.09ZM74.8245 34.89C74.5545 34.41 74.4945 33.87 74.4945 33.18C74.4945 31.53 75.0045 28.98 76.1445 25.17C76.2645 24.75 76.7145 24.54 77.1045 24.66C77.5245 24.78 77.7345 25.2 77.6145 25.62C76.4745 29.37 76.0245 31.83 76.0245 33.18C76.0245 33.78 76.1145 34.11 76.1745 34.2C76.2645 34.2 76.6245 34.05 77.0145 33.72C77.4645 33.36 78.0345 32.79 78.6645 32.07C79.3245 31.26 80.0745 30.24 80.8245 29.13C80.2845 28.8 79.9245 28.17 79.9545 27.63C79.9845 26.85 80.3745 26.22 80.8245 25.68C81.2745 25.14 81.8145 24.66 82.3845 24.33C82.7445 24.12 83.0745 23.97 83.5545 23.94C83.7645 23.94 84.0945 24.03 84.3345 24.27C84.5745 24.51 84.6645 24.84 84.6645 25.08C84.6345 25.65 84.3945 26.19 83.9445 27C83.7345 27.36 83.5245 27.72 83.3145 28.08C84.9045 28.05 87.6045 27.6 91.7445 26.37C92.1645 26.25 92.5845 26.49 92.7045 26.91C92.8245 27.3 92.5845 27.72 92.1945 27.84C87.8445 29.1 85.0545 29.61 83.1945 29.61C82.8945 29.61 82.6245 29.58 82.3845 29.55C80.7945 31.98 79.2645 33.9 77.9745 34.92C77.3745 35.37 76.8345 35.73 76.1445 35.73C76.1145 35.73 76.1145 35.73 76.0845 35.73C75.5745 35.73 75.0345 35.37 74.8245 34.89ZM82.3545 26.25C81.8145 26.76 81.4545 27.42 81.4845 27.63C81.5145 27.72 81.4545 27.69 81.6345 27.81C81.6645 27.81 81.6645 27.81 81.6645 27.84C81.9945 27.3 82.3245 26.79 82.6245 26.22C82.7145 26.1 82.7745 25.98 82.8345 25.86C82.6545 25.98 82.5045 26.13 82.3545 26.25ZM94.3591 31.35C93.1891 30.93 92.4391 30.12 92.0491 29.28C91.6591 28.44 91.5991 27.57 91.5991 26.91C91.5991 26.25 91.6891 25.8 91.6891 25.74C91.7791 25.35 92.1691 25.08 92.5891 25.14C93.0091 25.23 93.2791 25.65 93.1891 26.04C93.1891 26.04 93.1591 26.13 93.1591 26.28C93.1291 26.43 93.1291 26.64 93.1291 26.91C93.1291 27.42 93.1891 28.08 93.4591 28.62C93.6991 29.19 94.0891 29.61 94.8691 29.91C95.0491 29.97 95.2891 30 95.5891 30C96.5491 30.03 97.9591 29.55 99.2491 28.92C100.569 28.32 101.799 27.57 102.579 27.06C103.089 26.73 103.389 26.52 103.389 26.52C103.749 26.28 104.229 26.37 104.469 26.7C104.709 27.06 104.619 27.54 104.289 27.78C104.259 27.78 102.969 28.71 101.259 29.64C99.5491 30.57 97.4491 31.53 95.5891 31.53C95.1691 31.53 94.7491 31.47 94.3591 31.35ZM91.9591 23.13C91.6891 22.8 91.7491 22.32 92.0491 22.05L92.4091 21.75C92.7391 21.45 93.2191 21.51 93.4891 21.81C93.7591 22.14 93.7291 22.62 93.3991 22.89L93.0391 23.22C92.9191 23.34 92.7391 23.4 92.5591 23.4C92.3491 23.4 92.1091 23.31 91.9591 23.13ZM102.056 33.15C101.426 32.64 101.126 31.86 101.126 31.11C101.156 29.61 102.086 28.05 103.346 26.76C104.606 25.47 106.256 24.45 108.026 24.45C108.596 24.45 109.196 24.57 109.736 24.84C110.126 25.02 110.276 25.47 110.096 25.86C109.916 26.25 109.436 26.4 109.076 26.22C108.746 26.04 108.416 25.98 108.026 25.98C106.916 25.95 105.506 26.73 104.426 27.81C103.346 28.89 102.656 30.3 102.656 31.11C102.686 31.53 102.776 31.74 103.016 31.95C103.256 32.16 103.766 32.34 104.636 32.34C107.006 32.37 111.776 30.87 119.666 26.49C120.056 26.28 120.506 26.4 120.716 26.79C120.926 27.15 120.776 27.6 120.416 27.81C112.376 32.25 107.546 33.87 104.636 33.87C103.556 33.87 102.686 33.63 102.056 33.15ZM119.577 31.47C118.827 30.93 118.437 30.09 118.467 29.25C118.467 28.8 118.557 28.38 118.707 27.93C118.887 27.51 119.097 27.18 119.097 27.18C119.577 26.4 120.327 25.71 121.197 25.2C122.037 24.75 122.757 24.51 123.417 24.51C123.837 24.51 124.257 24.6 124.587 24.84C124.917 25.08 125.157 25.53 125.157 25.95C125.097 26.82 124.467 27.42 123.567 27.87C122.757 28.26 121.617 28.56 120.117 28.62C120.027 28.83 119.967 29.07 119.997 29.25C119.997 29.67 120.117 29.97 120.477 30.24C120.837 30.51 121.557 30.75 122.697 30.75C125.067 30.78 129.237 29.67 135.627 26.46C135.987 26.28 136.437 26.43 136.647 26.82C136.827 27.18 136.677 27.63 136.287 27.84C129.807 31.11 125.517 32.28 122.697 32.28C121.347 32.28 120.327 32.01 119.577 31.47ZM121.947 26.55C121.737 26.67 121.527 26.79 121.347 26.94C121.887 26.88 122.307 26.76 122.637 26.61C123.117 26.43 123.417 26.19 123.537 26.04C123.507 26.04 123.477 26.04 123.417 26.04C123.117 26.04 122.607 26.16 121.947 26.55ZM135.995 40.23C135.665 39.6 135.545 38.94 135.605 38.28C135.725 36.51 136.865 34.98 137.765 33.9C137.855 33.78 137.975 33.66 138.065 33.54C137.825 32.85 137.555 32.16 137.255 31.44C136.445 29.43 135.545 27.45 135.635 25.53C135.695 24.6 136.025 23.67 136.715 22.92C137.405 22.17 138.425 21.6 139.805 21.15C140.195 21.03 140.645 21.24 140.765 21.63C140.885 22.05 140.675 22.47 140.255 22.59C139.055 22.98 138.305 23.46 137.855 23.97C137.405 24.45 137.225 24.96 137.165 25.62C137.075 26.97 137.825 28.86 138.665 30.87C138.845 31.32 139.055 31.8 139.235 32.31C142.295 29.4 146.045 26.94 146.795 26.49C146.795 26.49 147.275 26.04 147.785 26.4C148.235 27.03 147.635 27.51 147.485 27.57C145.445 28.98 143.075 30.66 139.805 33.93C140.105 35.01 140.315 36.09 140.255 37.17C140.225 37.41 140.195 37.62 140.165 37.86C140.015 38.79 139.655 39.6 139.205 40.2C138.725 40.77 138.125 41.22 137.345 41.19C137.345 41.19 137.345 41.19 137.315 41.19C136.745 41.16 136.235 40.74 135.995 40.23ZM137.135 38.37C137.105 38.79 137.165 39.15 137.345 39.54C137.405 39.63 137.435 39.66 137.435 39.66C137.465 39.66 137.525 39.66 137.615 39.6C137.705 39.54 137.855 39.42 138.005 39.24C138.275 38.91 138.545 38.31 138.665 37.59C138.695 37.44 138.695 37.26 138.725 37.08C138.755 36.54 138.695 35.94 138.575 35.34C137.825 36.24 137.165 37.41 137.135 38.37Z" fill="#B59C6B"/>
</svg>
