<svg width="116" height="40" viewBox="0 0 116 40" fill="none" xmlns="http://www.w3.org/2000/svg">
<path fill-rule="evenodd" clip-rule="evenodd" d="M45.1672 16.6393V16.0111C45.1672 14.7232 45.699 13.5548 46.5585 12.7085C47.4202 11.8611 48.6076 11.3378 49.9166 11.3378C51.2258 11.3378 52.4128 11.8611 53.2728 12.7068C54.134 13.5548 54.6658 14.7232 54.6658 16.0111V16.6044H53.762V16.0111C53.762 14.9651 53.3323 14.0186 52.6375 13.3354C51.9414 12.65 50.9799 12.2272 49.9166 12.2272C48.8536 12.2272 47.8917 12.65 47.1972 13.3337C46.5007 14.0187 46.071 14.9651 46.071 16.0111V16.6393H45.1672ZM0 19.9656H0.983446V39.886H0V19.9656ZM24.5533 19.9656V39.886H23.7438L9.37021 21.7299V39.886H8.3868V19.9656H9.19667L23.5702 38.1218V19.9656H24.5533ZM37.076 40C35.6109 40 34.2179 39.7439 32.897 39.2317C31.5765 38.7194 30.5593 38.0552 29.8461 37.2395L30.3667 36.5565C31.0412 37.3155 31.9813 37.9366 33.1864 38.4206C34.3915 38.9043 35.6782 39.1462 37.0472 39.1462C39.0714 39.1462 40.5997 38.7524 41.6308 37.9651C42.6624 37.178 43.1782 36.1676 43.1782 34.9345C43.1782 33.9859 42.9084 33.2222 42.3683 32.6435C41.8286 32.065 41.1636 31.6284 40.3729 31.3346C39.5824 31.0405 38.5027 30.7319 37.1341 30.4096C35.6686 30.049 34.4925 29.6981 33.6055 29.3566C32.7187 29.0151 31.9669 28.4934 31.3497 27.7916C30.7328 27.0895 30.4244 26.1504 30.4244 24.974C30.4244 24.0446 30.6751 23.1909 31.1762 22.4128C31.6777 21.635 32.4441 21.0139 33.4754 20.549C34.5069 20.0842 35.794 19.8516 37.3362 19.8516C38.4354 19.8516 39.5199 20.013 40.5898 20.3356C41.6599 20.6579 42.5709 21.104 43.3231 21.673L42.8892 22.4413C42.0985 21.8723 41.2166 21.4407 40.2427 21.1467C39.2692 20.8526 38.31 20.7053 37.3652 20.7053C35.3988 20.7053 33.9091 21.1087 32.897 21.915C31.8849 22.7213 31.3788 23.7411 31.3788 24.974C31.3788 25.9416 31.6534 26.7147 32.203 27.2935C32.7526 27.872 33.4272 28.3133 34.2275 28.6168C35.0275 28.9203 36.1024 29.2332 37.452 29.5559C38.9173 29.9162 40.0934 30.2624 40.9802 30.5945C41.8672 30.9266 42.6143 31.4388 43.2216 32.1312C43.8289 32.8236 44.1326 33.7486 44.1326 34.9058C44.1326 35.8355 43.8771 36.6892 43.3664 37.467C42.8554 38.2451 42.0698 38.8616 41.0092 39.317C39.9489 39.7721 38.6376 40 37.076 40ZM49.425 19.9656H50.4084V39.886H49.425V19.9656ZM72.4457 30.0682H73.371V37.4388C72.4843 38.2734 71.4284 38.909 70.2042 39.3452C68.98 39.7819 67.6738 40 66.2857 40C64.2997 40 62.5068 39.5634 60.9065 38.6908C59.3062 37.8183 58.0481 36.6133 57.1323 35.0766C56.2166 33.5399 55.7585 31.823 55.7585 29.926C55.7585 28.0286 56.2166 26.3117 57.1323 24.775C58.0481 23.2383 59.3062 22.0337 60.9065 21.1608C62.5068 20.2882 64.2997 19.8516 66.2857 19.8516C67.7315 19.8516 69.062 20.0701 70.2766 20.5063C71.4913 20.9426 72.5324 21.597 73.4 22.4699L72.8217 23.1244C71.1442 21.5308 68.9753 20.7339 66.3143 20.7339C64.5023 20.7339 62.8682 21.1372 61.4123 21.9433C59.9569 22.7496 58.8143 23.8547 57.9853 25.2587C57.1562 26.6626 56.742 28.2185 56.742 29.926C56.742 31.6335 57.1562 33.189 57.9853 34.5929C58.8143 35.9968 59.9569 37.1021 61.4123 37.9084C62.8682 38.7146 64.5023 39.1177 66.3143 39.1177C68.8403 39.1177 70.8839 38.4253 72.4457 37.0402V30.0682ZM96.3626 19.9656V39.886H95.3795V30.2103H81.1795V39.886H80.1961V19.9656H81.1795V29.3284H95.3795V19.9656H96.3626ZM107.613 20.8478H100.18V19.9656H116V20.8478H108.567V39.886H107.613V20.8478ZM52.974 9.91272L57.6622 1.92251L58.4423 2.36756L53.7542 10.3577L52.974 9.91272ZM55.6619 12.2349L63.7819 7.62175L64.2342 8.3894L56.1142 13.0026L55.6619 12.2349ZM56.8116 15.5665H66.1879V16.4558H56.8116V15.5665ZM43.0214 16.4558H33.6451V15.5665H43.0214V16.4558ZM43.7189 13.0026L35.599 8.3894L36.0512 7.62175L44.1712 12.2349L43.7189 13.0026ZM46.0789 10.3577L41.3907 2.36756L42.1709 1.92251L46.8591 9.91272L46.0789 10.3577ZM49.4646 9.22632V0H50.3685V9.22632H49.4646Z" fill="#757472"/>
</svg>
