<svg width="40" height="20" viewBox="0 0 40 20" fill="none" xmlns="http://www.w3.org/2000/svg">
<path fill-rule="evenodd" clip-rule="evenodd" d="M13.8493 20V19.2449C13.8493 17.6969 14.4885 16.2926 15.5216 15.2753C16.5574 14.2568 17.9845 13.6278 19.5579 13.6278C21.1316 13.6278 22.5583 14.2568 23.592 15.2732C24.6271 16.2926 25.2664 17.6969 25.2664 19.2449V19.958H24.18V19.2449C24.18 17.9877 23.6636 16.85 22.8284 16.0288C21.9917 15.205 20.836 14.6967 19.5579 14.6967C18.2802 14.6967 17.1241 15.205 16.2893 16.0267C15.4522 16.85 14.9357 17.9877 14.9357 19.2449V20H13.8493ZM23.2328 11.9148L28.8679 2.3108L29.8056 2.84574L24.1706 12.4497L23.2328 11.9148ZM26.4637 14.7061L36.2236 9.16114L36.7673 10.0838L27.0072 15.6288L26.4637 14.7061ZM27.8456 18.7105H39.1156V19.7795H27.8456V18.7105ZM11.2701 19.7795H0V18.7105H11.2701V19.7795ZM12.1085 15.6288L2.3485 10.0838L2.89213 9.16114L12.6521 14.7061L12.1085 15.6288ZM14.9451 12.4497L9.31005 2.84574L10.2478 2.3108L15.8829 11.9148L14.9451 12.4497ZM19.0147 11.0898V0H20.1011V11.0898H19.0147Z" fill="#B59C6B"/>
</svg>
