<svg width="83" height="64" viewBox="0 0 83 64" fill="none" xmlns="http://www.w3.org/2000/svg">
<path d="M16.02 63.35C15.6 63.29 15.33 62.87 15.39 62.48C17.55 49.64 22.92 15.53 24.51 4.88L0.93 7.94C0.51 8 0.12 7.7 0.06 7.28C0 6.86 0.3 6.47 0.72 6.41L49.29 0.139998C49.71 0.109997 50.1 0.379999 50.16 0.799997C50.19 1.22 49.92 1.61 49.5 1.67L26.1 4.7C24.57 14.84 19.08 49.7 16.89 62.72C16.83 63.08 16.5 63.35 16.14 63.35C16.11 63.35 16.05 63.35 16.02 63.35ZM28.7332 33.47C27.9832 32.93 27.5932 32.09 27.6232 31.25C27.6232 30.8 27.7132 30.38 27.8632 29.93C28.0432 29.51 28.2532 29.18 28.2532 29.18C28.7332 28.4 29.4832 27.71 30.3532 27.2C31.1932 26.75 31.9132 26.51 32.5732 26.51C32.9932 26.51 33.4132 26.6 33.7432 26.84C34.0732 27.08 34.3132 27.53 34.3132 27.95C34.2532 28.82 33.6232 29.42 32.7232 29.87C31.9132 30.26 30.7732 30.56 29.2732 30.62C29.1832 30.83 29.1232 31.07 29.1532 31.25C29.1532 31.67 29.2732 31.97 29.6332 32.24C29.9932 32.51 30.7132 32.75 31.8532 32.75C34.2232 32.78 38.3932 31.67 44.7832 28.46C45.1432 28.28 45.5932 28.43 45.8032 28.82C45.9832 29.18 45.8332 29.63 45.4432 29.84C38.9632 33.11 34.6732 34.28 31.8532 34.28C30.5032 34.28 29.4832 34.01 28.7332 33.47ZM31.1032 28.55C30.8932 28.67 30.6832 28.79 30.5032 28.94C31.0432 28.88 31.4632 28.76 31.7932 28.61C32.2732 28.43 32.5732 28.19 32.6932 28.04C32.6632 28.04 32.6332 28.04 32.5732 28.04C32.2732 28.04 31.7632 28.16 31.1032 28.55ZM42.8114 34.43C42.6014 34.1 42.5414 33.71 42.5414 33.38C42.5714 32.12 43.2614 30.5 44.3714 29.06C45.4814 27.62 47.0714 26.36 49.0514 26.33C49.7114 26.33 50.4014 26.51 51.0914 26.84C51.4814 27.02 51.6314 27.47 51.4214 27.86C51.3014 28.13 51.0314 28.28 50.7314 28.28C50.7914 28.43 50.8214 28.58 50.7914 28.76C50.7914 28.76 50.7914 28.76 50.7614 28.85C50.7614 28.94 50.7314 29.09 50.7314 29.24C50.7314 29.63 50.8214 30.2 51.0614 30.68C51.3314 31.16 51.7214 31.58 52.5914 31.91C52.7714 31.97 53.0414 32 53.3114 32C54.2714 32.03 55.6814 31.55 57.0014 30.92C58.2914 30.32 59.5514 29.57 60.3014 29.06C60.8114 28.73 61.1414 28.52 61.1414 28.52C61.4714 28.28 61.9514 28.37 62.1914 28.7C62.4314 29.06 62.3714 29.54 62.0114 29.78C62.0114 29.78 60.6914 30.71 58.9814 31.64C57.2714 32.57 55.1714 33.53 53.3114 33.53C52.8914 33.53 52.4714 33.47 52.0814 33.35C50.8814 32.93 50.1014 32.18 49.7114 31.37C49.5614 31.1 49.4714 30.86 49.4114 30.59C48.3014 31.91 47.3714 32.87 46.5914 33.56C45.5414 34.49 44.7914 34.97 43.9514 35C43.9214 35 43.9214 35 43.8914 35C43.5014 35 43.0514 34.79 42.8114 34.43ZM45.5714 29.99C44.6114 31.19 44.0414 32.72 44.0714 33.38C44.0714 33.41 44.0714 33.44 44.0714 33.44C44.3114 33.38 44.8814 33.08 45.6014 32.42C46.5314 31.58 47.8214 30.2 49.4414 28.13C49.5014 28.04 49.5614 27.98 49.6514 27.95C49.4414 27.89 49.2314 27.86 49.0514 27.86H49.0214C47.7914 27.86 46.5314 28.76 45.5714 29.99ZM71.097 36.2C70.617 35.66 70.437 34.91 70.437 34.01C70.437 33.26 70.557 32.39 70.827 31.4C71.127 30.26 71.367 29.18 71.367 28.43C71.367 28.19 71.337 27.98 71.307 27.83C71.277 27.77 71.277 27.71 71.247 27.68C71.217 27.68 71.217 27.68 71.187 27.71C71.067 27.77 70.917 27.86 70.737 28.01C70.377 28.28 69.957 28.73 69.537 29.21C68.727 30.2 67.887 31.4 67.347 32.21C66.987 32.75 66.777 33.11 66.777 33.11C66.777 33.11 66.777 33.11 66.747 33.14C66.507 33.47 66.057 33.56 65.697 33.35C65.367 33.11 65.247 32.66 65.487 32.3C65.487 32.3 65.517 32.24 65.577 32.12C65.817 31.7 66.087 30.62 66.057 29.84C66.087 29.45 65.997 29.15 65.937 29.03C65.907 29.03 65.877 29.06 65.817 29.09C65.697 29.15 65.517 29.24 65.367 29.36C65.007 29.63 64.557 30.05 64.137 30.5C63.267 31.43 62.367 32.57 61.797 33.32C61.407 33.83 61.197 34.16 61.197 34.16C60.957 34.46 60.567 34.58 60.237 34.4C59.877 34.25 59.727 33.86 59.817 33.5L61.647 27.26C61.767 26.87 62.217 26.63 62.607 26.75C63.027 26.87 63.237 27.29 63.117 27.71L62.427 30.11C62.907 29.54 63.447 29 63.957 28.55C64.617 28.01 65.157 27.53 65.997 27.5C65.997 27.5 66.027 27.5 66.087 27.5C66.717 27.53 67.167 28.01 67.347 28.46C67.467 28.7 67.527 28.97 67.557 29.24C68.097 28.52 68.727 27.8 69.297 27.23C69.927 26.66 70.497 26.15 71.337 26.12C71.667 26.12 72.057 26.27 72.297 26.54C72.567 26.78 72.687 27.11 72.777 27.44C72.867 27.77 72.897 28.1 72.897 28.43C72.897 29.48 72.627 30.62 72.327 31.79C72.057 32.72 71.967 33.44 71.967 34.01C71.967 34.67 72.117 35.06 72.267 35.24C72.417 35.42 72.597 35.51 72.957 35.51C73.497 35.51 74.397 35.21 75.357 34.61C76.347 33.98 77.427 33.08 78.507 31.94C79.287 31.07 79.917 30.29 80.367 29.72C81.807 28.04 82.227 28.58 82.227 28.58C82.587 28.82 82.737 29.3 82.437 29.66C82.437 29.66 81.297 31.16 79.617 32.96C78.477 34.19 77.307 35.18 76.167 35.9C75.057 36.59 73.977 37.04 72.957 37.04H72.927C72.237 37.04 71.547 36.77 71.097 36.2Z" fill="#B59C6B"/>
</svg>
