<svg width="545" height="448" viewBox="0 0 545 448" fill="none" xmlns="http://www.w3.org/2000/svg">
<path opacity="0.5" d="M486.588 99.8325C503.301 128.78 493.785 167.323 465.109 207.31C436.453 247.268 388.763 288.511 329.501 322.726C270.24 356.941 210.677 377.62 161.744 382.457C112.777 387.298 74.6401 376.268 57.9269 347.32C41.2138 318.372 50.73 279.83 79.4061 239.843C108.062 199.885 155.752 158.642 215.014 124.427C274.276 90.2121 333.838 69.533 382.771 64.6955C431.738 59.8545 469.875 70.8846 486.588 99.8325Z" stroke="#757472" stroke-opacity="0.5"/>
<path fill-rule="evenodd" clip-rule="evenodd" d="M259.167 180.639V180.011C259.167 178.723 259.699 177.555 260.559 176.709C261.42 175.861 262.608 175.338 263.917 175.338C265.226 175.338 266.413 175.861 267.273 176.707C268.134 177.555 268.666 178.723 268.666 180.011V180.604H267.762V180.011C267.762 178.965 267.332 178.019 266.638 177.335C265.941 176.65 264.98 176.227 263.917 176.227C262.854 176.227 261.892 176.65 261.197 177.334C260.501 178.019 260.071 178.965 260.071 180.011V180.639H259.167ZM214 183.966H214.983V203.886H214V183.966ZM238.553 183.966V203.886H237.744L223.37 185.73V203.886H222.387V183.966H223.197L237.57 202.122V183.966H238.553ZM251.076 204C249.611 204 248.218 203.744 246.897 203.232C245.577 202.719 244.559 202.055 243.846 201.239L244.367 200.557C245.041 201.315 245.981 201.937 247.186 202.421C248.391 202.904 249.678 203.146 251.047 203.146C253.071 203.146 254.6 202.752 255.631 201.965C256.662 201.178 257.178 200.168 257.178 198.934C257.178 197.986 256.908 197.222 256.368 196.643C255.829 196.065 255.164 195.628 254.373 195.335C253.582 195.041 252.503 194.732 251.134 194.41C249.669 194.049 248.493 193.698 247.605 193.357C246.719 193.015 245.967 192.493 245.35 191.792C244.733 191.089 244.424 190.15 244.424 188.974C244.424 188.045 244.675 187.191 245.176 186.413C245.678 185.635 246.444 185.014 247.475 184.549C248.507 184.084 249.794 183.852 251.336 183.852C252.435 183.852 253.52 184.013 254.59 184.336C255.66 184.658 256.571 185.104 257.323 185.673L256.889 186.441C256.099 185.872 255.217 185.441 254.243 185.147C253.269 184.853 252.31 184.705 251.365 184.705C249.399 184.705 247.909 185.109 246.897 185.915C245.885 186.721 245.379 187.741 245.379 188.974C245.379 189.942 245.653 190.715 246.203 191.294C246.753 191.872 247.427 192.313 248.228 192.617C249.027 192.92 250.102 193.233 251.452 193.556C252.917 193.916 254.093 194.262 254.98 194.595C255.867 194.927 256.614 195.439 257.222 196.131C257.829 196.824 258.133 197.749 258.133 198.906C258.133 199.835 257.877 200.689 257.366 201.467C256.855 202.245 256.07 202.862 255.009 203.317C253.949 203.772 252.638 204 251.076 204ZM263.425 183.966H264.408V203.886H263.425V183.966ZM286.446 194.068H287.371V201.439C286.484 202.273 285.428 202.909 284.204 203.345C282.98 203.782 281.674 204 280.286 204C278.3 204 276.507 203.563 274.907 202.691C273.306 201.818 272.048 200.613 271.132 199.077C270.217 197.54 269.759 195.823 269.759 193.926C269.759 192.029 270.217 190.312 271.132 188.775C272.048 187.238 273.306 186.034 274.907 185.161C276.507 184.288 278.3 183.852 280.286 183.852C281.732 183.852 283.062 184.07 284.277 184.506C285.491 184.943 286.532 185.597 287.4 186.47L286.822 187.124C285.144 185.531 282.975 184.734 280.314 184.734C278.502 184.734 276.868 185.137 275.412 185.943C273.957 186.75 272.814 187.855 271.985 189.259C271.156 190.663 270.742 192.219 270.742 193.926C270.742 195.633 271.156 197.189 271.985 198.593C272.814 199.997 273.957 201.102 275.412 201.908C276.868 202.715 278.502 203.118 280.314 203.118C282.84 203.118 284.884 202.425 286.446 201.04V194.068ZM310.363 183.966V203.886H309.38V194.21H295.179V203.886H294.196V183.966H295.179V193.328H309.38V183.966H310.363ZM321.613 184.848H314.18V183.966H330V184.848H322.567V203.886H321.613V184.848ZM266.974 173.913L271.662 165.923L272.442 166.368L267.754 174.358L266.974 173.913ZM269.662 176.235L277.782 171.622L278.234 172.389L270.114 177.003L269.662 176.235ZM270.812 179.566H280.188V180.456H270.812V179.566ZM257.021 180.456H247.645V179.566H257.021V180.456ZM257.719 177.003L249.599 172.389L250.051 171.622L258.171 176.235L257.719 177.003ZM260.079 174.358L255.391 166.368L256.171 165.923L260.859 173.913L260.079 174.358ZM263.465 173.226V164H264.368V173.226H263.465Z" fill="#757472"/>
<path d="M147.87 233.466C148.482 233.73 148.968 234.132 149.328 234.672C149.7 235.2 149.886 235.806 149.886 236.49C149.886 237.462 149.544 238.29 148.86 238.974C148.176 239.658 147.348 240 146.376 240H140.886V227.4H145.962C146.898 227.4 147.696 227.736 148.356 228.408C149.016 229.068 149.346 229.86 149.346 230.784C149.346 231.96 148.854 232.854 147.87 233.466ZM145.962 228.588H142.146V232.98H145.962C146.55 232.98 147.048 232.77 147.456 232.35C147.876 231.918 148.086 231.396 148.086 230.784C148.086 230.184 147.876 229.668 147.456 229.236C147.048 228.804 146.55 228.588 145.962 228.588ZM146.376 238.812C147 238.812 147.528 238.59 147.96 238.146C148.404 237.69 148.626 237.138 148.626 236.49C148.626 235.854 148.404 235.308 147.96 234.852C147.528 234.396 147 234.168 146.376 234.168H142.146V238.812H146.376ZM159.077 240H157.655L154.847 236.292L152.039 240H150.617L154.145 235.338L150.851 231H152.273L154.847 234.402L157.421 231H158.843L155.567 235.338L159.077 240ZM167.602 238.866C166.69 239.766 165.574 240.216 164.254 240.216C162.934 240.216 161.812 239.766 160.888 238.866C159.976 237.954 159.52 236.832 159.52 235.5C159.52 234.168 159.976 233.052 160.888 232.152C161.812 231.24 162.934 230.784 164.254 230.784C165.574 230.784 166.69 231.24 167.602 232.152C168.526 233.052 168.988 234.168 168.988 235.5C168.988 236.832 168.526 237.954 167.602 238.866ZM161.734 238.038C162.418 238.722 163.258 239.064 164.254 239.064C165.25 239.064 166.09 238.722 166.774 238.038C167.458 237.342 167.8 236.496 167.8 235.5C167.8 234.504 167.458 233.664 166.774 232.98C166.09 232.284 165.25 231.936 164.254 231.936C163.258 231.936 162.418 232.284 161.734 232.98C161.05 233.664 160.708 234.504 160.708 235.5C160.708 236.496 161.05 237.342 161.734 238.038ZM178.184 238.848H179.444V242.412H178.256V240H170.912V242.412H169.724V238.848H170.822C171.434 238.044 171.74 236.91 171.74 235.446V231H178.184V238.848ZM172.262 238.848H176.996V232.152H172.928V235.446C172.928 236.826 172.706 237.96 172.262 238.848ZM187.793 231H188.801V240H187.613V233.07L182.249 240H181.241V231H182.429V237.93L187.793 231ZM200.134 231V240H198.946V232.818L195.796 237.93H195.652L192.502 232.818V240H191.314V231H192.682L195.724 235.932L198.766 231H200.134ZM212.876 235.374C213.86 235.734 214.352 236.436 214.352 237.48C214.352 238.212 214.106 238.818 213.614 239.298C213.134 239.766 212.438 240 211.526 240H207.152V231H211.166C212.042 231 212.72 231.228 213.2 231.684C213.68 232.128 213.92 232.704 213.92 233.412C213.92 234.312 213.572 234.966 212.876 235.374ZM211.166 232.152H208.34V234.888H211.166C212.21 234.888 212.732 234.42 212.732 233.484C212.732 233.064 212.594 232.74 212.318 232.512C212.054 232.272 211.67 232.152 211.166 232.152ZM211.526 238.848C212.054 238.848 212.456 238.722 212.732 238.47C213.02 238.218 213.164 237.864 213.164 237.408C213.164 236.988 213.02 236.658 212.732 236.418C212.456 236.166 212.054 236.04 211.526 236.04H208.34V238.848H211.526ZM228.752 227.4V228.588H224.882V240H223.622V228.588H219.752V227.4H228.752ZM240.254 238.326C238.994 239.586 237.452 240.216 235.628 240.216C233.804 240.216 232.262 239.586 231.002 238.326C229.742 237.054 229.112 235.512 229.112 233.7C229.112 231.888 229.742 230.352 231.002 229.092C232.262 227.82 233.804 227.184 235.628 227.184C237.452 227.184 238.994 227.82 240.254 229.092C241.514 230.352 242.144 231.888 242.144 233.7C242.144 235.512 241.514 237.054 240.254 238.326ZM231.884 237.462C232.892 238.482 234.14 238.992 235.628 238.992C237.116 238.992 238.364 238.482 239.372 237.462C240.38 236.43 240.884 235.176 240.884 233.7C240.884 232.224 240.38 230.976 239.372 229.956C238.364 228.924 237.116 228.408 235.628 228.408C234.14 228.408 232.892 228.924 231.884 229.956C230.876 230.976 230.372 232.224 230.372 233.7C230.372 235.176 230.876 236.43 231.884 237.462ZM253.298 227.4V240H252.038V228.588H245.558V240H244.298V227.4H253.298ZM256.181 235.014V233.862H262.661V235.014H256.181ZM268.863 232.476C270.039 232.476 271.035 232.824 271.851 233.52C272.679 234.204 273.093 235.146 273.093 236.346C273.093 237.546 272.679 238.494 271.851 239.19C271.035 239.874 270.039 240.216 268.863 240.216C267.915 240.216 267.069 239.988 266.325 239.532C265.581 239.064 265.077 238.398 264.813 237.534L265.875 236.922C266.055 237.594 266.409 238.11 266.937 238.47C267.477 238.818 268.119 238.992 268.863 238.992C269.727 238.992 270.435 238.764 270.987 238.308C271.551 237.84 271.833 237.186 271.833 236.346C271.833 235.506 271.551 234.858 270.987 234.402C270.435 233.934 269.727 233.7 268.863 233.7H265.443L265.893 227.4H272.643V228.588H267.009L266.739 232.476H268.863ZM282.818 238.452C281.99 239.628 280.82 240.216 279.308 240.216C277.796 240.216 276.62 239.628 275.78 238.452C274.952 237.264 274.538 235.68 274.538 233.7C274.538 231.72 274.952 230.142 275.78 228.966C276.62 227.778 277.796 227.184 279.308 227.184C280.82 227.184 281.99 227.778 282.818 228.966C283.658 230.142 284.078 231.72 284.078 233.7C284.078 235.68 283.658 237.264 282.818 238.452ZM276.716 237.606C277.34 238.53 278.204 238.992 279.308 238.992C280.412 238.992 281.27 238.53 281.882 237.606C282.506 236.682 282.818 235.38 282.818 233.7C282.818 232.02 282.506 230.718 281.882 229.794C281.27 228.87 280.412 228.408 279.308 228.408C278.204 228.408 277.34 228.87 276.716 229.794C276.104 230.718 275.798 232.02 275.798 233.7C275.798 235.38 276.104 236.682 276.716 237.606ZM297.216 231V232.152H294.03V240H292.842V232.152H289.656V231H297.216ZM302.47 230.784C303.802 230.784 304.876 231.258 305.692 232.206C306.52 233.142 306.934 234.252 306.934 235.536C306.934 235.668 306.922 235.854 306.898 236.094H298.996C299.116 237.006 299.5 237.732 300.148 238.272C300.808 238.8 301.618 239.064 302.578 239.064C303.262 239.064 303.85 238.926 304.342 238.65C304.846 238.362 305.224 237.99 305.476 237.534L306.52 238.146C306.124 238.782 305.584 239.286 304.9 239.658C304.216 240.03 303.436 240.216 302.56 240.216C301.144 240.216 299.992 239.772 299.104 238.884C298.216 237.996 297.772 236.868 297.772 235.5C297.772 234.156 298.21 233.034 299.086 232.134C299.962 231.234 301.09 230.784 302.47 230.784ZM302.47 231.936C301.534 231.936 300.748 232.218 300.112 232.782C299.488 233.334 299.116 234.054 298.996 234.942H305.71C305.59 233.994 305.224 233.256 304.612 232.728C304 232.2 303.286 231.936 302.47 231.936ZM316.095 240H314.511L310.011 235.662V240H308.823V231H310.011V234.978L314.295 231H315.915L311.271 235.32L316.095 240ZM321.016 240.216C319.66 240.216 318.532 239.766 317.632 238.866C316.732 237.954 316.282 236.832 316.282 235.5C316.282 234.168 316.732 233.052 317.632 232.152C318.532 231.24 319.66 230.784 321.016 230.784C321.904 230.784 322.702 231 323.41 231.432C324.118 231.852 324.634 232.422 324.958 233.142L323.986 233.7C323.746 233.16 323.356 232.734 322.816 232.422C322.288 232.098 321.688 231.936 321.016 231.936C320.02 231.936 319.18 232.284 318.496 232.98C317.812 233.664 317.47 234.504 317.47 235.5C317.47 236.496 317.812 237.342 318.496 238.038C319.18 238.722 320.02 239.064 321.016 239.064C321.688 239.064 322.288 238.908 322.816 238.596C323.344 238.272 323.758 237.84 324.058 237.3L325.048 237.876C324.676 238.596 324.13 239.166 323.41 239.586C322.69 240.006 321.892 240.216 321.016 240.216ZM333.057 231V232.152H329.871V240H328.683V232.152H325.497V231H333.057ZM341.057 231H342.065V240H340.877V233.07L335.513 240H334.505V231H335.693V237.93L341.057 231ZM351.957 231V240H350.769V232.152H346.701V236.166C346.701 237.666 346.413 238.698 345.837 239.262C345.273 239.826 344.493 240.072 343.497 240V238.884C344.181 238.956 344.685 238.794 345.009 238.398C345.345 238.002 345.513 237.258 345.513 236.166V231H351.957ZM358.128 234.42C358.968 234.42 359.676 234.684 360.252 235.212C360.84 235.728 361.134 236.394 361.134 237.21C361.134 238.026 360.84 238.698 360.252 239.226C359.676 239.742 358.968 240 358.128 240H354.474V231H355.662V234.42H358.128ZM358.128 238.848C358.632 238.848 359.058 238.698 359.406 238.398C359.766 238.098 359.946 237.702 359.946 237.21C359.946 236.718 359.766 236.322 359.406 236.022C359.058 235.722 358.632 235.572 358.128 235.572H355.662V238.848H358.128ZM369.301 231H370.489V240H369.301V236.076H364.117V240H362.929V231H364.117V234.924H369.301V231ZM376.655 234.42C377.495 234.42 378.203 234.684 378.779 235.212C379.367 235.728 379.661 236.394 379.661 237.21C379.661 238.026 379.367 238.698 378.779 239.226C378.203 239.742 377.495 240 376.655 240H373.001V231H374.189V234.42H376.655ZM380.921 231H382.109V240H380.921V231ZM376.655 238.848C377.159 238.848 377.585 238.698 377.933 238.398C378.293 238.098 378.473 237.702 378.473 237.21C378.473 236.718 378.293 236.322 377.933 236.022C377.585 235.722 377.159 235.572 376.655 235.572H374.189V238.848H376.655ZM392.198 240H390.776L387.968 236.292L385.16 240H383.738L387.266 235.338L383.972 231H385.394L387.968 234.402L390.542 231H391.964L388.688 235.338L392.198 240ZM192.37 263.848H193.63V267.412H192.442V265H185.098V267.412H183.91V263.848H185.008C185.62 263.044 185.926 261.91 185.926 260.446V256H192.37V263.848ZM186.448 263.848H191.182V257.152H187.114V260.446C187.114 261.826 186.892 262.96 186.448 263.848ZM199.233 255.784C200.565 255.784 201.639 256.258 202.455 257.206C203.283 258.142 203.697 259.252 203.697 260.536C203.697 260.668 203.685 260.854 203.661 261.094H195.759C195.879 262.006 196.263 262.732 196.911 263.272C197.571 263.8 198.381 264.064 199.341 264.064C200.025 264.064 200.613 263.926 201.105 263.65C201.609 263.362 201.987 262.99 202.239 262.534L203.283 263.146C202.887 263.782 202.347 264.286 201.663 264.658C200.979 265.03 200.199 265.216 199.323 265.216C197.907 265.216 196.755 264.772 195.867 263.884C194.979 262.996 194.535 261.868 194.535 260.5C194.535 259.156 194.973 258.034 195.849 257.134C196.725 256.234 197.853 255.784 199.233 255.784ZM199.233 256.936C198.297 256.936 197.511 257.218 196.875 257.782C196.251 258.334 195.879 259.054 195.759 259.942H202.473C202.353 258.994 201.987 258.256 201.375 257.728C200.763 257.2 200.049 256.936 199.233 256.936ZM212.859 265H211.275L206.775 260.662V265H205.587V256H206.775V259.978L211.059 256H212.679L208.035 260.32L212.859 265ZM221.127 263.866C220.215 264.766 219.099 265.216 217.779 265.216C216.459 265.216 215.337 264.766 214.413 263.866C213.501 262.954 213.045 261.832 213.045 260.5C213.045 259.168 213.501 258.052 214.413 257.152C215.337 256.24 216.459 255.784 217.779 255.784C219.099 255.784 220.215 256.24 221.127 257.152C222.051 258.052 222.513 259.168 222.513 260.5C222.513 261.832 222.051 262.954 221.127 263.866ZM215.259 263.038C215.943 263.722 216.783 264.064 217.779 264.064C218.775 264.064 219.615 263.722 220.299 263.038C220.983 262.342 221.325 261.496 221.325 260.5C221.325 259.504 220.983 258.664 220.299 257.98C219.615 257.284 218.775 256.936 217.779 256.936C216.783 256.936 215.943 257.284 215.259 257.98C214.575 258.664 214.233 259.504 214.233 260.5C214.233 261.496 214.575 262.342 215.259 263.038ZM229.325 255.784C230.609 255.784 231.701 256.24 232.601 257.152C233.513 258.064 233.969 259.18 233.969 260.5C233.969 261.82 233.513 262.936 232.601 263.848C231.701 264.76 230.609 265.216 229.325 265.216C227.729 265.216 226.517 264.556 225.689 263.236V268.6H224.501V256H225.689V257.764C226.517 256.444 227.729 255.784 229.325 255.784ZM226.715 263.038C227.399 263.722 228.239 264.064 229.235 264.064C230.231 264.064 231.071 263.722 231.755 263.038C232.439 262.342 232.781 261.496 232.781 260.5C232.781 259.504 232.439 258.664 231.755 257.98C231.071 257.284 230.231 256.936 229.235 256.936C228.239 256.936 227.399 257.284 226.715 257.98C226.031 258.664 225.689 259.504 225.689 260.5C225.689 261.496 226.031 262.342 226.715 263.038ZM243.685 256H244.873V265H243.685V263.236C242.857 264.556 241.645 265.216 240.049 265.216C238.765 265.216 237.667 264.76 236.755 263.848C235.855 262.936 235.405 261.82 235.405 260.5C235.405 259.18 235.855 258.064 236.755 257.152C237.667 256.24 238.765 255.784 240.049 255.784C241.645 255.784 242.857 256.444 243.685 257.764V256ZM237.619 263.038C238.303 263.722 239.143 264.064 240.139 264.064C241.135 264.064 241.975 263.722 242.659 263.038C243.343 262.342 243.685 261.496 243.685 260.5C243.685 259.504 243.343 258.664 242.659 257.98C241.975 257.284 241.135 256.936 240.139 256.936C239.143 256.936 238.303 257.284 237.619 257.98C236.935 258.664 236.593 259.504 236.593 260.5C236.593 261.496 236.935 262.342 237.619 263.038ZM253.868 256V257.152H250.682V265H249.494V257.152H246.308V256H253.868ZM262.506 263.866C261.594 264.766 260.478 265.216 259.158 265.216C257.838 265.216 256.716 264.766 255.792 263.866C254.88 262.954 254.424 261.832 254.424 260.5C254.424 259.168 254.88 258.052 255.792 257.152C256.716 256.24 257.838 255.784 259.158 255.784C260.478 255.784 261.594 256.24 262.506 257.152C263.43 258.052 263.892 259.168 263.892 260.5C263.892 261.832 263.43 262.954 262.506 263.866ZM256.638 263.038C257.322 263.722 258.162 264.064 259.158 264.064C260.154 264.064 260.994 263.722 261.678 263.038C262.362 262.342 262.704 261.496 262.704 260.5C262.704 259.504 262.362 258.664 261.678 257.98C260.994 257.284 260.154 256.936 259.158 256.936C258.162 256.936 257.322 257.284 256.638 257.98C255.954 258.664 255.612 259.504 255.612 260.5C255.612 261.496 255.954 262.342 256.638 263.038ZM270.704 255.784C271.988 255.784 273.08 256.24 273.98 257.152C274.892 258.064 275.348 259.18 275.348 260.5C275.348 261.82 274.892 262.936 273.98 263.848C273.08 264.76 271.988 265.216 270.704 265.216C269.108 265.216 267.896 264.556 267.068 263.236V268.6H265.88V256H267.068V257.764C267.896 256.444 269.108 255.784 270.704 255.784ZM268.094 263.038C268.778 263.722 269.618 264.064 270.614 264.064C271.61 264.064 272.45 263.722 273.134 263.038C273.818 262.342 274.16 261.496 274.16 260.5C274.16 259.504 273.818 258.664 273.134 257.98C272.45 257.284 271.61 256.936 270.614 256.936C269.618 256.936 268.778 257.284 268.094 257.98C267.41 258.664 267.068 259.504 267.068 260.5C267.068 261.496 267.41 262.342 268.094 263.038ZM284.865 263.866C283.953 264.766 282.837 265.216 281.517 265.216C280.197 265.216 279.075 264.766 278.151 263.866C277.239 262.954 276.783 261.832 276.783 260.5C276.783 259.168 277.239 258.052 278.151 257.152C279.075 256.24 280.197 255.784 281.517 255.784C282.837 255.784 283.953 256.24 284.865 257.152C285.789 258.052 286.251 259.168 286.251 260.5C286.251 261.832 285.789 262.954 284.865 263.866ZM278.997 263.038C279.681 263.722 280.521 264.064 281.517 264.064C282.513 264.064 283.353 263.722 284.037 263.038C284.721 262.342 285.063 261.496 285.063 260.5C285.063 259.504 284.721 258.664 284.037 257.98C283.353 257.284 282.513 256.936 281.517 256.936C280.521 256.936 279.681 257.284 278.997 257.98C278.313 258.664 277.971 259.504 277.971 260.5C277.971 261.496 278.313 262.342 278.997 263.038ZM293.963 260.374C294.947 260.734 295.439 261.436 295.439 262.48C295.439 263.212 295.193 263.818 294.701 264.298C294.221 264.766 293.525 265 292.613 265H288.239V256H292.253C293.129 256 293.807 256.228 294.287 256.684C294.767 257.128 295.007 257.704 295.007 258.412C295.007 259.312 294.659 259.966 293.963 260.374ZM292.253 257.152H289.427V259.888H292.253C293.297 259.888 293.819 259.42 293.819 258.484C293.819 258.064 293.681 257.74 293.405 257.512C293.141 257.272 292.757 257.152 292.253 257.152ZM292.613 263.848C293.141 263.848 293.543 263.722 293.819 263.47C294.107 263.218 294.251 262.864 294.251 262.408C294.251 261.988 294.107 261.658 293.819 261.418C293.543 261.166 293.141 261.04 292.613 261.04H289.427V263.848H292.613ZM307.463 260.374C308.447 260.734 308.939 261.436 308.939 262.48C308.939 263.212 308.693 263.818 308.201 264.298C307.721 264.766 307.025 265 306.113 265H301.739V256H305.753C306.629 256 307.307 256.228 307.787 256.684C308.267 257.128 308.507 257.704 308.507 258.412C308.507 259.312 308.159 259.966 307.463 260.374ZM305.753 257.152H302.927V259.888H305.753C306.797 259.888 307.319 259.42 307.319 258.484C307.319 258.064 307.181 257.74 306.905 257.512C306.641 257.272 306.257 257.152 305.753 257.152ZM306.113 263.848C306.641 263.848 307.043 263.722 307.319 263.47C307.607 263.218 307.751 262.864 307.751 262.408C307.751 261.988 307.607 261.658 307.319 261.418C307.043 261.166 306.641 261.04 306.113 261.04H302.927V263.848H306.113ZM321.305 265.216C319.397 265.216 317.819 264.586 316.571 263.326C315.323 262.066 314.699 260.524 314.699 258.7C314.699 256.876 315.323 255.334 316.571 254.074C317.819 252.814 319.397 252.184 321.305 252.184C322.469 252.184 323.537 252.466 324.509 253.03C325.481 253.582 326.231 254.332 326.759 255.28L325.643 255.928C325.247 255.16 324.659 254.548 323.879 254.092C323.099 253.636 322.241 253.408 321.305 253.408C319.733 253.408 318.449 253.918 317.453 254.938C316.457 255.958 315.959 257.212 315.959 258.7C315.959 260.188 316.457 261.442 317.453 262.462C318.449 263.482 319.733 263.992 321.305 263.992C322.241 263.992 323.099 263.764 323.879 263.308C324.659 262.852 325.247 262.24 325.643 261.472L326.759 262.102C326.243 263.05 325.493 263.806 324.509 264.37C323.537 264.934 322.469 265.216 321.305 265.216ZM336.932 252.4H338.192V265H336.932V259.114H330.092V265H328.832V252.4H330.092V257.926H336.932V252.4ZM348.086 252.4V253.588H342.326V265H341.066V252.4H348.086Z" fill="#757472"/>
</svg>
