<svg width="548" height="394" viewBox="0 0 548 394" fill="none" xmlns="http://www.w3.org/2000/svg">
<path fill-rule="evenodd" clip-rule="evenodd" d="M509.927 176.944C545.061 127.953 556.613 80.8775 536.241 45.592C515.869 10.3065 469.324 -3.2269 409.33 2.70421C349.406 8.6284 276.433 33.958 203.809 75.8874C131.185 117.817 72.762 168.349 37.6695 217.282C2.53596 266.273 -9.01627 313.349 11.3558 348.635C31.728 383.92 78.2729 397.454 138.267 391.522C198.191 385.598 271.164 360.269 343.788 318.339C416.412 276.41 474.835 225.878 509.927 176.944ZM344.288 319.205C489.71 235.246 578.465 116.727 537.107 45.092C495.749 -26.5426 348.73 -8.93768 203.309 75.0214C57.8873 158.98 -30.8684 277.5 10.4898 349.135C51.8481 420.769 198.867 403.164 344.288 319.205Z" fill="#D5D4D4"/>
<path fill-rule="evenodd" clip-rule="evenodd" d="M267.159 134.713V134.085C267.159 132.797 267.691 131.629 268.55 130.782C269.412 129.935 270.599 129.412 271.908 129.412C273.218 129.412 274.405 129.935 275.265 130.781C276.126 131.629 276.658 132.797 276.658 134.085V134.678H275.754V134.085C275.754 133.039 275.324 132.093 274.629 131.409C273.933 130.724 272.972 130.301 271.908 130.301C270.845 130.301 269.883 130.724 269.189 131.408C268.492 132.093 268.063 133.039 268.063 134.085V134.713H267.159ZM221.992 138.04H222.975V157.96H221.992V138.04ZM246.545 138.04V157.96H245.736L231.362 139.804V157.96H230.378V138.04H231.188L245.562 156.196V138.04H246.545ZM259.068 158.074C257.603 158.074 256.21 157.818 254.889 157.306C253.568 156.793 252.551 156.129 251.838 155.313L252.358 154.63C253.033 155.389 253.973 156.011 255.178 156.495C256.383 156.978 257.67 157.22 259.039 157.22C261.063 157.22 262.591 156.826 263.623 156.039C264.654 155.252 265.17 154.242 265.17 153.008C265.17 152.06 264.9 151.296 264.36 150.717C263.82 150.139 263.155 149.702 262.365 149.409C261.574 149.115 260.494 148.806 259.126 148.484C257.66 148.123 256.484 147.772 255.597 147.431C254.71 147.089 253.959 146.567 253.341 145.866C252.724 145.163 252.416 144.224 252.416 143.048C252.416 142.119 252.667 141.265 253.168 140.487C253.669 139.709 254.436 139.088 255.467 138.623C256.499 138.158 257.786 137.926 259.328 137.926C260.427 137.926 261.512 138.087 262.581 138.41C263.652 138.732 264.563 139.178 265.315 139.747L264.881 140.515C264.09 139.946 263.208 139.515 262.234 139.221C261.261 138.927 260.302 138.779 259.357 138.779C257.391 138.779 255.901 139.183 254.889 139.989C253.877 140.795 253.37 141.815 253.37 143.048C253.37 144.016 253.645 144.789 254.195 145.367C254.744 145.946 255.419 146.387 256.219 146.691C257.019 146.994 258.094 147.307 259.444 147.63C260.909 147.99 262.085 148.336 262.972 148.668C263.859 149.001 264.606 149.513 265.213 150.205C265.821 150.898 266.124 151.823 266.124 152.98C266.124 153.909 265.869 154.763 265.358 155.541C264.847 156.319 264.061 156.936 263.001 157.391C261.941 157.846 260.629 158.074 259.068 158.074ZM271.417 138.04H272.4V157.96H271.417V138.04ZM294.437 148.142H295.363V155.513C294.476 156.347 293.42 156.983 292.196 157.419C290.972 157.856 289.665 158.074 288.277 158.074C286.291 158.074 284.498 157.637 282.898 156.765C281.298 155.892 280.04 154.687 279.124 153.151C278.208 151.614 277.75 149.897 277.75 148C277.75 146.103 278.208 144.386 279.124 142.849C280.04 141.312 281.298 140.108 282.898 139.235C284.498 138.362 286.291 137.926 288.277 137.926C289.723 137.926 291.054 138.144 292.268 138.58C293.483 139.017 294.524 139.671 295.392 140.544L294.813 141.198C293.136 139.605 290.967 138.808 288.306 138.808C286.494 138.808 284.86 139.211 283.404 140.017C281.949 140.824 280.806 141.929 279.977 143.333C279.148 144.737 278.734 146.292 278.734 148C278.734 149.707 279.148 151.263 279.977 152.667C280.806 154.071 281.949 155.176 283.404 155.982C284.86 156.789 286.494 157.192 288.306 157.192C290.832 157.192 292.876 156.499 294.437 155.114V148.142ZM318.354 138.04V157.96H317.371V148.284H303.171V157.96H302.188V138.04H303.171V147.402H317.371V138.04H318.354ZM329.605 138.922H322.172V138.04H337.992V138.922H330.559V157.96H329.605V138.922ZM274.966 127.987L279.654 119.996L280.434 120.442L275.746 128.432L274.966 127.987ZM277.654 130.309L285.774 125.696L286.226 126.463L278.106 131.077L277.654 130.309ZM278.803 133.64H288.18V134.53H278.803V133.64ZM265.013 134.53H255.637V133.64H265.013V134.53ZM265.711 131.077L257.591 126.463L258.043 125.696L266.163 130.309L265.711 131.077ZM268.071 128.432L263.382 120.442L264.163 119.996L268.851 127.987L268.071 128.432ZM271.456 127.3V118.074H272.36V127.3H271.456Z" fill="#54524F"/>
<path d="M155.862 187.54C156.474 187.804 156.96 188.206 157.32 188.746C157.692 189.274 157.878 189.88 157.878 190.564C157.878 191.536 157.536 192.364 156.852 193.048C156.168 193.732 155.34 194.074 154.368 194.074H148.878V181.474H153.954C154.89 181.474 155.688 181.81 156.348 182.482C157.008 183.142 157.338 183.934 157.338 184.858C157.338 186.034 156.846 186.928 155.862 187.54ZM153.954 182.662H150.138V187.054H153.954C154.542 187.054 155.04 186.844 155.448 186.424C155.868 185.992 156.078 185.47 156.078 184.858C156.078 184.258 155.868 183.742 155.448 183.31C155.04 182.878 154.542 182.662 153.954 182.662ZM154.368 192.886C154.992 192.886 155.52 192.664 155.952 192.22C156.396 191.764 156.618 191.212 156.618 190.564C156.618 189.928 156.396 189.382 155.952 188.926C155.52 188.47 154.992 188.242 154.368 188.242H150.138V192.886H154.368Z" fill="#54524F"/>
<path d="M167.068 194.074H165.646L162.838 190.366L160.03 194.074H158.608L162.136 189.412L158.842 185.074H160.264L162.838 188.476L165.412 185.074H166.834L163.558 189.412L167.068 194.074Z" fill="#54524F"/>
<path d="M175.593 192.94C174.681 193.84 173.565 194.29 172.245 194.29C170.925 194.29 169.803 193.84 168.879 192.94C167.967 192.028 167.511 190.906 167.511 189.574C167.511 188.242 167.967 187.126 168.879 186.226C169.803 185.314 170.925 184.858 172.245 184.858C173.565 184.858 174.681 185.314 175.593 186.226C176.517 187.126 176.979 188.242 176.979 189.574C176.979 190.906 176.517 192.028 175.593 192.94ZM169.725 192.112C170.409 192.796 171.249 193.138 172.245 193.138C173.241 193.138 174.081 192.796 174.765 192.112C175.449 191.416 175.791 190.57 175.791 189.574C175.791 188.578 175.449 187.738 174.765 187.054C174.081 186.358 173.241 186.01 172.245 186.01C171.249 186.01 170.409 186.358 169.725 187.054C169.041 187.738 168.699 188.578 168.699 189.574C168.699 190.57 169.041 191.416 169.725 192.112Z" fill="#54524F"/>
<path d="M186.176 192.922H187.436V196.486H186.248V194.074H178.904V196.486H177.716V192.922H178.814C179.426 192.118 179.732 190.984 179.732 189.52V185.074H186.176V192.922ZM180.254 192.922H184.988V186.226H180.92V189.52C180.92 190.9 180.698 192.034 180.254 192.922Z" fill="#54524F"/>
<path d="M195.785 185.074H196.793V194.074H195.605V187.144L190.241 194.074H189.233V185.074H190.421V192.004L195.785 185.074Z" fill="#54524F"/>
<path d="M208.125 185.074V194.074H206.937V186.892L203.787 192.004H203.643L200.493 186.892V194.074H199.305V185.074H200.673L203.715 190.006L206.757 185.074H208.125Z" fill="#54524F"/>
<path d="M220.867 189.448C221.851 189.808 222.343 190.51 222.343 191.554C222.343 192.286 222.097 192.892 221.605 193.372C221.125 193.84 220.429 194.074 219.517 194.074H215.143V185.074H219.157C220.033 185.074 220.711 185.302 221.191 185.758C221.671 186.202 221.911 186.778 221.911 187.486C221.911 188.386 221.563 189.04 220.867 189.448ZM219.157 186.226H216.331V188.962H219.157C220.201 188.962 220.723 188.494 220.723 187.558C220.723 187.138 220.585 186.814 220.309 186.586C220.045 186.346 219.661 186.226 219.157 186.226ZM219.517 192.922C220.045 192.922 220.447 192.796 220.723 192.544C221.011 192.292 221.155 191.938 221.155 191.482C221.155 191.062 221.011 190.732 220.723 190.492C220.447 190.24 220.045 190.114 219.517 190.114H216.331V192.922H219.517Z" fill="#54524F"/>
<path d="M236.743 181.474V182.662H232.873V194.074H231.613V182.662H227.743V181.474H236.743Z" fill="#54524F"/>
<path d="M248.245 192.4C246.985 193.66 245.443 194.29 243.619 194.29C241.795 194.29 240.253 193.66 238.993 192.4C237.733 191.128 237.103 189.586 237.103 187.774C237.103 185.962 237.733 184.426 238.993 183.166C240.253 181.894 241.795 181.258 243.619 181.258C245.443 181.258 246.985 181.894 248.245 183.166C249.505 184.426 250.135 185.962 250.135 187.774C250.135 189.586 249.505 191.128 248.245 192.4ZM239.875 191.536C240.883 192.556 242.131 193.066 243.619 193.066C245.107 193.066 246.355 192.556 247.363 191.536C248.371 190.504 248.875 189.25 248.875 187.774C248.875 186.298 248.371 185.05 247.363 184.03C246.355 182.998 245.107 182.482 243.619 182.482C242.131 182.482 240.883 182.998 239.875 184.03C238.867 185.05 238.363 186.298 238.363 187.774C238.363 189.25 238.867 190.504 239.875 191.536Z" fill="#54524F"/>
<path d="M261.29 181.474V194.074H260.03V182.662H253.55V194.074H252.29V181.474H261.29Z" fill="#54524F"/>
<path d="M264.173 189.088V187.936H270.653V189.088H264.173Z" fill="#54524F"/>
<path d="M276.854 186.55C278.03 186.55 279.026 186.898 279.842 187.594C280.67 188.278 281.084 189.22 281.084 190.42C281.084 191.62 280.67 192.568 279.842 193.264C279.026 193.948 278.03 194.29 276.854 194.29C275.906 194.29 275.06 194.062 274.316 193.606C273.572 193.138 273.068 192.472 272.804 191.608L273.866 190.996C274.046 191.668 274.4 192.184 274.928 192.544C275.468 192.892 276.11 193.066 276.854 193.066C277.718 193.066 278.426 192.838 278.978 192.382C279.542 191.914 279.824 191.26 279.824 190.42C279.824 189.58 279.542 188.932 278.978 188.476C278.426 188.008 277.718 187.774 276.854 187.774H273.434L273.884 181.474H280.634V182.662H275L274.73 186.55H276.854Z" fill="#54524F"/>
<path d="M290.809 192.526C289.981 193.702 288.811 194.29 287.299 194.29C285.787 194.29 284.611 193.702 283.771 192.526C282.943 191.338 282.529 189.754 282.529 187.774C282.529 185.794 282.943 184.216 283.771 183.04C284.611 181.852 285.787 181.258 287.299 181.258C288.811 181.258 289.981 181.852 290.809 183.04C291.649 184.216 292.069 185.794 292.069 187.774C292.069 189.754 291.649 191.338 290.809 192.526ZM284.707 191.68C285.331 192.604 286.195 193.066 287.299 193.066C288.403 193.066 289.261 192.604 289.873 191.68C290.497 190.756 290.809 189.454 290.809 187.774C290.809 186.094 290.497 184.792 289.873 183.868C289.261 182.944 288.403 182.482 287.299 182.482C286.195 182.482 285.331 182.944 284.707 183.868C284.095 184.792 283.789 186.094 283.789 187.774C283.789 189.454 284.095 190.756 284.707 191.68Z" fill="#54524F"/>
<path d="M305.207 185.074V186.226H302.021V194.074H300.833V186.226H297.647V185.074H305.207Z" fill="#54524F"/>
<path d="M310.461 184.858C311.793 184.858 312.867 185.332 313.683 186.28C314.511 187.216 314.925 188.326 314.925 189.61C314.925 189.742 314.913 189.928 314.889 190.168H306.987C307.107 191.08 307.491 191.806 308.139 192.346C308.799 192.874 309.609 193.138 310.569 193.138C311.253 193.138 311.841 193 312.333 192.724C312.837 192.436 313.215 192.064 313.467 191.608L314.511 192.22C314.115 192.856 313.575 193.36 312.891 193.732C312.207 194.104 311.427 194.29 310.551 194.29C309.135 194.29 307.983 193.846 307.095 192.958C306.207 192.07 305.763 190.942 305.763 189.574C305.763 188.23 306.201 187.108 307.077 186.208C307.953 185.308 309.081 184.858 310.461 184.858ZM310.461 186.01C309.525 186.01 308.739 186.292 308.103 186.856C307.479 187.408 307.107 188.128 306.987 189.016H313.701C313.581 188.068 313.215 187.33 312.603 186.802C311.991 186.274 311.277 186.01 310.461 186.01Z" fill="#54524F"/>
<path d="M324.087 194.074H322.503L318.003 189.736V194.074H316.815V185.074H318.003V189.052L322.287 185.074H323.907L319.263 189.394L324.087 194.074Z" fill="#54524F"/>
<path d="M329.007 194.29C327.651 194.29 326.523 193.84 325.623 192.94C324.723 192.028 324.273 190.906 324.273 189.574C324.273 188.242 324.723 187.126 325.623 186.226C326.523 185.314 327.651 184.858 329.007 184.858C329.895 184.858 330.693 185.074 331.401 185.506C332.109 185.926 332.625 186.496 332.949 187.216L331.977 187.774C331.737 187.234 331.347 186.808 330.807 186.496C330.279 186.172 329.679 186.01 329.007 186.01C328.011 186.01 327.171 186.358 326.487 187.054C325.803 187.738 325.461 188.578 325.461 189.574C325.461 190.57 325.803 191.416 326.487 192.112C327.171 192.796 328.011 193.138 329.007 193.138C329.679 193.138 330.279 192.982 330.807 192.67C331.335 192.346 331.749 191.914 332.049 191.374L333.039 191.95C332.667 192.67 332.121 193.24 331.401 193.66C330.681 194.08 329.883 194.29 329.007 194.29Z" fill="#54524F"/>
<path d="M341.049 185.074V186.226H337.863V194.074H336.675V186.226H333.489V185.074H341.049Z" fill="#54524F"/>
<path d="M349.049 185.074H350.057V194.074H348.869V187.144L343.505 194.074H342.497V185.074H343.685V192.004L349.049 185.074Z" fill="#54524F"/>
<path d="M359.949 185.074V194.074H358.761V186.226H354.693V190.24C354.693 191.74 354.405 192.772 353.829 193.336C353.265 193.9 352.485 194.146 351.489 194.074V192.958C352.173 193.03 352.677 192.868 353.001 192.472C353.337 192.076 353.505 191.332 353.505 190.24V185.074H359.949Z" fill="#54524F"/>
<path d="M366.119 188.494C366.959 188.494 367.667 188.758 368.243 189.286C368.831 189.802 369.125 190.468 369.125 191.284C369.125 192.1 368.831 192.772 368.243 193.3C367.667 193.816 366.959 194.074 366.119 194.074H362.465V185.074H363.653V188.494H366.119ZM366.119 192.922C366.623 192.922 367.049 192.772 367.397 192.472C367.757 192.172 367.937 191.776 367.937 191.284C367.937 190.792 367.757 190.396 367.397 190.096C367.049 189.796 366.623 189.646 366.119 189.646H363.653V192.922H366.119Z" fill="#54524F"/>
<path d="M377.293 185.074H378.48V194.074H377.293V190.15H372.108V194.074H370.921V185.074H372.108V188.998H377.293V185.074Z" fill="#54524F"/>
<path d="M384.647 188.494C385.487 188.494 386.195 188.758 386.771 189.286C387.359 189.802 387.653 190.468 387.653 191.284C387.653 192.1 387.359 192.772 386.771 193.3C386.195 193.816 385.487 194.074 384.647 194.074H380.993V185.074H382.181V188.494H384.647ZM388.913 185.074H390.101V194.074H388.913V185.074ZM384.647 192.922C385.151 192.922 385.577 192.772 385.925 192.472C386.285 192.172 386.465 191.776 386.465 191.284C386.465 190.792 386.285 190.396 385.925 190.096C385.577 189.796 385.151 189.646 384.647 189.646H382.181V192.922H384.647Z" fill="#54524F"/>
<path d="M400.189 194.074H398.767L395.96 190.366L393.151 194.074H391.729L395.258 189.412L391.964 185.074H393.385L395.96 188.476L398.533 185.074H399.956L396.68 189.412L400.189 194.074Z" fill="#54524F"/>
<path d="M133.002 217.922H134.262V221.486H133.074V219.074H125.73V221.486H124.542V217.922H125.64C126.252 217.118 126.558 215.984 126.558 214.52V210.074H133.002V217.922ZM127.08 217.922H131.814V211.226H127.746V214.52C127.746 215.9 127.524 217.034 127.08 217.922Z" fill="#54524F"/>
<path d="M139.866 209.858C141.198 209.858 142.272 210.332 143.088 211.28C143.916 212.216 144.33 213.326 144.33 214.61C144.33 214.742 144.318 214.928 144.294 215.168H136.392C136.512 216.08 136.896 216.806 137.544 217.346C138.204 217.874 139.014 218.138 139.974 218.138C140.658 218.138 141.246 218 141.738 217.724C142.242 217.436 142.62 217.064 142.872 216.608L143.916 217.22C143.52 217.856 142.98 218.36 142.296 218.732C141.612 219.104 140.832 219.29 139.956 219.29C138.54 219.29 137.388 218.846 136.5 217.958C135.612 217.07 135.168 215.942 135.168 214.574C135.168 213.23 135.606 212.108 136.482 211.208C137.358 210.308 138.486 209.858 139.866 209.858ZM139.866 211.01C138.93 211.01 138.144 211.292 137.508 211.856C136.884 212.408 136.512 213.128 136.392 214.016H143.106C142.986 213.068 142.62 212.33 142.008 211.802C141.396 211.274 140.682 211.01 139.866 211.01Z" fill="#54524F"/>
<path d="M153.491 219.074H151.907L147.407 214.736V219.074H146.219V210.074H147.407V214.052L151.691 210.074H153.311L148.667 214.394L153.491 219.074Z" fill="#54524F"/>
<path d="M161.759 217.94C160.847 218.84 159.731 219.29 158.411 219.29C157.091 219.29 155.969 218.84 155.045 217.94C154.133 217.028 153.677 215.906 153.677 214.574C153.677 213.242 154.133 212.126 155.045 211.226C155.969 210.314 157.091 209.858 158.411 209.858C159.731 209.858 160.847 210.314 161.759 211.226C162.683 212.126 163.145 213.242 163.145 214.574C163.145 215.906 162.683 217.028 161.759 217.94ZM155.891 217.112C156.575 217.796 157.415 218.138 158.411 218.138C159.407 218.138 160.247 217.796 160.931 217.112C161.615 216.416 161.957 215.57 161.957 214.574C161.957 213.578 161.615 212.738 160.931 212.054C160.247 211.358 159.407 211.01 158.411 211.01C157.415 211.01 156.575 211.358 155.891 212.054C155.207 212.738 154.865 213.578 154.865 214.574C154.865 215.57 155.207 216.416 155.891 217.112Z" fill="#54524F"/>
<path d="M169.957 209.858C171.241 209.858 172.333 210.314 173.233 211.226C174.145 212.138 174.601 213.254 174.601 214.574C174.601 215.894 174.145 217.01 173.233 217.922C172.333 218.834 171.241 219.29 169.957 219.29C168.361 219.29 167.149 218.63 166.321 217.31V222.674H165.133V210.074H166.321V211.838C167.149 210.518 168.361 209.858 169.957 209.858ZM167.347 217.112C168.031 217.796 168.871 218.138 169.867 218.138C170.863 218.138 171.703 217.796 172.387 217.112C173.071 216.416 173.413 215.57 173.413 214.574C173.413 213.578 173.071 212.738 172.387 212.054C171.703 211.358 170.863 211.01 169.867 211.01C168.871 211.01 168.031 211.358 167.347 212.054C166.663 212.738 166.321 213.578 166.321 214.574C166.321 215.57 166.663 216.416 167.347 217.112Z" fill="#54524F"/>
<path d="M184.317 210.074H185.505V219.074H184.317V217.31C183.489 218.63 182.277 219.29 180.681 219.29C179.397 219.29 178.299 218.834 177.387 217.922C176.487 217.01 176.037 215.894 176.037 214.574C176.037 213.254 176.487 212.138 177.387 211.226C178.299 210.314 179.397 209.858 180.681 209.858C182.277 209.858 183.489 210.518 184.317 211.838V210.074ZM178.251 217.112C178.935 217.796 179.775 218.138 180.771 218.138C181.767 218.138 182.607 217.796 183.291 217.112C183.975 216.416 184.317 215.57 184.317 214.574C184.317 213.578 183.975 212.738 183.291 212.054C182.607 211.358 181.767 211.01 180.771 211.01C179.775 211.01 178.935 211.358 178.251 212.054C177.567 212.738 177.225 213.578 177.225 214.574C177.225 215.57 177.567 216.416 178.251 217.112Z" fill="#54524F"/>
<path d="M194.5 210.074V211.226H191.314V219.074H190.126V211.226H186.94V210.074H194.5Z" fill="#54524F"/>
<path d="M203.138 217.94C202.226 218.84 201.11 219.29 199.79 219.29C198.47 219.29 197.348 218.84 196.424 217.94C195.512 217.028 195.056 215.906 195.056 214.574C195.056 213.242 195.512 212.126 196.424 211.226C197.348 210.314 198.47 209.858 199.79 209.858C201.11 209.858 202.226 210.314 203.138 211.226C204.062 212.126 204.524 213.242 204.524 214.574C204.524 215.906 204.062 217.028 203.138 217.94ZM197.27 217.112C197.954 217.796 198.794 218.138 199.79 218.138C200.786 218.138 201.626 217.796 202.31 217.112C202.994 216.416 203.336 215.57 203.336 214.574C203.336 213.578 202.994 212.738 202.31 212.054C201.626 211.358 200.786 211.01 199.79 211.01C198.794 211.01 197.954 211.358 197.27 212.054C196.586 212.738 196.244 213.578 196.244 214.574C196.244 215.57 196.586 216.416 197.27 217.112Z" fill="#54524F"/>
<path d="M211.336 209.858C212.62 209.858 213.712 210.314 214.612 211.226C215.524 212.138 215.98 213.254 215.98 214.574C215.98 215.894 215.524 217.01 214.612 217.922C213.712 218.834 212.62 219.29 211.336 219.29C209.74 219.29 208.528 218.63 207.7 217.31V222.674H206.512V210.074H207.7V211.838C208.528 210.518 209.74 209.858 211.336 209.858ZM208.726 217.112C209.41 217.796 210.25 218.138 211.246 218.138C212.242 218.138 213.082 217.796 213.766 217.112C214.45 216.416 214.792 215.57 214.792 214.574C214.792 213.578 214.45 212.738 213.766 212.054C213.082 211.358 212.242 211.01 211.246 211.01C210.25 211.01 209.41 211.358 208.726 212.054C208.042 212.738 207.7 213.578 207.7 214.574C207.7 215.57 208.042 216.416 208.726 217.112Z" fill="#54524F"/>
<path d="M225.498 217.94C224.586 218.84 223.47 219.29 222.15 219.29C220.83 219.29 219.708 218.84 218.784 217.94C217.872 217.028 217.416 215.906 217.416 214.574C217.416 213.242 217.872 212.126 218.784 211.226C219.708 210.314 220.83 209.858 222.15 209.858C223.47 209.858 224.586 210.314 225.498 211.226C226.422 212.126 226.884 213.242 226.884 214.574C226.884 215.906 226.422 217.028 225.498 217.94ZM219.63 217.112C220.314 217.796 221.154 218.138 222.15 218.138C223.146 218.138 223.986 217.796 224.67 217.112C225.354 216.416 225.696 215.57 225.696 214.574C225.696 213.578 225.354 212.738 224.67 212.054C223.986 211.358 223.146 211.01 222.15 211.01C221.154 211.01 220.314 211.358 219.63 212.054C218.946 212.738 218.604 213.578 218.604 214.574C218.604 215.57 218.946 216.416 219.63 217.112Z" fill="#54524F"/>
<path d="M234.596 214.448C235.58 214.808 236.072 215.51 236.072 216.554C236.072 217.286 235.826 217.892 235.334 218.372C234.854 218.84 234.158 219.074 233.246 219.074H228.872V210.074H232.886C233.762 210.074 234.44 210.302 234.92 210.758C235.4 211.202 235.64 211.778 235.64 212.486C235.64 213.386 235.292 214.04 234.596 214.448ZM232.886 211.226H230.06V213.962H232.886C233.93 213.962 234.452 213.494 234.452 212.558C234.452 212.138 234.314 211.814 234.038 211.586C233.774 211.346 233.39 211.226 232.886 211.226ZM233.246 217.922C233.774 217.922 234.176 217.796 234.452 217.544C234.74 217.292 234.884 216.938 234.884 216.482C234.884 216.062 234.74 215.732 234.452 215.492C234.176 215.24 233.774 215.114 233.246 215.114H230.06V217.922H233.246Z" fill="#54524F"/>
<path d="M248.096 214.448C249.08 214.808 249.572 215.51 249.572 216.554C249.572 217.286 249.326 217.892 248.834 218.372C248.354 218.84 247.658 219.074 246.746 219.074H242.372V210.074H246.386C247.262 210.074 247.94 210.302 248.42 210.758C248.9 211.202 249.14 211.778 249.14 212.486C249.14 213.386 248.792 214.04 248.096 214.448ZM246.386 211.226H243.56V213.962H246.386C247.43 213.962 247.952 213.494 247.952 212.558C247.952 212.138 247.814 211.814 247.538 211.586C247.274 211.346 246.89 211.226 246.386 211.226ZM246.746 217.922C247.274 217.922 247.676 217.796 247.952 217.544C248.24 217.292 248.384 216.938 248.384 216.482C248.384 216.062 248.24 215.732 247.952 215.492C247.676 215.24 247.274 215.114 246.746 215.114H243.56V217.922H246.746Z" fill="#54524F"/>
<path d="M261.938 219.29C260.03 219.29 258.452 218.66 257.204 217.4C255.956 216.14 255.332 214.598 255.332 212.774C255.332 210.95 255.956 209.408 257.204 208.148C258.452 206.888 260.03 206.258 261.938 206.258C263.102 206.258 264.17 206.54 265.142 207.104C266.114 207.656 266.864 208.406 267.392 209.354L266.276 210.002C265.88 209.234 265.292 208.622 264.512 208.166C263.732 207.71 262.874 207.482 261.938 207.482C260.366 207.482 259.082 207.992 258.086 209.012C257.09 210.032 256.592 211.286 256.592 212.774C256.592 214.262 257.09 215.516 258.086 216.536C259.082 217.556 260.366 218.066 261.938 218.066C262.874 218.066 263.732 217.838 264.512 217.382C265.292 216.926 265.88 216.314 266.276 215.546L267.392 216.176C266.876 217.124 266.126 217.88 265.142 218.444C264.17 219.008 263.102 219.29 261.938 219.29Z" fill="#54524F"/>
<path d="M277.564 206.474H278.824V219.074H277.564V213.188H270.724V219.074H269.464V206.474H270.724V212H277.564V206.474Z" fill="#54524F"/>
<path d="M288.718 206.474V207.662H282.958V219.074H281.698V206.474H288.718Z" fill="#54524F"/>
<path d="M302.402 210.074V219.074H301.214V211.226H296.03V219.074H294.842V210.074H302.402Z" fill="#54524F"/>
<path d="M312.457 217.94C311.545 218.84 310.429 219.29 309.109 219.29C307.789 219.29 306.667 218.84 305.743 217.94C304.831 217.028 304.375 215.906 304.375 214.574C304.375 213.242 304.831 212.126 305.743 211.226C306.667 210.314 307.789 209.858 309.109 209.858C310.429 209.858 311.545 210.314 312.457 211.226C313.381 212.126 313.843 213.242 313.843 214.574C313.843 215.906 313.381 217.028 312.457 217.94ZM306.589 217.112C307.273 217.796 308.113 218.138 309.109 218.138C310.105 218.138 310.945 217.796 311.629 217.112C312.313 216.416 312.655 215.57 312.655 214.574C312.655 213.578 312.313 212.738 311.629 212.054C310.945 211.358 310.105 211.01 309.109 211.01C308.113 211.01 307.273 211.358 306.589 212.054C305.905 212.738 305.563 213.578 305.563 214.574C305.563 215.57 305.905 216.416 306.589 217.112Z" fill="#54524F"/>
<path d="M325.155 209.858C326.439 209.858 327.531 210.314 328.431 211.226C329.343 212.138 329.799 213.254 329.799 214.574C329.799 215.894 329.343 217.01 328.431 217.922C327.531 218.834 326.439 219.29 325.155 219.29C323.559 219.29 322.347 218.63 321.519 217.31V222.674H320.331V210.074H321.519V211.838C322.347 210.518 323.559 209.858 325.155 209.858ZM322.545 217.112C323.229 217.796 324.069 218.138 325.065 218.138C326.061 218.138 326.901 217.796 327.585 217.112C328.269 216.416 328.611 215.57 328.611 214.574C328.611 213.578 328.269 212.738 327.585 212.054C326.901 211.358 326.061 211.01 325.065 211.01C324.069 211.01 323.229 211.358 322.545 212.054C321.861 212.738 321.519 213.578 321.519 214.574C321.519 215.57 321.861 216.416 322.545 217.112Z" fill="#54524F"/>
<path d="M335.932 209.858C337.264 209.858 338.338 210.332 339.154 211.28C339.982 212.216 340.396 213.326 340.396 214.61C340.396 214.742 340.384 214.928 340.36 215.168H332.458C332.578 216.08 332.962 216.806 333.61 217.346C334.27 217.874 335.08 218.138 336.04 218.138C336.724 218.138 337.312 218 337.804 217.724C338.308 217.436 338.686 217.064 338.938 216.608L339.982 217.22C339.586 217.856 339.046 218.36 338.362 218.732C337.678 219.104 336.898 219.29 336.022 219.29C334.606 219.29 333.454 218.846 332.566 217.958C331.678 217.07 331.234 215.942 331.234 214.574C331.234 213.23 331.672 212.108 332.548 211.208C333.424 210.308 334.552 209.858 335.932 209.858ZM335.932 211.01C334.996 211.01 334.21 211.292 333.574 211.856C332.95 212.408 332.578 213.128 332.458 214.016H339.172C339.052 213.068 338.686 212.33 338.074 211.802C337.462 211.274 336.748 211.01 335.932 211.01Z" fill="#54524F"/>
<path d="M346.754 214.448C347.798 214.844 348.32 215.564 348.32 216.608C348.32 217.352 348.026 217.988 347.438 218.516C346.862 219.032 346.034 219.29 344.954 219.29C343.142 219.29 341.954 218.57 341.39 217.13L342.398 216.536C342.77 217.604 343.622 218.138 344.954 218.138C345.65 218.138 346.184 217.988 346.556 217.688C346.94 217.388 347.132 217.004 347.132 216.536C347.132 216.116 346.976 215.774 346.664 215.51C346.352 215.246 345.932 215.114 345.404 215.114H344.09V213.962H345.044C345.56 213.962 345.962 213.836 346.25 213.584C346.55 213.32 346.7 212.96 346.7 212.504C346.7 212.072 346.526 211.718 346.178 211.442C345.83 211.154 345.362 211.01 344.774 211.01C343.646 211.01 342.896 211.46 342.524 212.36L341.534 211.784C342.134 210.5 343.214 209.858 344.774 209.858C345.722 209.858 346.478 210.11 347.042 210.614C347.606 211.106 347.888 211.712 347.888 212.432C347.888 213.356 347.51 214.028 346.754 214.448Z" fill="#54524F"/>
<path d="M356.254 210.074H357.514L353.662 219.902C353.314 220.79 352.816 221.486 352.168 221.99C351.532 222.506 350.818 222.734 350.026 222.674V221.558C351.106 221.678 351.928 221.054 352.492 219.686L352.726 219.128L348.694 210.074H349.954L353.338 217.616L356.254 210.074Z" fill="#54524F"/>
<path d="M365.785 210.074V219.074H364.597V211.226H360.529V215.24C360.529 216.74 360.241 217.772 359.665 218.336C359.101 218.9 358.321 219.146 357.325 219.074V217.958C358.009 218.03 358.513 217.868 358.837 217.472C359.173 217.076 359.341 216.332 359.341 215.24V210.074H365.785Z" fill="#54524F"/>
<path d="M371.955 213.494C372.795 213.494 373.503 213.758 374.079 214.286C374.667 214.802 374.961 215.468 374.961 216.284C374.961 217.1 374.667 217.772 374.079 218.3C373.503 218.816 372.795 219.074 371.955 219.074H368.301V210.074H369.489V213.494H371.955ZM371.955 217.922C372.459 217.922 372.885 217.772 373.233 217.472C373.593 217.172 373.773 216.776 373.773 216.284C373.773 215.792 373.593 215.396 373.233 215.096C372.885 214.796 372.459 214.646 371.955 214.646H369.489V217.922H371.955Z" fill="#54524F"/>
<path d="M382.164 210.074V211.226H378.978V219.074H377.79V211.226H374.604V210.074H382.164Z" fill="#54524F"/>
<path d="M391 210.074H392.188V219.074H391V217.31C390.172 218.63 388.96 219.29 387.364 219.29C386.08 219.29 384.982 218.834 384.07 217.922C383.17 217.01 382.72 215.894 382.72 214.574C382.72 213.254 383.17 212.138 384.07 211.226C384.982 210.314 386.08 209.858 387.364 209.858C388.96 209.858 390.172 210.518 391 211.838V210.074ZM384.934 217.112C385.618 217.796 386.458 218.138 387.454 218.138C388.45 218.138 389.29 217.796 389.974 217.112C390.658 216.416 391 215.57 391 214.574C391 213.578 390.658 212.738 389.974 212.054C389.29 211.358 388.45 211.01 387.454 211.01C386.458 211.01 385.618 211.358 384.934 212.054C384.25 212.738 383.908 213.578 383.908 214.574C383.908 215.57 384.25 216.416 384.934 217.112Z" fill="#54524F"/>
<path d="M401.184 210.074V211.226H397.998V219.074H396.81V211.226H393.624V210.074H401.184Z" fill="#54524F"/>
<path d="M410.02 210.074H411.208V219.074H410.02V217.31C409.192 218.63 407.98 219.29 406.384 219.29C405.1 219.29 404.002 218.834 403.09 217.922C402.19 217.01 401.74 215.894 401.74 214.574C401.74 213.254 402.19 212.138 403.09 211.226C404.002 210.314 405.1 209.858 406.384 209.858C407.98 209.858 409.192 210.518 410.02 211.838V210.074ZM403.954 217.112C404.638 217.796 405.478 218.138 406.474 218.138C407.47 218.138 408.31 217.796 408.994 217.112C409.678 216.416 410.02 215.57 410.02 214.574C410.02 213.578 409.678 212.738 408.994 212.054C408.31 211.358 407.47 211.01 406.474 211.01C405.478 211.01 404.638 211.358 403.954 212.054C403.27 212.738 402.928 213.578 402.928 214.574C402.928 215.57 403.27 216.416 403.954 217.112Z" fill="#54524F"/>
<path d="M422.543 210.074V219.074H421.355V211.892L418.205 217.004H418.061L414.911 211.892V219.074H413.723V210.074H415.091L418.133 215.006L421.175 210.074H422.543Z" fill="#54524F"/>
<path d="M141.686 235.074V244.074H140.498V236.226H135.314V244.074H134.126V235.074H141.686Z" fill="#54524F"/>
<path d="M149.022 234.858C150.306 234.858 151.398 235.314 152.298 236.226C153.21 237.138 153.666 238.254 153.666 239.574C153.666 240.894 153.21 242.01 152.298 242.922C151.398 243.834 150.306 244.29 149.022 244.29C147.426 244.29 146.214 243.63 145.386 242.31V247.674H144.198V235.074H145.386V236.838C146.214 235.518 147.426 234.858 149.022 234.858ZM146.412 242.112C147.096 242.796 147.936 243.138 148.932 243.138C149.928 243.138 150.768 242.796 151.452 242.112C152.136 241.416 152.478 240.57 152.478 239.574C152.478 238.578 152.136 237.738 151.452 237.054C150.768 236.358 149.928 236.01 148.932 236.01C147.936 236.01 147.096 236.358 146.412 237.054C145.728 237.738 145.386 238.578 145.386 239.574C145.386 240.57 145.728 241.416 146.412 242.112Z" fill="#54524F"/>
<path d="M159.799 234.858C161.131 234.858 162.205 235.332 163.021 236.28C163.849 237.216 164.263 238.326 164.263 239.61C164.263 239.742 164.251 239.928 164.227 240.168H156.325C156.445 241.08 156.829 241.806 157.477 242.346C158.137 242.874 158.947 243.138 159.907 243.138C160.591 243.138 161.179 243 161.671 242.724C162.175 242.436 162.553 242.064 162.805 241.608L163.849 242.22C163.453 242.856 162.913 243.36 162.229 243.732C161.545 244.104 160.765 244.29 159.889 244.29C158.473 244.29 157.321 243.846 156.433 242.958C155.545 242.07 155.101 240.942 155.101 239.574C155.101 238.23 155.539 237.108 156.415 236.208C157.291 235.308 158.419 234.858 159.799 234.858ZM159.799 236.01C158.863 236.01 158.077 236.292 157.441 236.856C156.817 237.408 156.445 238.128 156.325 239.016H163.039C162.919 238.068 162.553 237.33 161.941 236.802C161.329 236.274 160.615 236.01 159.799 236.01Z" fill="#54524F"/>
<path d="M174.973 235.074V244.074H173.785V236.892L170.635 242.004H170.491L167.341 236.892V244.074H166.153V235.074H167.521L170.563 240.006L173.605 235.074H174.973Z" fill="#54524F"/>
<path d="M184.043 235.074H185.051V244.074H183.863V237.144L178.499 244.074H177.491V235.074H178.679V242.004L184.043 235.074Z" fill="#54524F"/>
<path d="M194.115 235.074H195.123V244.074H193.935V237.144L188.571 244.074H187.563V235.074H188.751V242.004L194.115 235.074Z" fill="#54524F"/>
<path d="M208.615 235.074V236.226H205.429V244.074H204.241V236.226H201.055V235.074H208.615Z" fill="#54524F"/>
<path d="M213.87 234.858C215.202 234.858 216.276 235.332 217.092 236.28C217.92 237.216 218.334 238.326 218.334 239.61C218.334 239.742 218.322 239.928 218.298 240.168H210.396C210.516 241.08 210.9 241.806 211.548 242.346C212.208 242.874 213.018 243.138 213.978 243.138C214.662 243.138 215.25 243 215.742 242.724C216.246 242.436 216.624 242.064 216.876 241.608L217.92 242.22C217.524 242.856 216.984 243.36 216.3 243.732C215.616 244.104 214.836 244.29 213.96 244.29C212.544 244.29 211.392 243.846 210.504 242.958C209.616 242.07 209.172 240.942 209.172 239.574C209.172 238.23 209.61 237.108 210.486 236.208C211.362 235.308 212.49 234.858 213.87 234.858ZM213.87 236.01C212.934 236.01 212.148 236.292 211.512 236.856C210.888 237.408 210.516 238.128 210.396 239.016H217.11C216.99 238.068 216.624 237.33 216.012 236.802C215.4 236.274 214.686 236.01 213.87 236.01Z" fill="#54524F"/>
<path d="M227.495 244.074H225.911L221.411 239.736V244.074H220.223V235.074H221.411V239.052L225.695 235.074H227.315L222.671 239.394L227.495 244.074Z" fill="#54524F"/>
<path d="M232.415 244.29C231.059 244.29 229.931 243.84 229.031 242.94C228.131 242.028 227.681 240.906 227.681 239.574C227.681 238.242 228.131 237.126 229.031 236.226C229.931 235.314 231.059 234.858 232.415 234.858C233.303 234.858 234.101 235.074 234.809 235.506C235.517 235.926 236.033 236.496 236.357 237.216L235.385 237.774C235.145 237.234 234.755 236.808 234.215 236.496C233.687 236.172 233.087 236.01 232.415 236.01C231.419 236.01 230.579 236.358 229.895 237.054C229.211 237.738 228.869 238.578 228.869 239.574C228.869 240.57 229.211 241.416 229.895 242.112C230.579 242.796 231.419 243.138 232.415 243.138C233.087 243.138 233.687 242.982 234.215 242.67C234.743 242.346 235.157 241.914 235.457 241.374L236.447 241.95C236.075 242.67 235.529 243.24 234.809 243.66C234.089 244.08 233.291 244.29 232.415 244.29Z" fill="#54524F"/>
<path d="M244.457 235.074V236.226H241.271V244.074H240.083V236.226H236.897V235.074H244.457Z" fill="#54524F"/>
<path d="M252.457 235.074H253.465V244.074H252.277V237.144L246.913 244.074H245.905V235.074H247.093V242.004L252.457 235.074Z" fill="#54524F"/>
<path d="M263.357 235.074V244.074H262.169V236.226H258.101V240.24C258.101 241.74 257.813 242.772 257.237 243.336C256.673 243.9 255.893 244.146 254.897 244.074V242.958C255.581 243.03 256.085 242.868 256.409 242.472C256.745 242.076 256.913 241.332 256.913 240.24V235.074H263.357Z" fill="#54524F"/>
<path d="M269.528 238.494C270.368 238.494 271.076 238.758 271.652 239.286C272.24 239.802 272.534 240.468 272.534 241.284C272.534 242.1 272.24 242.772 271.652 243.3C271.076 243.816 270.368 244.074 269.528 244.074H265.874V235.074H267.062V238.494H269.528ZM269.528 242.922C270.032 242.922 270.458 242.772 270.806 242.472C271.166 242.172 271.346 241.776 271.346 241.284C271.346 240.792 271.166 240.396 270.806 240.096C270.458 239.796 270.032 239.646 269.528 239.646H267.062V242.922H269.528Z" fill="#54524F"/>
<path d="M280.701 235.074H281.889V244.074H280.701V240.15H275.517V244.074H274.329V235.074H275.517V238.998H280.701V235.074Z" fill="#54524F"/>
<path d="M288.055 238.494C288.895 238.494 289.603 238.758 290.179 239.286C290.767 239.802 291.061 240.468 291.061 241.284C291.061 242.1 290.767 242.772 290.179 243.3C289.603 243.816 288.895 244.074 288.055 244.074H284.401V235.074H285.589V238.494H288.055ZM292.321 235.074H293.509V244.074H292.321V235.074ZM288.055 242.922C288.559 242.922 288.985 242.772 289.333 242.472C289.693 242.172 289.873 241.776 289.873 241.284C289.873 240.792 289.693 240.396 289.333 240.096C288.985 239.796 288.559 239.646 288.055 239.646H285.589V242.922H288.055Z" fill="#54524F"/>
<path d="M303.598 244.074H302.176L299.368 240.366L296.56 244.074H295.138L298.666 239.412L295.372 235.074H296.794L299.368 238.476L301.942 235.074H303.364L300.088 239.412L303.598 244.074Z" fill="#54524F"/>
<path d="M317.273 242.922H318.533V246.486H317.345V244.074H310.001V246.486H308.813V242.922H309.911C310.523 242.118 310.829 240.984 310.829 239.52V235.074H317.273V242.922ZM311.351 242.922H316.085V236.226H312.017V239.52C312.017 240.9 311.795 242.034 311.351 242.922Z" fill="#54524F"/>
<path d="M326.883 235.074H327.891V244.074H326.703V237.144L321.339 244.074H320.331V235.074H321.519V242.004L326.883 235.074Z" fill="#54524F"/>
<path d="M335.047 239.448C336.091 239.844 336.613 240.564 336.613 241.608C336.613 242.352 336.319 242.988 335.731 243.516C335.155 244.032 334.327 244.29 333.247 244.29C331.435 244.29 330.247 243.57 329.683 242.13L330.691 241.536C331.063 242.604 331.915 243.138 333.247 243.138C333.943 243.138 334.477 242.988 334.849 242.688C335.233 242.388 335.425 242.004 335.425 241.536C335.425 241.116 335.269 240.774 334.957 240.51C334.645 240.246 334.225 240.114 333.697 240.114H332.383V238.962H333.337C333.853 238.962 334.255 238.836 334.543 238.584C334.843 238.32 334.993 237.96 334.993 237.504C334.993 237.072 334.819 236.718 334.471 236.442C334.123 236.154 333.655 236.01 333.067 236.01C331.939 236.01 331.189 236.46 330.817 237.36L329.827 236.784C330.427 235.5 331.507 234.858 333.067 234.858C334.015 234.858 334.771 235.11 335.335 235.614C335.899 236.106 336.181 236.712 336.181 237.432C336.181 238.356 335.803 239.028 335.047 239.448Z" fill="#54524F"/>
<path d="M346.159 235.074H347.347V244.074H346.159V242.31C345.331 243.63 344.119 244.29 342.523 244.29C341.239 244.29 340.141 243.834 339.229 242.922C338.329 242.01 337.879 240.894 337.879 239.574C337.879 238.254 338.329 237.138 339.229 236.226C340.141 235.314 341.239 234.858 342.523 234.858C344.119 234.858 345.331 235.518 346.159 236.838V235.074ZM340.093 242.112C340.777 242.796 341.617 243.138 342.613 243.138C343.609 243.138 344.449 242.796 345.133 242.112C345.817 241.416 346.159 240.57 346.159 239.574C346.159 238.578 345.817 237.738 345.133 237.054C344.449 236.358 343.609 236.01 342.613 236.01C341.617 236.01 340.777 236.358 340.093 237.054C339.409 237.738 339.067 238.578 339.067 239.574C339.067 240.57 339.409 241.416 340.093 242.112Z" fill="#54524F"/>
<path d="M351.302 233.634V232.59H355.982V233.634H351.302ZM356.414 235.074H357.422V244.074H356.234V237.144L350.87 244.074H349.862V235.074H351.05V242.004L356.414 235.074Z" fill="#54524F"/>
<path d="M366.306 235.074H367.494V244.074H366.306V240.15H361.122V244.074H359.934V235.074H361.122V238.998H366.306V235.074Z" fill="#54524F"/>
<path d="M374.164 234.858C375.496 234.858 376.57 235.332 377.386 236.28C378.214 237.216 378.628 238.326 378.628 239.61C378.628 239.742 378.616 239.928 378.592 240.168H370.69C370.81 241.08 371.194 241.806 371.842 242.346C372.502 242.874 373.312 243.138 374.272 243.138C374.956 243.138 375.544 243 376.036 242.724C376.54 242.436 376.918 242.064 377.17 241.608L378.214 242.22C377.818 242.856 377.278 243.36 376.594 243.732C375.91 244.104 375.13 244.29 374.254 244.29C372.838 244.29 371.686 243.846 370.798 242.958C369.91 242.07 369.466 240.942 369.466 239.574C369.466 238.23 369.904 237.108 370.78 236.208C371.656 235.308 372.784 234.858 374.164 234.858ZM374.164 236.01C373.228 236.01 372.442 236.292 371.806 236.856C371.182 237.408 370.81 238.128 370.69 239.016H377.404C377.284 238.068 376.918 237.33 376.306 236.802C375.694 236.274 374.98 236.01 374.164 236.01Z" fill="#54524F"/>
<path d="M385.342 234.858C386.626 234.858 387.718 235.314 388.618 236.226C389.53 237.138 389.986 238.254 389.986 239.574C389.986 240.894 389.53 242.01 388.618 242.922C387.718 243.834 386.626 244.29 385.342 244.29C383.746 244.29 382.534 243.63 381.706 242.31V247.674H380.518V235.074H381.706V236.838C382.534 235.518 383.746 234.858 385.342 234.858ZM382.732 242.112C383.416 242.796 384.256 243.138 385.252 243.138C386.248 243.138 387.088 242.796 387.772 242.112C388.456 241.416 388.798 240.57 388.798 239.574C388.798 238.578 388.456 237.738 387.772 237.054C387.088 236.358 386.248 236.01 385.252 236.01C384.256 236.01 383.416 236.358 382.732 237.054C382.048 237.738 381.706 238.578 381.706 239.574C381.706 240.57 382.048 241.416 382.732 242.112Z" fill="#54524F"/>
<path d="M399.504 242.94C398.592 243.84 397.476 244.29 396.156 244.29C394.836 244.29 393.714 243.84 392.79 242.94C391.878 242.028 391.422 240.906 391.422 239.574C391.422 238.242 391.878 237.126 392.79 236.226C393.714 235.314 394.836 234.858 396.156 234.858C397.476 234.858 398.592 235.314 399.504 236.226C400.428 237.126 400.89 238.242 400.89 239.574C400.89 240.906 400.428 242.028 399.504 242.94ZM393.636 242.112C394.32 242.796 395.16 243.138 396.156 243.138C397.152 243.138 397.992 242.796 398.676 242.112C399.36 241.416 399.702 240.57 399.702 239.574C399.702 238.578 399.36 237.738 398.676 237.054C397.992 236.358 397.152 236.01 396.156 236.01C395.16 236.01 394.32 236.358 393.636 237.054C392.952 237.738 392.61 238.578 392.61 239.574C392.61 240.57 392.952 241.416 393.636 242.112Z" fill="#54524F"/>
<path d="M408.602 239.448C409.586 239.808 410.078 240.51 410.078 241.554C410.078 242.286 409.832 242.892 409.34 243.372C408.86 243.84 408.164 244.074 407.252 244.074H402.878V235.074H406.892C407.768 235.074 408.446 235.302 408.926 235.758C409.406 236.202 409.646 236.778 409.646 237.486C409.646 238.386 409.298 239.04 408.602 239.448ZM406.892 236.226H404.066V238.962H406.892C407.936 238.962 408.458 238.494 408.458 237.558C408.458 237.138 408.32 236.814 408.044 236.586C407.78 236.346 407.396 236.226 406.892 236.226ZM407.252 242.922C407.78 242.922 408.182 242.796 408.458 242.544C408.746 242.292 408.89 241.938 408.89 241.482C408.89 241.062 408.746 240.732 408.458 240.492C408.182 240.24 407.78 240.114 407.252 240.114H404.066V242.922H407.252Z" fill="#54524F"/>
<path d="M218.303 260.074H219.311V269.074H218.123V262.144L212.759 269.074H211.751V260.074H212.939V267.004L218.303 260.074Z" fill="#54524F"/>
<path d="M233.883 267.922H235.143V271.486H233.955V269.074H226.611V271.486H225.423V267.922H226.521C227.133 267.118 227.439 265.984 227.439 264.52V260.074H233.883V267.922ZM227.961 267.922H232.695V261.226H228.627V264.52C228.627 265.9 228.405 267.034 227.961 267.922Z" fill="#54524F"/>
<path d="M240.746 259.858C242.078 259.858 243.152 260.332 243.968 261.28C244.796 262.216 245.21 263.326 245.21 264.61C245.21 264.742 245.198 264.928 245.174 265.168H237.272C237.392 266.08 237.776 266.806 238.424 267.346C239.084 267.874 239.894 268.138 240.854 268.138C241.538 268.138 242.126 268 242.618 267.724C243.122 267.436 243.5 267.064 243.752 266.608L244.796 267.22C244.4 267.856 243.86 268.36 243.176 268.732C242.492 269.104 241.712 269.29 240.836 269.29C239.42 269.29 238.268 268.846 237.38 267.958C236.492 267.07 236.048 265.942 236.048 264.574C236.048 263.23 236.486 262.108 237.362 261.208C238.238 260.308 239.366 259.858 240.746 259.858ZM240.746 261.01C239.81 261.01 239.024 261.292 238.388 261.856C237.764 262.408 237.392 263.128 237.272 264.016H243.986C243.866 263.068 243.5 262.33 242.888 261.802C242.276 261.274 241.562 261.01 240.746 261.01Z" fill="#54524F"/>
<path d="M254.372 269.074H252.788L248.288 264.736V269.074H247.1V260.074H248.288V264.052L252.572 260.074H254.192L249.548 264.394L254.372 269.074Z" fill="#54524F"/>
<path d="M262.64 267.94C261.728 268.84 260.612 269.29 259.292 269.29C257.972 269.29 256.85 268.84 255.926 267.94C255.014 267.028 254.558 265.906 254.558 264.574C254.558 263.242 255.014 262.126 255.926 261.226C256.85 260.314 257.972 259.858 259.292 259.858C260.612 259.858 261.728 260.314 262.64 261.226C263.564 262.126 264.026 263.242 264.026 264.574C264.026 265.906 263.564 267.028 262.64 267.94ZM256.772 267.112C257.456 267.796 258.296 268.138 259.292 268.138C260.288 268.138 261.128 267.796 261.812 267.112C262.496 266.416 262.838 265.57 262.838 264.574C262.838 263.578 262.496 262.738 261.812 262.054C261.128 261.358 260.288 261.01 259.292 261.01C258.296 261.01 257.456 261.358 256.772 262.054C256.088 262.738 255.746 263.578 255.746 264.574C255.746 265.57 256.088 266.416 256.772 267.112Z" fill="#54524F"/>
<path d="M270.838 259.858C272.122 259.858 273.214 260.314 274.114 261.226C275.026 262.138 275.482 263.254 275.482 264.574C275.482 265.894 275.026 267.01 274.114 267.922C273.214 268.834 272.122 269.29 270.838 269.29C269.242 269.29 268.03 268.63 267.202 267.31V272.674H266.014V260.074H267.202V261.838C268.03 260.518 269.242 259.858 270.838 259.858ZM268.228 267.112C268.912 267.796 269.752 268.138 270.748 268.138C271.744 268.138 272.584 267.796 273.268 267.112C273.952 266.416 274.294 265.57 274.294 264.574C274.294 263.578 273.952 262.738 273.268 262.054C272.584 261.358 271.744 261.01 270.748 261.01C269.752 261.01 268.912 261.358 268.228 262.054C267.544 262.738 267.202 263.578 267.202 264.574C267.202 265.57 267.544 266.416 268.228 267.112Z" fill="#54524F"/>
<path d="M285.198 260.074H286.386V269.074H285.198V267.31C284.37 268.63 283.158 269.29 281.562 269.29C280.278 269.29 279.18 268.834 278.268 267.922C277.368 267.01 276.918 265.894 276.918 264.574C276.918 263.254 277.368 262.138 278.268 261.226C279.18 260.314 280.278 259.858 281.562 259.858C283.158 259.858 284.37 260.518 285.198 261.838V260.074ZM279.132 267.112C279.816 267.796 280.656 268.138 281.652 268.138C282.648 268.138 283.488 267.796 284.172 267.112C284.856 266.416 285.198 265.57 285.198 264.574C285.198 263.578 284.856 262.738 284.172 262.054C283.488 261.358 282.648 261.01 281.652 261.01C280.656 261.01 279.816 261.358 279.132 262.054C278.448 262.738 278.106 263.578 278.106 264.574C278.106 265.57 278.448 266.416 279.132 267.112Z" fill="#54524F"/>
<path d="M295.381 260.074V261.226H292.195V269.074H291.007V261.226H287.821V260.074H295.381Z" fill="#54524F"/>
<path d="M304.019 267.94C303.107 268.84 301.991 269.29 300.671 269.29C299.351 269.29 298.229 268.84 297.305 267.94C296.393 267.028 295.937 265.906 295.937 264.574C295.937 263.242 296.393 262.126 297.305 261.226C298.229 260.314 299.351 259.858 300.671 259.858C301.991 259.858 303.107 260.314 304.019 261.226C304.943 262.126 305.405 263.242 305.405 264.574C305.405 265.906 304.943 267.028 304.019 267.94ZM298.151 267.112C298.835 267.796 299.675 268.138 300.671 268.138C301.667 268.138 302.507 267.796 303.191 267.112C303.875 266.416 304.217 265.57 304.217 264.574C304.217 263.578 303.875 262.738 303.191 262.054C302.507 261.358 301.667 261.01 300.671 261.01C299.675 261.01 298.835 261.358 298.151 262.054C297.467 262.738 297.125 263.578 297.125 264.574C297.125 265.57 297.467 266.416 298.151 267.112Z" fill="#54524F"/>
<path d="M312.217 259.858C313.501 259.858 314.593 260.314 315.493 261.226C316.405 262.138 316.861 263.254 316.861 264.574C316.861 265.894 316.405 267.01 315.493 267.922C314.593 268.834 313.501 269.29 312.217 269.29C310.621 269.29 309.409 268.63 308.581 267.31V272.674H307.393V260.074H308.581V261.838C309.409 260.518 310.621 259.858 312.217 259.858ZM309.607 267.112C310.291 267.796 311.131 268.138 312.127 268.138C313.123 268.138 313.963 267.796 314.647 267.112C315.331 266.416 315.673 265.57 315.673 264.574C315.673 263.578 315.331 262.738 314.647 262.054C313.963 261.358 313.123 261.01 312.127 261.01C311.131 261.01 310.291 261.358 309.607 262.054C308.923 262.738 308.581 263.578 308.581 264.574C308.581 265.57 308.923 266.416 309.607 267.112Z" fill="#54524F"/>
<path d="M326.379 267.94C325.467 268.84 324.351 269.29 323.031 269.29C321.711 269.29 320.589 268.84 319.665 267.94C318.753 267.028 318.297 265.906 318.297 264.574C318.297 263.242 318.753 262.126 319.665 261.226C320.589 260.314 321.711 259.858 323.031 259.858C324.351 259.858 325.467 260.314 326.379 261.226C327.303 262.126 327.765 263.242 327.765 264.574C327.765 265.906 327.303 267.028 326.379 267.94ZM320.511 267.112C321.195 267.796 322.035 268.138 323.031 268.138C324.027 268.138 324.867 267.796 325.551 267.112C326.235 266.416 326.577 265.57 326.577 264.574C326.577 263.578 326.235 262.738 325.551 262.054C324.867 261.358 324.027 261.01 323.031 261.01C322.035 261.01 321.195 261.358 320.511 262.054C319.827 262.738 319.485 263.578 319.485 264.574C319.485 265.57 319.827 266.416 320.511 267.112Z" fill="#54524F"/>
<path d="M335.477 264.448C336.461 264.808 336.953 265.51 336.953 266.554C336.953 267.286 336.707 267.892 336.215 268.372C335.735 268.84 335.039 269.074 334.127 269.074H329.753V260.074H333.767C334.643 260.074 335.321 260.302 335.801 260.758C336.281 261.202 336.521 261.778 336.521 262.486C336.521 263.386 336.173 264.04 335.477 264.448ZM333.767 261.226H330.941V263.962H333.767C334.811 263.962 335.333 263.494 335.333 262.558C335.333 262.138 335.195 261.814 334.919 261.586C334.655 261.346 334.271 261.226 333.767 261.226ZM334.127 267.922C334.655 267.922 335.057 267.796 335.333 267.544C335.621 267.292 335.765 266.938 335.765 266.482C335.765 266.062 335.621 265.732 335.333 265.492C335.057 265.24 334.655 265.114 334.127 265.114H330.941V267.922H334.127Z" fill="#54524F"/>
</svg>
