<svg width="74" height="80" viewBox="0 0 74 80" fill="none" xmlns="http://www.w3.org/2000/svg">
<path d="M3.14844 0H73.5817V11.5125H3.14844V0Z" fill="#757472"/>
<path d="M0.703125 55.0954L22.5912 14.5668H19.2897C10.6078 14.5668 4.00468 21.1454 4.00468 27.8414H3.63784V14.0969H32.8628L11.0969 54.6255H15.3767C24.7923 54.6255 32.4959 48.1645 32.4959 39.1189H32.985V55.0954H0.703125Z" fill="#757472"/>
<path d="M57.9326 24.1997C57.9326 31.8355 54.5087 33.5976 51.2072 33.5976H47.4165V14.5668H50.8403C54.7533 14.5668 57.9326 16.9163 57.9326 24.1997ZM73.2176 51.5712L72.7284 51.4537C71.6279 55.2129 69.1823 54.3905 68.0818 52.7459C67.1036 51.2187 67.4704 47.577 67.1036 43.9353C66.7367 38.649 60.745 34.5374 57.0766 33.8326C59.889 33.1277 65.3916 30.1908 65.3916 23.9647C65.3916 19.1483 60.745 14.2144 51.2072 14.2144H33.4766V14.6843H38.9792V54.6255H33.7211V55.0954H52.6745V54.6255H47.4165V34.0675H51.4517C54.1419 34.0675 58.0548 35.9471 58.6662 39.5888C59.0331 42.4082 58.9108 44.8751 58.9108 47.1071C58.9108 52.276 61.8455 55.4478 66.9813 55.4478C71.3834 55.4478 72.973 53.3333 73.2176 51.5712Z" fill="#757472"/>
<path d="M6.93912 75.5361V76.7109L4.86036 78.7079H6.93912V79.7652H3.14844V78.7079L5.2272 76.7109H3.27072V75.5361H6.93912Z" fill="#757472"/>
<path d="M9.38281 75.5361H10.7279V79.7652H9.38281V75.5361Z" fill="#757472"/>
<path d="M15.01 75.5361L15.4991 77.6507L15.9882 75.5361H17.7001V79.7652H16.4773V77.0633C16.4773 77.1808 16.4773 77.2982 16.3551 77.4157L15.7437 79.7652H15.01C15.01 79.5303 14.8877 79.4128 14.8877 79.2953L14.5209 77.5332C14.5209 77.4157 14.5209 77.2982 14.3986 77.1808V79.8827H13.1758V75.6536L15.01 75.5361Z" fill="#757472"/>
<path d="M22.0998 75.5361L22.5889 77.6507L23.0781 75.5361H24.79V79.7652H23.5672V77.0633C23.5672 77.1808 23.5672 77.2982 23.4449 77.4157L22.8335 79.7652H21.8553C21.8553 79.5303 21.733 79.4128 21.733 79.2953L21.6107 77.5332C21.6107 77.4157 21.6107 77.2982 21.4884 77.1808V79.8827H20.2656V75.6536L22.0998 75.5361Z" fill="#757472"/>
<path d="M31.1477 75.5361V76.5934H28.8244V77.1808H30.9031V78.1206H28.8244V78.7079H31.27V79.7652H27.6016V75.5361H31.1477Z" fill="#757472"/>
<path d="M35.0665 77.4155V76.5932H35.6779C35.9225 76.5932 36.0448 76.5932 36.1671 76.8282C36.1671 76.9456 36.2893 77.0631 36.2893 77.0631C36.2893 77.1806 36.1671 77.2981 36.1671 77.2981C36.0448 77.4155 35.9225 77.4155 35.6779 77.4155H35.0665ZM35.0665 78.3553H35.5557C35.8002 78.3553 35.9225 78.3553 36.0448 78.4728C36.2894 78.5903 36.2893 79.0602 36.2893 79.2951C36.2893 79.4126 36.2894 79.6475 36.4116 79.765H37.7567V79.6475C37.7567 79.5301 37.6344 79.1776 37.6344 78.7077C37.6344 78.5903 37.6344 78.1204 37.2676 77.8854C37.1453 77.8854 37.1453 77.7679 37.023 77.7679C37.023 77.7679 37.1453 77.7679 37.1453 77.6505C37.2676 77.533 37.6344 77.2981 37.6344 76.7107C37.6344 76.3583 37.5121 76.0058 37.3899 75.8884C37.023 75.4185 36.4116 75.4185 36.2893 75.4185H33.8438V79.6475H35.1888L35.0665 78.3553Z" fill="#757472"/>
<path d="M41.0584 79.7652V78.238H39.4688V77.8856H41.0584V76.3584H41.4252V77.8856H43.0149V78.238H41.4252V79.7652H41.0584Z" fill="#757472"/>
<path d="M46.3165 77.4155V76.5932H46.9279C47.1725 76.5932 47.2948 76.5932 47.4171 76.8282C47.4171 76.9456 47.5393 77.0631 47.5393 77.0631C47.5393 77.1806 47.4171 77.2981 47.4171 77.2981C47.2948 77.4155 47.1725 77.4155 46.9279 77.4155H46.3165ZM46.3165 78.3553H46.8057C47.0502 78.3553 47.1725 78.3553 47.2948 78.4728C47.5394 78.5903 47.5393 79.0602 47.5393 79.2951C47.5393 79.4126 47.5394 79.6475 47.6616 79.765H49.0067V79.6475C49.0067 79.5301 48.8844 79.1776 48.8844 78.7077C48.8844 78.5903 48.8844 78.1204 48.5176 77.8854C48.3953 77.8854 48.3953 77.7679 48.273 77.7679C48.273 77.7679 48.3953 77.7679 48.3953 77.6505C48.5176 77.533 48.8844 77.2981 48.8844 76.7107C48.8844 76.3583 48.7622 76.0058 48.6399 75.8884C48.273 75.4185 47.6616 75.4185 47.5393 75.4185H45.0938V79.6475H46.4388L46.3165 78.3553Z" fill="#757472"/>
<path d="M53.1647 76.5934C53.287 76.5934 53.5315 76.5934 53.6538 76.7109C54.0207 77.0633 54.0207 77.6507 54.0207 77.6507C54.0207 77.7681 54.0207 78.8254 53.1647 78.8254C52.9201 78.8254 52.7979 78.8254 52.6756 78.7079C52.5533 78.5905 52.3087 78.238 52.3087 77.7681C52.3087 77.6507 52.3087 76.5934 53.1647 76.5934ZM53.1647 75.5361C51.8196 75.5361 51.3305 76.3585 51.2082 76.8283C51.0859 77.1808 51.0859 77.6507 51.0859 77.7681C51.0859 78.7079 51.4528 79.1778 51.8196 79.4128C52.431 79.8827 53.0424 80.0001 53.4093 80.0001C53.5315 80.0001 53.8984 80.0002 54.3875 79.7652C55.1212 79.4128 55.3657 78.8254 55.488 78.5905C55.6103 78.238 55.6103 77.8856 55.6103 77.7681C55.6103 76.7109 55.1212 76.241 54.7543 76.006C54.0207 75.5361 53.4093 75.5361 53.1647 75.5361Z" fill="#757472"/>
<path d="M61.4782 75.5361V79.7652H60.1331V78.1206H58.9103V79.7652H57.6875V75.5361H58.9103V77.0633H60.1331V75.5361H61.4782Z" fill="#757472"/>
<path d="M64.9025 78.7077V76.5932H65.7584C65.8807 76.5932 66.003 76.7107 66.003 76.7107C66.2476 76.9456 66.2476 77.298 66.2476 77.533C66.2476 77.8854 66.1253 78.3553 65.6362 78.4728H65.147L64.9025 78.7077ZM63.6797 75.5359V79.765H65.3916C65.7584 79.765 65.8807 79.765 66.2476 79.6475C66.4921 79.6475 66.9812 79.4126 67.3481 78.8252C67.7149 78.3553 67.7149 77.7679 67.7149 77.533C67.7149 76.4757 67.2258 76.0058 66.859 75.7709C66.4921 75.5359 66.1253 75.4185 65.6362 75.4185H65.2693L63.6797 75.5359Z" fill="#757472"/>
<path d="M73.5813 75.5361V76.5934H71.258V77.1808H73.3367V78.1206H71.258V78.7079H73.7036V79.7652H70.0352V75.5361H73.5813Z" fill="#757472"/>
</svg>
